<?xml version="1.0" standalone="no"?>
<!DOCTYPE svg PUBLIC "-//W3C//DTD SVG 1.1//EN" "http://www.w3.org/Graphics/SVG/1.1/DTD/svg11.dtd" >
<svg xmlns="http://www.w3.org/2000/svg" xmlns:xlink="http://www.w3.org/1999/xlink" version="1.1">
<metadata>
Created by FontForge 20160405 at Sun Oct 14 22:42:19 2018
 By www-data
(c) Copyright Beijing HANYI KEYIN Information Technology Co.
</metadata>
<defs>
<font id="HYQuHeiW" horiz-adv-x="1000" vert-adv-y="1000" >
  <font-face 
    font-family="HYQuHeiW"
    font-weight="400"
    font-stretch="normal"
    units-per-em="1000"
    panose-1="0 2 6 0 4 1 1 1 1 1"
    ascent="850"
    descent="-150"
    x-height="388"
    cap-height="605"
    bbox="-51 -246 1000 813"
    underline-thickness="50"
    underline-position="-321"
    unicode-range="U+0020-FFE5"
  />
<missing-glyph 
 />
    <glyph glyph-name=".notdef" 
 />
    <glyph glyph-name=".null" horiz-adv-x="0" vert-adv-y="0" 
 />
    <glyph glyph-name="nonmarkingreturn" horiz-adv-x="333" 
 />
    <glyph glyph-name="space" unicode=" " horiz-adv-x="500" 
 />
    <glyph glyph-name="exclam" unicode="!" horiz-adv-x="225" 
d="M71 174h81l26 431h-133zM52 10h115v83h-115v-83z" />
    <glyph glyph-name="quotedbl" unicode="&#x22;" horiz-adv-x="292" 
d="M172 422h53l19 208h-90zM64 422h53l19 208h-91z" />
    <glyph glyph-name="numbersign" unicode="#" horiz-adv-x="579" 
d="M53 346l94 8l-8 -106h-102v-103l96 9l-10 -144l70 -5l27 157l115 10l-4 -162l70 -5l22 175l99 10v58h-91l17 134l89 9v57h-81l14 110l-124 10l-3 -120h-74l18 105l-125 16l-9 -121h-100v-102zM254 364l87 8l-4 -124h-103z" />
    <glyph glyph-name="dollar" unicode="$" horiz-adv-x="545" 
d="M33 605v-353q97 -1 195 -1l2 -147l-197 -10v-84h199l1 -52h83l2 52h187v343l-171 7l6 137l165 -2v110h-160l3 71h-127l1 -71h-189zM169 499l55 -1l2 -134l-64 3zM383 250q-6 -70 -10 -139l-50 -3l6 142h54z" />
    <glyph glyph-name="percent" unicode="%" horiz-adv-x="560" 
d="M99 494l66 3l-6 -113q-25 -3 -50 -4zM27 556v-236h215v236h-215zM417 582l-364 -566l53 -29l406 526zM452 186l-7 -113l-50 -4l-10 113zM313 9h215v236h-215v-236z" />
    <glyph glyph-name="ampersand" unicode="&#x26;" horiz-adv-x="675" 
d="M572 408l-112 -152l-93 97l128 108v144h-399v-148l119 -106l-168 -156l28 -185h326l72 111l149 -133l47 51l-149 154l111 171zM197 88l-28 99l118 99l118 -105l-69 -93h-139zM387 514l-90 -87q-43 43 -84 89z" />
    <glyph glyph-name="quotesingle" unicode="'" horiz-adv-x="182" 
d="M64 422h53l18 208h-90z" />
    <glyph glyph-name="parenleft" unicode="(" horiz-adv-x="362" 
d="M312 -246q-95 201 -94 423q-1 223 94 427h-116q-82 -206 -81 -427q-1 -219 81 -423h116z" />
    <glyph glyph-name="parenright" unicode=")" horiz-adv-x="362" 
d="M166 -246q81 204 81 423q0 221 -81 427h-116q94 -204 94 -427q0 -222 -94 -423h116z" />
    <glyph glyph-name="asterisk" unicode="*" horiz-adv-x="447" 
d="M87 402l103 62l6 -95h52l5 95l104 -62l27 41l-102 77l112 68l-47 73l-87 -66l6 113h-89l6 -113l-87 66l-47 -73l112 -68l-102 -77z" />
    <glyph glyph-name="plus" unicode="+" horiz-adv-x="490" 
d="M65 138l136 17l9 -145h65l10 155l135 17v58h-131l10 148h-113l9 -148h-130v-102z" />
    <glyph glyph-name="comma" unicode="," horiz-adv-x="259" 
d="M65 10h53l-35 -106l27 -10l84 116v117h-129v-117z" />
    <glyph glyph-name="hyphen" unicode="-" horiz-adv-x="490" 
d="M65 138l355 44v58h-355v-102z" />
    <glyph glyph-name="period" unicode="." horiz-adv-x="259" 
d="M65 10h129v117h-129v-117z" />
    <glyph glyph-name="slash" unicode="/" horiz-adv-x="371" 
d="M346 597l-118 44l-197 -660l55 -20z" />
    <glyph glyph-name="zero" unicode="0" horiz-adv-x="491" 
d="M42 571v-561h399v561h-399zM179 96l-32 390l190 -21l-34 -350z" />
    <glyph glyph-name="one" unicode="1" horiz-adv-x="239" 
d="M12 571v-68l83 -15l-29 -478h147v561h-201z" />
    <glyph glyph-name="two" unicode="2" horiz-adv-x="465" 
d="M435 376v195h-393v-162h84l30 83l147 -14l-1 -67l-260 -304v-97h402v70l-235 24z" />
    <glyph glyph-name="three" unicode="3" horiz-adv-x="457" 
d="M44 223l235 34l-12 -156l-262 -18v-73h402v561h-402v-73l292 -17l-11 -140h-242v-118z" />
    <glyph glyph-name="four" unicode="4" horiz-adv-x="463" 
d="M22 96l267 30l7 -116h93l4 128l68 8v71h-65l12 354h-143l19 -354h-149l80 354h-145z" />
    <glyph glyph-name="five" unicode="5" horiz-adv-x="445" 
d="M22 225l280 8l-30 -132l-230 -18v-73h373v316h-274l13 154l261 18v73h-393v-346z" />
    <glyph glyph-name="six" unicode="6" horiz-adv-x="485" 
d="M42 10h402v323h-276l-3 150l274 -15v103h-383zM336 240l-25 -139l-138 -13l-3 160z" />
    <glyph glyph-name="seven" unicode="7" horiz-adv-x="429" 
d="M13 378l76 -2l29 117q82 -10 165 -20l-167 -463h136l173 561h-425z" />
    <glyph glyph-name="eight" unicode="8" horiz-adv-x="497" 
d="M322 345l-140 -9l-13 153l171 -10zM327 99l-145 -7l-13 161h173zM50 571v-561h397v561h-397z" />
    <glyph glyph-name="nine" unicode="9" horiz-adv-x="460" 
d="M410 571h-398v-350l277 19l-9 -135l-238 -25v-70h368v561zM128 489l178 -11l-11 -156h-151z" />
    <glyph glyph-name="colon" unicode=":" horiz-adv-x="259" 
d="M65 10h129v117h-129v-117zM65 276h129v117h-129v-117z" />
    <glyph glyph-name="semicolon" unicode=";" horiz-adv-x="259" 
d="M65 276h129v117h-129v-117zM65 10h53l-35 -106l27 -10l84 116v117h-129v-117z" />
    <glyph glyph-name="less" unicode="&#x3c;" horiz-adv-x="490" 
d="M88 197l268 -197l30 35l-154 166l172 107l-57 91z" />
    <glyph glyph-name="equal" unicode="=" horiz-adv-x="490" 
d="M80 218l325 23v58l-325 20v-101zM80 60l325 24v58l-325 20v-102z" />
    <glyph glyph-name="greater" unicode="&#x3e;" horiz-adv-x="490" 
d="M145 399l-57 -91l172 -107l-154 -166l30 -35l268 197z" />
    <glyph glyph-name="question" unicode="?" horiz-adv-x="407" 
d="M99 443l35 100l140 -16q-8 -40 -16 -78l-110 -125l-10 -150h94q-1 65 -1 130l127 104v196h-324v-161h65zM128 10h115v83h-115v-83z" />
    <glyph glyph-name="at" unicode="@" horiz-adv-x="735" 
d="M91 572l-14 -562h572v54l-466 19l-11 434l399 -19l-21 -336q-17 4 -32 9v294l-312 -10v-55l237 -9l-7 -71h-223v-214h193v79l-87 -19l-24 97l135 -15l-13 -142h235l-3 466h-558z" />
    <glyph glyph-name="A" unicode="A" horiz-adv-x="587" 
d="M31 23l82 -15l64 221l219 26l65 -247l87 19l-93 578h-331zM257 502q37 -5 76 -7l41 -156h-165z" />
    <glyph glyph-name="B" unicode="B" horiz-adv-x="605" 
d="M442 259l-25 -152l-233 -18l-34 428l198 -16l-119 -217zM525 500v105h-482v-595h511v345h-156z" />
    <glyph glyph-name="C" unicode="C" horiz-adv-x="531" 
d="M43 10h468v73l-350 23l33 402l317 23v74h-468v-595z" />
    <glyph glyph-name="D" unicode="D" horiz-adv-x="587" 
d="M154 519l251 -11l31 -73l-28 -286l-59 -48l-168 -10zM43 605v-595h387l116 91v412l-115 92h-388z" />
    <glyph glyph-name="E" unicode="E" horiz-adv-x="488" 
d="M42 10h412v73l-259 23l-13 138l272 42v69h-282l-14 153l296 23v74h-412v-595z" />
    <glyph glyph-name="F" unicode="F" horiz-adv-x="498" 
d="M42 10h99l22 234l291 36v74h-281l14 150l277 24v77h-422v-595z" />
    <glyph glyph-name="G" unicode="G" horiz-adv-x="600" 
d="M43 10h511v326h-289v-78l163 -20l-22 -119l-223 -20l-30 404l401 25v77h-511v-595z" />
    <glyph glyph-name="H" unicode="H" horiz-adv-x="605" 
d="M59 10h94l18 235l253 25l20 -260h94l16 595h-156l19 -250h-238l20 250h-156z" />
    <glyph glyph-name="I" unicode="I" horiz-adv-x="235" 
d="M59 605l-18 -595h150l-18 595h-114z" />
    <glyph glyph-name="J" unicode="J" horiz-adv-x="435" 
d="M272 110l-121 -20l-39 143h-90v-223h365v595h-147z" />
    <glyph glyph-name="K" unicode="K" horiz-adv-x="555" 
d="M43 10h93l18 179l49 42l243 -223l63 41l-195 276l204 174l-92 111l-257 -277l29 272h-155v-595z" />
    <glyph glyph-name="L" unicode="L" horiz-adv-x="463" 
d="M201 605h-159v-595h392v82l-276 26z" />
    <glyph glyph-name="M" unicode="M" horiz-adv-x="761" 
d="M44 605v-595h94l39 460l157 -421h84l160 420l30 -459h99v595h-199l-133 -338l-126 338h-205z" />
    <glyph glyph-name="N" unicode="N" horiz-adv-x="605" 
d="M43 605v-595h100l38 430l236 -430h137v595h-110l-19 -388l-212 388h-170z" />
    <glyph glyph-name="O" unicode="O" horiz-adv-x="605" 
d="M184 88l-34 438l300 -22l-37 -394zM554 605h-511v-595h511v595z" />
    <glyph glyph-name="P" unicode="P" horiz-adv-x="595" 
d="M43 605v-595h86l29 248h396v347h-511zM448 504q-16 -73 -30 -146l-251 -18l22 183z" />
    <glyph glyph-name="Q" unicode="Q" horiz-adv-x="605" 
d="M226 223l148 -122l-206 -7l-17 427l304 -21l-24 -364l-103 184zM554 605h-511v-595h511v595z" />
    <glyph glyph-name="R" unicode="R" horiz-adv-x="595" 
d="M527 605h-484v-595h86l30 276h134l200 -279l64 35l-106 244h76v319zM419 504l-26 -116l-225 -20l17 157z" />
    <glyph glyph-name="S" unicode="S" horiz-adv-x="545" 
d="M33 605v-353l350 -2l-10 -139l-340 -17v-84h472v343l-343 14l7 132l336 -4v110h-472z" />
    <glyph glyph-name="T" unicode="T" horiz-adv-x="525" 
d="M4 479l187 19l21 -488h94l20 502l188 19v74h-510v-126z" />
    <glyph glyph-name="U" unicode="U" horiz-adv-x="605" 
d="M140 605h-97v-595h511v595h-102l-35 -490l-233 -22z" />
    <glyph glyph-name="V" unicode="V" horiz-adv-x="547" 
d="M161 9h217l161 592l-102 31l-166 -504l-165 503l-105 -30z" />
    <glyph glyph-name="W" unicode="W" horiz-adv-x="723" 
d="M249 10l108 401l107 -401h140l106 593l-102 17l-91 -425l-101 395h-119l-100 -402l-88 432l-106 -17l110 -593h136z" />
    <glyph glyph-name="X" unicode="X" horiz-adv-x="557" 
d="M80 643l-71 -55l187 -263l-196 -234l114 -101l160 226l162 -226l114 107l-198 230l182 257l-70 59l-190 -226z" />
    <glyph glyph-name="Y" unicode="Y" horiz-adv-x="581" 
d="M573 540l-113 102l-169 -266l-178 266l-113 -107l238 -231l-23 -294h143l-24 294z" />
    <glyph glyph-name="Z" unicode="Z" horiz-adv-x="533" 
d="M334 495l-311 -374v-111h480v80l-343 26l322 362v127h-459v-82z" />
    <glyph glyph-name="bracketleft" unicode="[" horiz-adv-x="375" 
d="M120 -246h205v65h-90l-24 717h114v66h-205v-848z" />
    <glyph glyph-name="backslash" unicode="\" horiz-adv-x="371" 
d="M288 -39l55 20l-197 660l-118 -44z" />
    <glyph glyph-name="bracketright" unicode="]" horiz-adv-x="375" 
d="M255 602h-205v-66h114l-24 -717h-90v-65h205v848z" />
    <glyph glyph-name="asciicircum" unicode="^" horiz-adv-x="389" 
d="M88 378l105 104l107 -104l36 26l-141 217l-142 -214z" />
    <glyph glyph-name="underscore" unicode="_" horiz-adv-x="495" 
d="M30 -80v-69h435v69h-435z" />
    <glyph glyph-name="grave" unicode="`" horiz-adv-x="284" 
d="M117 633l-73 -73l159 -126l33 30z" />
    <glyph glyph-name="a" unicode="a" horiz-adv-x="433" 
d="M21 240v-230h380v378h-358v-80l247 -7l-8 -61h-261zM142 162h131l-7 -57l-120 -11z" />
    <glyph glyph-name="b" unicode="b" horiz-adv-x="423" 
d="M141 605h-93l-15 -595h346l-2 378h-230zM274 291l-10 -189l-109 -7l-6 204z" />
    <glyph glyph-name="c" unicode="c" horiz-adv-x="385" 
d="M366 388h-328v-378h328v77l-220 9l12 206l208 4v82z" />
    <glyph glyph-name="d" unicode="d" horiz-adv-x="428" 
d="M38 10h346l-6 595h-92l-10 -217h-234zM148 293l124 -7l-8 -176l-110 -6z" />
    <glyph glyph-name="e" unicode="e" horiz-adv-x="423" 
d="M48 388l-2 -378h327l3 67l-209 16l-5 51h219l3 244h-336zM279 301l-4 -76l-120 -10l-9 92z" />
    <glyph glyph-name="f" unicode="f" horiz-adv-x="364" 
d="M74 605v-217h-64v-113l64 7v-272h95l17 285l168 20v73h-162l8 124l135 22v71h-261z" />
    <glyph glyph-name="g" unicode="g" horiz-adv-x="433" 
d="M43 388l-5 -378h230l-7 -164l-223 -19v-73h346l-6 634h-335zM147 300l134 -8l-8 -185l-116 -2z" />
    <glyph glyph-name="h" unicode="h" horiz-adv-x="433" 
d="M175 605h-137v-595h96l20 299l138 -6l-36 -293h128v378h-224z" />
    <glyph glyph-name="i" unicode="i" horiz-adv-x="209" 
d="M171 558h-139l19 -105h104zM165 10l-14 378h-98l-15 -378h127z" />
    <glyph glyph-name="j" unicode="j" horiz-adv-x="213" 
d="M165 388h-124l11 -544l-103 -20v-70h206zM174 558h-138l18 -105h104z" />
    <glyph glyph-name="k" unicode="k" horiz-adv-x="385" 
d="M171 605h-133l8 -595h94l5 107l181 -121l57 61q-72 61 -141 126l150 135l-82 95l-158 -172z" />
    <glyph glyph-name="l" unicode="l" horiz-adv-x="203" 
d="M147 605h-100l-12 -595h127z" />
    <glyph glyph-name="m" unicode="m" horiz-adv-x="573" 
d="M40 388l3 -378h77l30 282l78 -3l10 -279h79l19 275l91 -4l-13 -271h105v378h-479z" />
    <glyph glyph-name="n" unicode="n" horiz-adv-x="433" 
d="M38 388v-378h86l33 295l132 -8l-30 -287h125v378h-346z" />
    <glyph glyph-name="o" unicode="o" horiz-adv-x="439" 
d="M154 100l-9 209l148 -6l-18 -199zM44 388l-6 -378h351v378h-345z" />
    <glyph glyph-name="p" unicode="p" horiz-adv-x="433" 
d="M38 388v-634h82l11 256h243l10 378h-346zM285 294l-12 -191l-138 -9l10 207z" />
    <glyph glyph-name="q" unicode="q" horiz-adv-x="435" 
d="M48 388l-10 -378h239l8 -256h85l16 634h-338zM153 290l116 4l5 -179l-120 -9z" />
    <glyph glyph-name="r" unicode="r" horiz-adv-x="293" 
d="M37 9h94l13 296l143 15v68h-250v-379z" />
    <glyph glyph-name="s" unicode="s" horiz-adv-x="383" 
d="M345 307v81h-317v-235l210 -2v-56l-210 -22v-63h317v213l-203 4l5 82z" />
    <glyph glyph-name="t" unicode="t" horiz-adv-x="311" 
d="M162 482h-124v-472h248v103q-70 -10 -139 -22l7 199l151 26v72h-147z" />
    <glyph glyph-name="u" unicode="u" horiz-adv-x="433" 
d="M130 388h-92v-378h346v378h-92q-12 -136 -23 -272q-56 -5 -111 -10z" />
    <glyph glyph-name="v" unicode="v" horiz-adv-x="333" 
d="M72 395l-77 -24l96 -361h138l101 366l-73 21q-49 -129 -92 -259z" />
    <glyph glyph-name="w" unicode="w" horiz-adv-x="513" 
d="M66 396l-69 -24l90 -362h106l62 201l52 -201h106l90 362l-69 24l-80 -216l-69 198h-70l-69 -197z" />
    <glyph glyph-name="x" unicode="x" horiz-adv-x="373" 
d="M53 399l-61 -58l121 -147l-121 -128l94 -72l93 118l98 -118l95 76l-125 128l120 152l-57 53l-129 -137z" />
    <glyph glyph-name="y" unicode="y" horiz-adv-x="412" 
d="M130 389h-89l-3 -379h219l-6 -167l-213 -16v-73h326l-2 634l-92 1l-10 -288l-28 -2l-78 -10z" />
    <glyph glyph-name="z" unicode="z" horiz-adv-x="377" 
d="M28 316l178 -16l-178 -204v-86h312v100q-87 -5 -173 -8l173 200v86h-312v-72z" />
    <glyph glyph-name="braceleft" unicode="{" horiz-adv-x="352" 
d="M144 225l-54 -47l54 -48v-376h163q-3 3 -7 4q-38 10 -55 44q-12 25 -16 53q-3 26 -3 52v69q1 62 1 125q0 15 -1 30l-55 46l55 47v223q0 26 3 53q4 28 16 53q15 33 50 43q6 2 12 6h-163v-377z" />
    <glyph glyph-name="bar" unicode="|" horiz-adv-x="215" 
d="M80 -246h55l30 848h-115z" />
    <glyph glyph-name="braceright" unicode="}" horiz-adv-x="352" 
d="M208 602h-163q2 -3 6 -4q38 -10 56 -45q11 -25 15 -53q3 -27 4 -53v-223l55 -47l-55 -46q-2 -15 -2 -30q0 -53 1 -105q0 -44 1 -89q-1 -26 -4 -52q-4 -28 -15 -53q-17 -32 -51 -42q-6 -2 -11 -6h163v376l54 48l-54 47v377z" />
    <glyph glyph-name="asciitilde" unicode="~" horiz-adv-x="541" 
d="M81 214l135 41l107 -61l153 94l-21 43l-109 -42l-141 66l-140 -102z" />
    <glyph glyph-name="exclamdown" unicode="&#xa1;" horiz-adv-x="225" 
d="M71 185l-26 -428h133l-26 428h-81zM52 265h115v84h-115v-84z" />
    <glyph glyph-name="cent" unicode="&#xa2;" horiz-adv-x="385" 
d="M366 387h-91l3 109h-96l3 -109h-147v-377h156l8 -104h56l8 104h100v77l-220 9l12 205l208 4v82z" />
    <glyph glyph-name="sterling" unicode="&#xa3;" horiz-adv-x="559" 
d="M124 605v-218h-74v-113l74 8v-182l-81 -55l25 -60l159 51l147 -72l165 115l-38 68l-116 -63l-160 72l10 139l169 19v73h-163l9 125l135 22v71h-261z" />
    <glyph glyph-name="currency" unicode="&#xa4;" horiz-adv-x="734" 
d="M653 101l-101 73q39 58 40 130q-1 68 -38 125l100 63l-71 82l-76 -93q-64 49 -143 50q-81 -1 -143 -50l-76 93l-71 -82l99 -63q-37 -57 -37 -125q-1 -71 39 -130l-100 -73l59 -68l90 90q62 -47 140 -47q77 0 140 47l91 -90zM364 464q70 -2 118 -53q41 -46 43 -107
q-2 -62 -43 -108q-48 -52 -118 -53q-62 1 -108 41q-52 49 -53 120q1 70 53 118q46 41 108 42z" />
    <glyph glyph-name="yen" unicode="&#xa5;" horiz-adv-x="451" 
d="M7 299l164 10l2 -83h-149v-104l153 10l4 -142h93l2 151l136 8v77h-136v92l146 8v78h-128l143 155l-98 75l-116 -197l-116 197l-97 -75l142 -155h-145v-105z" />
    <glyph glyph-name="brokenbar" unicode="&#xa6;" horiz-adv-x="166" 
d="M50 607v-251h66v251h-66zM50 257v-251h66v251h-66z" />
    <glyph glyph-name="section" unicode="&#xa7;" horiz-adv-x="564" 
d="M513 10v156l-279 55l279 5v214l-356 66l-8 23l364 14v63h-466v-150l293 -66l-293 -6v-200l361 -73q-6 -13 -11 -24l-350 -14v-63h466zM156 286q-5 15 -7 32l252 9l-5 -24z" />
    <glyph glyph-name="dieresis" unicode="&#xa8;" horiz-adv-x="379" 
d="M120 740q-18 -1 -31 -12q-14 -14 -14 -34q0 -21 14 -35q13 -11 31 -11q17 0 31 11q14 14 15 35q-1 20 -15 34q-14 11 -31 12zM258 740q-18 -1 -32 -12q-14 -14 -14 -34q0 -21 14 -35q14 -11 32 -11q17 0 31 11q14 14 15 35q-1 20 -15 34q-14 11 -31 12z" />
    <glyph glyph-name="copyright" unicode="&#xa9;" horiz-adv-x="761" 
d="M380 617q106 -2 186 -72q89 -84 92 -205q-2 -107 -72 -187q-84 -89 -206 -91q-122 2 -206 91q-70 80 -71 187q1 105 71 185q84 89 206 92zM380 670q-127 -2 -222 -86q-50 -46 -79 -108q-29 -65 -29 -136q1 -127 85 -222q99 -106 245 -108q145 2 245 108q84 95 86 222
q-1 71 -30 136q-29 62 -80 108q-95 84 -221 86zM548 528h-328v-377h328v77l-220 9l12 205l208 4v82z" />
    <glyph glyph-name="ordfeminine" unicode="&#xaa;" horiz-adv-x="319" 
d="M42 584v-149h231v233h-220v-56l152 -4l-4 -24h-159zM113 529l80 -6l-4 -31l-72 -6z" />
    <glyph glyph-name="guillemotleft" unicode="&#xab;" horiz-adv-x="572" 
d="M311 480h-79l-149 -259l149 -261h79l-150 261zM261 221l150 -261h78l-149 261l149 259h-78z" />
    <glyph glyph-name="logicalnot" unicode="&#xac;" horiz-adv-x="542" 
d="M42 369v-64l372 -15l15 -123h62v202h-449z" />
    <glyph glyph-name="uni00AD" unicode="&#xad;" horiz-adv-x="483" 
d="M45 345v-55h393v55h-393z" />
    <glyph glyph-name="registered" unicode="&#xae;" horiz-adv-x="761" 
d="M380 670q-127 -2 -222 -86q-50 -46 -79 -108q-29 -65 -29 -136q1 -127 85 -222q99 -106 245 -108q145 2 245 108q84 95 86 222q-1 71 -30 136q-29 62 -80 108q-95 84 -221 86zM380 617q106 -2 186 -72q89 -84 92 -205q-2 -107 -72 -187q-84 -89 -206 -91q-122 2 -206 91
q-70 80 -71 187q1 105 71 185q84 89 206 92zM226 158h69l16 127h48l147 -142l52 39l-76 103h61v226h-317v-353zM320 360l11 87l120 -9l-11 -69z" />
    <glyph glyph-name="macron" unicode="&#xaf;" horiz-adv-x="363" 
d="M30 625v-54h303v54h-303z" />
    <glyph glyph-name="degree" unicode="&#xb0;" horiz-adv-x="390" 
d="M152 498l-5 106l99 -5l-12 -98zM78 670l-1 -235h232v235h-231z" />
    <glyph glyph-name="plusminus" unicode="&#xb1;" horiz-adv-x="490" 
d="M85 184l116 9l9 -105h65l9 111l116 9v58h-111l10 122h-113l10 -122h-111v-82zM84 65v-75l317 20v55h-317z" />
    <glyph glyph-name="uni00B2" unicode="&#xb2;" horiz-adv-x="255" 
d="M229 582v86h-189v-93h52l16 37l39 -3l-2 -20l-105 -94v-60h189v48l-65 9l-18 3z" />
    <glyph glyph-name="uni00B3" unicode="&#xb3;" horiz-adv-x="255" 
d="M35 513l106 14q-2 -15 -1 -30l-118 -6v-56h187v234h-187v-56l124 -3l-1 -28h-110v-69z" />
    <glyph glyph-name="acute" unicode="&#xb4;" horiz-adv-x="475" 
d="M323 767h-107l-65 -137h56z" />
    <glyph glyph-name="mu" unicode="&#xb5;" horiz-adv-x="433" 
d="M314 347q-11 -123 -20 -246q-74 -7 -147 -13l-25 261h-76v-591h108l-18 252h297l-4 91q-23 -1 -45 -2v250z" />
    <glyph glyph-name="paragraph" unicode="&#xb6;" horiz-adv-x="567" 
d="M209 601q-70 -3 -122 -50q-24 -23 -38 -53q-9 -23 -9 -47v-54q0 -25 9 -47q14 -31 38 -53q52 -47 122 -49h27l10 -264h59l30 545l54 5l20 -550h54l20 565l34 5v47h-308z" />
    <glyph glyph-name="cedilla" unicode="&#xb8;" horiz-adv-x="409" 
d="M179 16l-72 -114l16 4q30 8 61 13q18 2 37 0q14 -3 25 -13q5 -9 6 -20q-3 -16 -18 -25q-27 -12 -58 -10q-35 1 -68 11q-26 7 -43 27q18 -32 49 -53q44 -25 94 -26q47 -2 89 19q16 10 28 25q10 15 11 33q-2 33 -29 51q-35 20 -74 19l52 58z" />
    <glyph glyph-name="uni00B9" unicode="&#xb9;" horiz-adv-x="147" 
d="M10 668v-55q19 -6 40 -9l-16 -169h90v233h-114z" />
    <glyph glyph-name="ordmasculine" unicode="&#xba;" horiz-adv-x="380" 
d="M117 518l-5 86l99 -5l-12 -78zM43 670l-1 -215h232v215h-231z" />
    <glyph glyph-name="guillemotright" unicode="&#xbb;" horiz-adv-x="572" 
d="M411 221l-150 -261h79l149 261l-149 259h-79zM161 480h-78l149 -259l-149 -261h78l150 261z" />
    <glyph glyph-name="onequarter" unicode="&#xbc;" horiz-adv-x="593" 
d="M327 41l149 22l2 -53h68l3 60l40 9v50h-39l9 205h-96q2 -65 6 -129l4 -76h-66l19 205h-98l178 218l-74 54l-422 -562l51 -38l266 326v-291zM56 602v-51q21 -7 44 -12l-20 -264h96v327h-120z" />
    <glyph glyph-name="onehalf" unicode="&#xbd;" horiz-adv-x="619" 
d="M56 602v-51q21 -7 44 -12l-20 -264h96v327h-120zM506 552l-74 54l-422 -562l51 -38zM575 217v117h-236v-106h61l18 45l75 -7q-3 -8 -4 -15q-4 -11 -5 -21l-145 -153v-67h246v57q-38 1 -74 5l-59 5z" />
    <glyph glyph-name="threequarters" unicode="&#xbe;" horiz-adv-x="634" 
d="M24 547l165 -10l-7 -66h-142v-79l137 21l-6 -72l-147 -11v-55h219l-172 -231l49 -38l247 303v-268l150 22l2 -53h68l3 60l38 9v50h-37l9 205h-98q1 -53 5 -105l6 -100h-66l21 205h-81l178 218l-74 54l-231 -309v305h-236v-55z" />
    <glyph glyph-name="questiondown" unicode="&#xbf;" horiz-adv-x="407" 
d="M305 -85l-36 -96l-139 16q6 38 15 75l110 124l10 151h-93q0 -65 1 -130l-127 -104v-193h323v157h-64zM276 349h-115v-84h115v84z" />
    <glyph glyph-name="Agrave" unicode="&#xc0;" horiz-adv-x="587" 
d="M31 23l82 -15q31 110 64 221l219 26l65 -247l87 19l-93 578h-331zM257 502q37 -5 76 -7l41 -156h-164zM298 641h46l-62 129h-93z" />
    <glyph glyph-name="Aacute" unicode="&#xc1;" horiz-adv-x="587" 
d="M31 23l82 -15q31 110 64 221l219 26l65 -247l87 19l-93 578h-331zM257 502q37 -5 76 -7l41 -156h-164zM404 770h-93l-62 -129h46z" />
    <glyph glyph-name="Acircumflex" unicode="&#xc2;" horiz-adv-x="587" 
d="M31 23l82 -15q31 110 64 221l219 26l65 -247l87 19l-93 578h-331zM257 502q37 -5 76 -7l41 -156h-164zM180 641h52l64 88l63 -88h52l-75 129h-81z" />
    <glyph glyph-name="Atilde" unicode="&#xc3;" horiz-adv-x="587" 
d="M31 23l82 -15q31 110 64 221l219 26l65 -247l87 19l-93 578h-331zM257 502q37 -5 76 -7l41 -156h-164zM197 646q17 12 36 23q6 4 13 8q11 9 24 12q5 -1 10 -4q12 -7 24 -15q3 -3 7 -6q13 -9 27 -14q6 0 11 2l14 8q7 5 15 10q16 11 34 22v63q-21 -14 -40 -27q-4 -3 -7 -5
q-11 -8 -24 -12q-5 -1 -9 2q-7 3 -13 8q-6 4 -12 9q-4 2 -8 5q-10 7 -21 13q-4 3 -10 3q-5 -1 -10 -4q-13 -7 -24 -14q-19 -13 -37 -24v-63z" />
    <glyph glyph-name="Adieresis" unicode="&#xc4;" horiz-adv-x="587" 
d="M31 23l82 -15q31 110 64 221l219 26l65 -247l87 19l-93 578h-331zM257 502q37 -5 76 -7l41 -156h-164zM366 740q-18 -1 -32 -12q-14 -14 -14 -34q0 -21 14 -35q14 -11 32 -11q17 0 31 11q14 14 15 35q-1 20 -15 34q-14 11 -31 12zM228 740q-18 -1 -31 -12
q-14 -14 -14 -34q0 -21 14 -35q13 -11 31 -11q17 0 31 11q14 14 15 35q-1 20 -15 34q-14 11 -31 12z" />
    <glyph glyph-name="Aring" unicode="&#xc5;" horiz-adv-x="587" 
d="M31 23l82 -15q31 110 64 221l219 26l65 -247l87 19l-93 578h-331zM257 502q37 -5 76 -7l41 -156h-164zM296 751q-23 -1 -41 -16q-19 -18 -19 -44q0 -23 15 -40q18 -19 45 -19q25 0 43 19q15 17 16 40q-1 22 -16 40q-18 19 -43 20zM296 722q28 -3 30 -31q-3 -28 -30 -30
q-29 1 -31 30q2 28 31 31z" />
    <glyph glyph-name="AE" unicode="&#xc6;" horiz-adv-x="758" 
d="M370 10h353v56l-215 24l-15 162l230 41v52h-239l-16 176l255 24v57h-551l-132 -580l65 -12l83 226l182 21v-247zM292 517l78 -6v-183h-148z" />
    <glyph glyph-name="Ccedilla" unicode="&#xc7;" horiz-adv-x="531" 
d="M43 10h191l-68 -108l16 4q30 8 61 13q18 2 37 0q14 -3 25 -13q5 -9 6 -20q-3 -16 -18 -25q-27 -12 -58 -10q-35 1 -68 11q-26 7 -43 27q17 -33 49 -53q44 -25 94 -26q47 -2 89 19q16 10 28 25q10 15 11 33q-2 33 -29 51q-35 20 -74 19l47 53h172v73l-350 23l33 402
l317 23v74h-468v-595z" />
    <glyph glyph-name="Egrave" unicode="&#xc8;" horiz-adv-x="488" 
d="M42 10h412v73l-259 23l-13 138l272 42v69h-282l-14 153l296 23v74h-412v-595zM278 641h46l-62 129h-93z" />
    <glyph glyph-name="Eacute" unicode="&#xc9;" horiz-adv-x="488" 
d="M42 10h412v73l-259 23l-13 138l272 42v69h-282l-14 153l296 23v74h-412v-595zM364 770h-93l-62 -129h46z" />
    <glyph glyph-name="Ecircumflex" unicode="&#xca;" horiz-adv-x="488" 
d="M42 10h412v73l-259 23l-13 138l272 42v69h-282l-14 153l296 23v74h-412v-595zM150 641h52l64 88l63 -88h52l-75 129h-81z" />
    <glyph glyph-name="Edieresis" unicode="&#xcb;" horiz-adv-x="488" 
d="M42 10h412v73l-259 23l-13 138l272 42v69h-282l-14 153l296 23v74h-412v-595zM325 740q-18 -1 -32 -12q-14 -14 -14 -34q0 -21 14 -35q14 -11 32 -11q17 0 31 11q14 14 15 35q-1 20 -15 34q-14 11 -31 12zM187 740q-18 -1 -31 -12q-14 -14 -14 -34q0 -21 14 -35
q13 -11 31 -11q17 0 31 11q14 14 15 35q-1 20 -15 34q-14 11 -31 12z" />
    <glyph glyph-name="Igrave" unicode="&#xcc;" horiz-adv-x="235" 
d="M128 641h46l-62 129h-93zM59 605l-18 -595h150l-18 595h-114z" />
    <glyph glyph-name="Iacute" unicode="&#xcd;" horiz-adv-x="235" 
d="M229 770h-93l-62 -129h46zM59 605l-18 -595h150l-18 595h-114z" />
    <glyph glyph-name="Icircumflex" unicode="&#xce;" horiz-adv-x="235" 
d="M2 641h52l64 88l63 -88h52l-75 129h-81zM59 605l-18 -595h150l-18 595h-114z" />
    <glyph glyph-name="Idieresis" unicode="&#xcf;" horiz-adv-x="235" 
d="M48 740q-18 -1 -31 -12q-14 -14 -14 -34q0 -21 14 -35q13 -11 31 -11q17 0 31 11q14 14 15 35q-1 20 -15 34q-14 11 -31 12zM186 740q-18 -1 -32 -12q-14 -14 -14 -34q0 -21 14 -35q14 -11 32 -11q17 0 31 11q14 14 15 35q-1 20 -15 34q-14 11 -31 12zM59 605l-18 -595
h150l-18 595h-114z" />
    <glyph glyph-name="Eth" unicode="&#xd0;" horiz-adv-x="587" 
d="M-29 246l72 7v-243h387l116 91v412l-115 92h-388v-254h-72v-105zM170 265l125 13v73h-131l-10 168q125 -6 251 -11l31 -73l-28 -286q-30 -24 -59 -48l-168 -10z" />
    <glyph glyph-name="Ntilde" unicode="&#xd1;" horiz-adv-x="605" 
d="M43 605v-595h100l38 430l236 -430h137v595h-110q-9 -195 -19 -388l-212 388h-170zM213 709q0 -15 4 -30q4 -16 5 -33q7 4 12 11q7 7 15 12q6 4 13 8q11 9 24 12q5 -1 10 -4q12 -7 24 -15q3 -3 7 -6q13 -9 27 -14q6 0 11 2l14 8q7 5 15 10q16 11 34 22v63q-21 -14 -40 -27
q-4 -3 -7 -5q-11 -8 -24 -12q-5 -1 -9 2q-7 3 -13 8q-6 4 -12 9q-4 2 -8 5q-10 7 -21 13q-4 3 -10 3q-5 -1 -10 -4q-13 -7 -24 -14q-19 -13 -37 -24z" />
    <glyph glyph-name="Ograve" unicode="&#xd2;" horiz-adv-x="605" 
d="M317 641h46l-62 129h-93zM184 88l-34 438l300 -22l-37 -394zM554 605h-511v-595h511v595z" />
    <glyph glyph-name="Oacute" unicode="&#xd3;" horiz-adv-x="605" 
d="M399 770h-93l-62 -129h46zM184 88l-34 438l300 -22l-37 -394zM554 605h-511v-595h511v595z" />
    <glyph glyph-name="Ocircumflex" unicode="&#xd4;" horiz-adv-x="605" 
d="M195 641h52l64 88l63 -88h52l-75 129h-81zM184 88l-34 438l300 -22l-37 -394zM554 605h-511v-595h511v595z" />
    <glyph glyph-name="Otilde" unicode="&#xd5;" horiz-adv-x="605" 
d="M554 605h-511v-595h511v595zM184 88l-34 438l300 -22l-37 -394zM197 646q17 12 36 23q6 4 13 8q11 9 24 12q5 -1 10 -4q12 -7 24 -15q3 -3 7 -6q13 -9 27 -14q6 0 11 2l14 8q7 5 15 10q16 11 34 22v63q-21 -14 -40 -27q-4 -3 -7 -5q-11 -8 -24 -12q-5 -1 -9 2q-7 3 -13 8
q-6 4 -12 9q-4 2 -8 5q-10 7 -21 13q-4 3 -10 3q-5 -1 -10 -4q-13 -7 -24 -14q-19 -13 -37 -24v-63z" />
    <glyph glyph-name="Odieresis" unicode="&#xd6;" horiz-adv-x="605" 
d="M238 740q-18 -1 -31 -12q-14 -14 -14 -34q0 -21 14 -35q13 -11 31 -11q17 0 31 11q14 14 15 35q-1 20 -15 34q-14 11 -31 12zM376 740q-18 -1 -32 -12q-14 -14 -14 -34q0 -21 14 -35q14 -11 32 -11q17 0 31 11q14 14 15 35q-1 20 -15 34q-14 11 -31 12zM184 88l-34 438
l300 -22l-37 -394zM554 605h-511v-595h511v595z" />
    <glyph glyph-name="multiply" unicode="&#xd7;" horiz-adv-x="490" 
d="M79 285l106 -86l-85 -94l46 -47l105 88l108 -86l40 39l-92 95l99 83l-78 80l-86 -95l-89 93z" />
    <glyph glyph-name="Oslash" unicode="&#xd8;" horiz-adv-x="605" 
d="M554 550l75 96h-115l-29 -41h-442v-595h22l-52 -74h60l58 74h423v540zM415 506l-238 -337l-27 357zM192 89l249 317l-28 -296z" />
    <glyph glyph-name="Ugrave" unicode="&#xd9;" horiz-adv-x="605" 
d="M320 641h46l-62 129h-93zM140 605h-97v-595h511v595h-102l-35 -490q-117 -11 -233 -22z" />
    <glyph glyph-name="Uacute" unicode="&#xda;" horiz-adv-x="605" 
d="M409 770h-93l-62 -129h46zM140 605h-97v-595h511v595h-102l-35 -490q-117 -11 -233 -22z" />
    <glyph glyph-name="Ucircumflex" unicode="&#xdb;" horiz-adv-x="605" 
d="M195 641h52l64 88l63 -88h52l-75 129h-81zM140 605h-97v-595h511v595h-102l-35 -490q-117 -11 -233 -22z" />
    <glyph glyph-name="Udieresis" unicode="&#xdc;" horiz-adv-x="605" 
d="M238 740q-18 -1 -31 -12q-14 -14 -14 -34q0 -21 14 -35q13 -11 31 -11q17 0 31 11q14 14 15 35q-1 20 -15 34q-14 11 -31 12zM376 740q-18 -1 -32 -12q-14 -14 -14 -34q0 -21 14 -35q14 -11 32 -11q17 0 31 11q14 14 15 35q-1 20 -15 34q-14 11 -31 12zM140 605h-97v-595
h511v595h-102l-35 -490q-117 -11 -233 -22z" />
    <glyph glyph-name="Yacute" unicode="&#xdd;" horiz-adv-x="581" 
d="M409 770h-93l-62 -129h46zM573 540l-113 102q-85 -133 -169 -266l-178 266l-113 -107l238 -231l-23 -294h143l-24 294z" />
    <glyph glyph-name="Thorn" unicode="&#xde;" horiz-adv-x="595" 
d="M194 604h-148v-594h78l19 163h411v322h-373zM449 401q-13 -69 -25 -137l-273 -19l21 177z" />
    <glyph glyph-name="germandbls" unicode="&#xdf;" horiz-adv-x="605" 
d="M184 -242l-20 765l194 -18l-119 -219l211 -25l-27 -163q-42 -8 -84 -13l-33 68h-82v-143h329v339h-164l135 154v99h-458l-19 -844h137z" />
    <glyph glyph-name="agrave" unicode="&#xe0;" horiz-adv-x="433" 
d="M21 241v-231h380v379h-358v-80l247 -7l-7 -61h-262zM252 451h46l-62 129h-93zM142 162h131l-7 -57l-120 -11z" />
    <glyph glyph-name="aacute" unicode="&#xe1;" horiz-adv-x="433" 
d="M21 241v-231h380v379h-358v-80l247 -7l-7 -61h-262zM331 580h-93l-62 -129h46zM142 162h131l-7 -57l-120 -11z" />
    <glyph glyph-name="acircumflex" unicode="&#xe2;" horiz-adv-x="433" 
d="M21 241v-231h380v379h-358v-80l247 -7l-7 -61h-262zM111 451h52l64 88l63 -88h52l-75 129h-81zM142 162h131l-7 -57l-120 -11z" />
    <glyph glyph-name="atilde" unicode="&#xe3;" horiz-adv-x="433" 
d="M21 241v-231h380v379h-358v-80l247 -7l-7 -61h-262zM123 456q17 12 36 23q6 4 13 8q11 9 24 12q5 -1 10 -4q12 -7 24 -15q3 -3 7 -6q13 -9 27 -14q6 0 11 2l14 8q7 5 15 10q16 11 34 22v63q-21 -14 -40 -27q-4 -3 -7 -5q-11 -8 -24 -12q-5 -1 -9 2q-7 3 -13 8q-6 4 -12 9
q-4 2 -8 5q-10 7 -21 13q-4 3 -10 3q-5 -1 -10 -4q-13 -7 -24 -14q-19 -13 -37 -24v-63zM142 162h131l-7 -57l-120 -11z" />
    <glyph glyph-name="adieresis" unicode="&#xe4;" horiz-adv-x="433" 
d="M21 241v-231h380v379h-358v-80l247 -7l-7 -61h-262zM142 162h131l-7 -57l-120 -11zM294 550q-18 -1 -32 -12q-14 -14 -14 -34q0 -21 14 -35q14 -11 32 -11q17 0 31 11q14 14 15 35q-1 20 -15 34q-14 11 -31 12zM156 550q-18 -1 -31 -12q-14 -14 -14 -34q0 -21 14 -35
q13 -11 31 -11q17 0 31 11q14 14 15 35q-1 20 -15 34q-14 11 -31 12z" />
    <glyph glyph-name="aring" unicode="&#xe5;" horiz-adv-x="433" 
d="M21 241v-231h380v379h-358v-80l247 -7l-7 -61h-262zM230 561q-23 -1 -41 -16q-19 -18 -19 -44q0 -23 15 -40q18 -19 45 -19q25 0 43 19q15 17 16 40q-1 22 -16 40q-18 19 -43 20zM142 162h131l-7 -57l-120 -11zM230 532q28 -3 30 -31q-3 -28 -30 -30q-29 1 -31 30
q2 28 31 31z" />
    <glyph glyph-name="ae" unicode="&#xe6;" horiz-adv-x="583" 
d="M48 242v-232h473v63l-179 22l-1 64h196l3 229h-472v-74l184 -6l-1 -72zM150 167l100 -2l-1 -75l-98 -12zM444 302l-7 -69l-96 -3v80z" />
    <glyph glyph-name="ccedilla" unicode="&#xe7;" horiz-adv-x="385" 
d="M366 388h-328v-378h126l-68 -108l16 4q30 8 61 13q18 2 37 0q14 -3 25 -13q5 -9 6 -20q-3 -16 -18 -25q-27 -12 -58 -10q-35 1 -68 11q-26 7 -43 27q18 -32 49 -53q44 -25 94 -26q47 -2 89 19q16 10 28 25q10 15 11 33q-2 33 -29 51q-35 20 -74 19l47 53h97v77l-220 9
l12 206l208 4v82z" />
    <glyph glyph-name="egrave" unicode="&#xe8;" horiz-adv-x="423" 
d="M48 388l-10 -378h327l3 67l-209 16l-4 51h226l3 244h-336zM279 301l-4 -76l-124 -11l-7 93zM250 451h46l-62 129h-93z" />
    <glyph glyph-name="eacute" unicode="&#xe9;" horiz-adv-x="423" 
d="M48 388l-10 -378h327l3 67l-209 16l-4 51h226l3 244h-336zM279 301l-4 -76l-124 -11l-7 93zM331 580h-93l-62 -129h46z" />
    <glyph glyph-name="ecircumflex" unicode="&#xea;" horiz-adv-x="423" 
d="M48 388l-10 -378h327l3 67l-209 16l-4 51h226l3 244h-336zM111 451h52l64 88l63 -88h52l-75 129h-81zM279 301l-4 -76l-124 -11l-7 93z" />
    <glyph glyph-name="edieresis" unicode="&#xeb;" horiz-adv-x="423" 
d="M48 388l-10 -378h327l3 67l-209 16l-4 51h226l3 244h-336zM279 301l-4 -76l-124 -11l-7 93zM294 550q-18 -1 -32 -12q-14 -14 -14 -34q0 -21 14 -35q14 -11 32 -11q17 0 31 11q14 14 15 35q-1 20 -15 34q-14 11 -31 12zM156 550q-18 -1 -31 -12q-14 -14 -14 -34
q0 -21 14 -35q13 -11 31 -11q17 0 31 11q14 14 15 35q-1 20 -15 34q-14 11 -31 12z" />
    <glyph glyph-name="igrave" unicode="&#xec;" horiz-adv-x="209" 
d="M116 451h46l-62 129h-93zM165 10l-14 378h-98l-15 -378h127z" />
    <glyph glyph-name="iacute" unicode="&#xed;" horiz-adv-x="209" 
d="M221 580h-93l-62 -129h46zM165 10l-14 378h-98l-15 -378h127z" />
    <glyph glyph-name="icircumflex" unicode="&#xee;" horiz-adv-x="209" 
d="M-11 451h52l64 88l63 -88h52l-75 129h-81zM165 10l-14 378h-98l-15 -378h127z" />
    <glyph glyph-name="idieresis" unicode="&#xef;" horiz-adv-x="209" 
d="M35 550q-18 -1 -31 -12q-13 -14 -14 -34q1 -21 14 -35q13 -11 31 -11q17 0 31 11q14 14 15 35q-1 20 -15 34q-14 11 -31 12zM173 550q-18 -1 -32 -12q-14 -14 -14 -34q0 -21 14 -35q14 -11 32 -11q17 0 31 11q14 14 15 35q-1 20 -15 34q-14 11 -31 12zM165 10l-14 378
h-98l-15 -378h127z" />
    <glyph glyph-name="eth" unicode="&#xf0;" horiz-adv-x="495" 
d="M-24 447l20 -71l204 46l76 -86l-222 -21v-305h388v274l-128 164l151 34l-27 106l-188 -58l-82 106l-92 -73q29 -34 60 -67zM168 103l-25 141q100 -9 200 -17l-10 -118z" />
    <glyph glyph-name="ntilde" unicode="&#xf1;" horiz-adv-x="433" 
d="M38 388v-378h86l33 295l132 -8l-30 -287h125v378h-346zM123 456q17 12 36 23q6 4 13 8q11 9 24 12q5 -1 10 -4q12 -7 24 -15q3 -3 7 -6q13 -9 27 -14q6 0 11 2l14 8q7 5 15 10q16 11 34 22v63q-21 -14 -40 -27q-4 -3 -7 -5q-11 -8 -24 -12q-5 -1 -9 2q-7 3 -13 8
q-6 4 -12 9q-4 2 -8 5q-10 7 -21 13q-4 3 -10 3q-5 -1 -10 -4q-13 -7 -24 -14q-19 -13 -37 -24v-63z" />
    <glyph glyph-name="ograve" unicode="&#xf2;" horiz-adv-x="439" 
d="M232 451h46l-62 129h-93zM154 100l-9 209l148 -6l-18 -199zM44 388l-6 -378h351v378h-345z" />
    <glyph glyph-name="oacute" unicode="&#xf3;" horiz-adv-x="439" 
d="M321 580h-93l-62 -129h46zM154 100l-9 209l148 -6l-18 -199zM44 388l-6 -378h351v378h-345z" />
    <glyph glyph-name="ocircumflex" unicode="&#xf4;" horiz-adv-x="439" 
d="M113 451h52l64 88l63 -88h52l-75 129h-81zM154 100l-9 209l148 -6l-18 -199zM44 388l-6 -378h351v378h-345z" />
    <glyph glyph-name="otilde" unicode="&#xf5;" horiz-adv-x="439" 
d="M44 388l-6 -378h351v378h-345zM154 100l-9 209l148 -6l-18 -199zM121 456q17 12 36 23q6 4 13 8q11 9 24 12q5 -1 10 -4q12 -7 24 -15q3 -3 7 -6q13 -9 27 -14q6 0 11 2l14 8q7 5 15 10q16 11 34 22v63q-21 -14 -40 -27q-4 -3 -7 -5q-11 -8 -24 -12q-5 -1 -9 2
q-7 3 -13 8q-6 4 -12 9q-4 2 -8 5q-10 7 -21 13q-4 3 -10 3q-5 -1 -10 -4q-13 -7 -24 -14q-19 -13 -37 -24v-63z" />
    <glyph glyph-name="odieresis" unicode="&#xf6;" horiz-adv-x="439" 
d="M160 550q-18 -1 -31 -12q-14 -14 -14 -34q0 -21 14 -35q13 -11 31 -11q17 0 31 11q14 14 15 35q-1 20 -15 34q-14 11 -31 12zM298 550q-18 -1 -32 -12q-14 -14 -14 -34q0 -21 14 -35q14 -11 32 -11q17 0 31 11q14 14 15 35q-1 20 -15 34q-14 11 -31 12zM154 100l-9 209
l148 -6l-18 -199zM44 388l-6 -378h351v378h-345z" />
    <glyph glyph-name="divide" unicode="&#xf7;" horiz-adv-x="490" 
d="M65 159l355 13v58h-355v-71zM198 31h101v82h-101v-82zM198 286h101v83h-101v-83z" />
    <glyph glyph-name="oslash" unicode="&#xf8;" horiz-adv-x="439" 
d="M44 388l-6 -373l-34 -48h60l34 43h291v363l53 66h-105l-36 -51h-257zM171 100l117 146l-13 -142zM145 309l97 -4l-91 -130z" />
    <glyph glyph-name="ugrave" unicode="&#xf9;" horiz-adv-x="433" 
d="M232 451h46l-62 129h-93zM130 388h-92v-378h346v378h-92q-12 -136 -23 -272q-56 -5 -111 -10z" />
    <glyph glyph-name="uacute" unicode="&#xfa;" horiz-adv-x="433" 
d="M321 580h-93l-62 -129h46zM130 388h-92v-378h346v378h-92q-12 -136 -23 -272q-56 -5 -111 -10z" />
    <glyph glyph-name="ucircumflex" unicode="&#xfb;" horiz-adv-x="433" 
d="M113 451h52l64 88l63 -88h52l-75 129h-81zM130 388h-92v-378h346v378h-92q-12 -136 -23 -272q-56 -5 -111 -10z" />
    <glyph glyph-name="udieresis" unicode="&#xfc;" horiz-adv-x="433" 
d="M149 550q-18 -1 -31 -12q-14 -14 -14 -34q0 -21 14 -35q13 -11 31 -11q17 0 31 11q14 14 15 35q-1 20 -15 34q-14 11 -31 12zM287 550q-18 -1 -32 -12q-14 -14 -14 -34q0 -21 14 -35q14 -11 32 -11q17 0 31 11q14 14 15 35q-1 20 -15 34q-14 11 -31 12zM130 388h-92v-378
h346v378h-92q-12 -136 -23 -272q-56 -5 -111 -10z" />
    <glyph glyph-name="yacute" unicode="&#xfd;" horiz-adv-x="412" 
d="M130 388h-89l-3 -378h219l-6 -165l-213 -18v-73h326l-2 634h-92l-10 -286l-106 -13zM327 580h-93l-62 -129h46z" />
    <glyph glyph-name="thorn" unicode="&#xfe;" horiz-adv-x="433" 
d="M42 605v-851h74l11 255h246l10 379h-239l10 217h-112zM293 302l-23 -208l-139 -8l10 224z" />
    <glyph glyph-name="ydieresis" unicode="&#xff;" horiz-adv-x="412" 
d="M130 388h-89l-3 -378h219l-6 -165l-213 -18v-73h326l-2 634h-92l-10 -287l-28 -2l-78 -10zM276 550q-18 -1 -32 -12q-14 -14 -14 -34q0 -21 14 -35q14 -11 32 -11q17 0 31 11q14 14 15 35q-1 20 -15 34q-14 11 -31 12zM138 550q-18 -1 -31 -12q-14 -14 -14 -34
q0 -21 14 -35q13 -11 31 -11q17 0 31 11q14 14 15 35q-1 20 -15 34q-14 11 -31 12z" />
    <glyph glyph-name="caron" unicode="&#x2c7;" horiz-adv-x="501" 
d="M210 641h81l75 129h-52l-63 -88l-64 88h-52z" />
    <glyph glyph-name="uni02C9" unicode="&#x2c9;" horiz-adv-x="529" 
d="M165 733v-62h199v62h-199z" />
    <glyph glyph-name="uni02CA" unicode="&#x2ca;" horiz-adv-x="475" 
d="M315 770h-93l-62 -129h46z" />
    <glyph glyph-name="uni02CB" unicode="&#x2cb;" horiz-adv-x="495" 
d="M279 641h46l-62 129h-93z" />
    <glyph glyph-name="dotaccent" unicode="&#x2d9;" horiz-adv-x="471" 
d="M235 740q-18 -1 -31 -12q-14 -14 -14 -34q0 -21 14 -35q13 -11 31 -11q17 0 31 11q14 14 15 35q-1 20 -15 34q-14 11 -31 12z" />
    <glyph glyph-name="endash" unicode="&#x2013;" 
d="M290 379v-59h420v59h-420z" />
    <glyph glyph-name="emdash" unicode="&#x2014;" 
d="M100 379v-59h800v59h-800z" />
    <glyph glyph-name="quoteleft" unicode="&#x2018;" 
d="M810 606h-53l35 106l-27 10l-84 -116v-117h129v117z" />
    <glyph glyph-name="quoteright" unicode="&#x2019;" 
d="M190 589h53l-35 -106l27 -10l84 116v117h-129v-117z" />
    <glyph glyph-name="quotedblleft" unicode="&#x201c;" 
d="M656 606h-53l35 106l-27 10l-84 -116v-117h129v117zM810 606h-53l35 106l-27 10l-84 -116v-117h129v117z" />
    <glyph glyph-name="quotedblright" unicode="&#x201d;" 
d="M344 589h53l-35 -106l27 -10l84 116v117h-129v-117zM190 589h53l-35 -106l27 -10l84 116v117h-129v-117z" />
    <glyph glyph-name="bullet" unicode="&#x2022;" 
d="M433 283h132v133h-132v-133z" />
    <glyph glyph-name="twodotenleader" unicode="&#x2025;" 
d="M547 294h110v111h-110v-111zM343 294h110v111h-110v-111z" />
    <glyph glyph-name="ellipsis" unicode="&#x2026;" 
d="M649 294h110v111h-110v-111zM445 294h110v111h-110v-111zM241 294h110v111h-110v-111z" />
    <glyph glyph-name="perthousand" unicode="&#x2030;" horiz-adv-x="818" 
d="M100 494l66 3l-6 -113q-25 -3 -50 -4zM28 556v-236h215v236h-215zM418 582l-364 -566l53 -29l406 524zM453 186l-7 -113l-50 -4l-10 113zM314 9h215v236h-215v-236zM687 186l-7 -113l-50 -4l-10 113zM548 9h215v236h-215v-236z" />
    <glyph glyph-name="minute" unicode="&#x2032;" 
d="M241 478l115 189l-106 47l-55 -216z" />
    <glyph glyph-name="second" unicode="&#x2033;" 
d="M381 478l115 189l-106 47l-55 -216zM241 478l115 189l-106 47l-55 -216z" />
    <glyph glyph-name="uni2035" unicode="&#x2035;" 
d="M356 498l-55 216l-106 -47l115 -189z" />
    <glyph glyph-name="uni203B" unicode="&#x203b;" 
d="M303 526l-55 -62l196 -162l-197 -179l36 -38l213 174l212 -174l37 38l-197 179l196 162l-55 62l-193 -176zM453 492q0 -24 16 -40q15 -13 35 -13q22 0 36 17q13 15 14 36q-1 22 -17 38q-14 13 -33 14q-20 -1 -35 -14q-16 -16 -16 -38zM265 306q0 -23 16 -39
q15 -12 36 -12q22 0 38 16q13 15 14 35q-1 19 -14 33q-16 16 -38 17q-20 -1 -36 -13q-16 -15 -16 -37zM637 306q0 -20 13 -35q16 -16 39 -16q22 0 38 16q13 15 14 35q-1 19 -14 33q-16 16 -38 17q-23 -1 -39 -17q-13 -14 -13 -33zM453 119q0 -20 12 -35q16 -16 39 -16
q21 0 36 16q13 15 14 35q-1 19 -14 34q-14 17 -36 18q-20 -1 -35 -14q-16 -16 -16 -38z" />
    <glyph glyph-name="Euro" unicode="&#x20ac;" horiz-adv-x="531" 
d="M-16 305l59 4v-32h-59v-91l59 4v-180h468v73l-350 23l7 93l285 20v58h-278l3 41l296 19v59h-289l9 112l317 23v74h-468v-209h-59v-91z" />
    <glyph glyph-name="uni2103" unicode="&#x2103;" 
d="M255 582l-7 -83l-61 -4l-10 83zM114 444h209v188h-209v-188zM423 10h468v73l-350 23l33 402l317 23v74h-468v-595z" />
    <glyph glyph-name="uni2105" unicode="&#x2105;" 
d="M635 582l-363 -566l52 -29l406 524zM670 186l-7 -113l-50 -4l-10 113zM531 9h216v236h-216v-236zM444 557h-194v-233h194v59l-117 11l2 89l115 9v65z" />
    <glyph glyph-name="uni2109" unicode="&#x2109;" 
d="M449 10h99l22 234l291 36v74h-281l14 150l277 24v77h-422v-595zM138 444h209v188h-209v-188zM279 582l-7 -83l-61 -4l-10 83z" />
    <glyph glyph-name="uni2116" unicode="&#x2116;" 
d="M574 117h247v271h-247v-271zM674 175l-20 154l91 -15l-22 -125zM456 606l-23 -470l-107 470h-162v-596h80l30 453l101 -453h166v596h-85zM570 71v-61h257v59z" />
    <glyph glyph-name="uni2160" unicode="&#x2160;" 
d="M451 605l-25 -595h139l-25 595h-89z" />
    <glyph glyph-name="uni2161" unicode="&#x2161;" 
d="M364 605l-25 -599h139l-24 599h-90zM537 605l-24 -599h138l-24 599h-90z" />
    <glyph glyph-name="uni2162" unicode="&#x2162;" 
d="M304 605l-21 -594h125l-19 594h-85zM453 605l-21 -594h125l-20 594h-84zM604 605l-20 -594h124l-19 594h-85z" />
    <glyph glyph-name="uni2163" unicode="&#x2163;" 
d="M771 605h-94l-103 -437l-101 437h-94l114 -595h164zM245 605l-24 -595h138l-24 595h-90z" />
    <glyph glyph-name="uni2164" unicode="&#x2164;" 
d="M691 605h-94l-102 -437l-101 437h-95l114 -595h164z" />
    <glyph glyph-name="uni2165" unicode="&#x2165;" 
d="M612 605h-95q-50 -220 -101 -438l-102 438h-94l114 -595h164zM656 605l-25 -595h139l-24 595h-90z" />
    <glyph glyph-name="uni2166" unicode="&#x2166;" 
d="M528 605h-94l-102 -437l-102 437h-95l114 -595h165zM569 605l-25 -597h139l-25 597h-89zM742 605l-25 -597h139l-25 597h-89z" />
    <glyph glyph-name="uni2167" unicode="&#x2167;" 
d="M475 605h-94l-97 -436l-97 436h-94l109 -595h165zM493 605l-21 -595h125l-20 595h-84zM641 605l-20 -595h125l-20 595h-85zM793 605l-20 -595h124l-20 595h-84z" />
    <glyph glyph-name="uni2168" unicode="&#x2168;" 
d="M476 617l-118 -80l155 -219l-154 -275l63 -39l156 223l159 -223l63 39l-157 278l158 226l-120 69l-102 -182zM218 605l-26 -596h140l-25 596h-89z" />
    <glyph glyph-name="uni2169" unicode="&#x2169;" 
d="M393 618l-118 -80l155 -220l-154 -275l61 -39l156 225l160 -225l62 39l-157 279l158 226l-119 69l-102 -182z" />
    <glyph glyph-name="uni216A" unicode="&#x216a;" 
d="M308 617l-118 -80l155 -218l-154 -274l62 -39l156 224l160 -224l61 39l-156 277l157 225l-119 69l-102 -181zM685 605l-25 -595h139l-25 595h-89z" />
    <glyph glyph-name="uni216B" unicode="&#x216b;" 
d="M227 617l-118 -80l156 -222l-155 -278l64 -39l155 226l159 -226l62 39l-157 281l158 229l-119 69l-102 -184zM592 605l-24 -595h138l-24 595h-90zM765 605l-24 -595h138l-24 595h-90z" />
    <glyph glyph-name="uni2170" unicode="&#x2170;" 
d="M569 558h-139l19 -105h104zM563 10l-14 378h-98l-15 -378h127z" />
    <glyph glyph-name="uni2171" unicode="&#x2171;" 
d="M469 558h-139l19 -105h104zM463 10l-14 378h-98l-15 -378h127zM669 558h-139l19 -105h104zM663 10l-14 378h-98l-15 -378h127z" />
    <glyph glyph-name="uni2172" unicode="&#x2172;" 
d="M369 558h-139l19 -105h104zM363 10l-14 378h-98l-15 -378h127zM569 558h-139l19 -105h104zM563 10l-14 378h-98l-15 -378h127zM769 558h-139l19 -105h104zM763 10l-14 378h-98l-15 -378h127z" />
    <glyph glyph-name="uni2173" unicode="&#x2173;" 
d="M388 558h-139l19 -105h104zM382 10l-14 378h-98l-15 -378h127zM492 396l-77 -24l96 -362h138l101 367l-73 21l-92 -260z" />
    <glyph glyph-name="uni2174" unicode="&#x2174;" 
d="M409 396l-77 -24l96 -362h138l101 367l-73 21l-92 -260z" />
    <glyph glyph-name="uni2175" unicode="&#x2175;" 
d="M330 395l-77 -24l96 -361h138l101 366l-73 21l-92 -259zM754 558h-139l19 -105h104zM748 10l-14 378h-98l-15 -378h127z" />
    <glyph glyph-name="uni2176" unicode="&#x2176;" 
d="M219 395l-77 -24l96 -361h138l101 366l-73 21l-92 -259zM658 558h-139l19 -105h104zM652 10l-14 378h-98l-15 -378h127zM858 558h-139l19 -105h104zM852 10l-14 378h-98l-15 -378h127z" />
    <glyph glyph-name="uni2177" unicode="&#x2177;" 
d="M141 396l-77 -24l96 -362h138l101 367l-73 21l-92 -260zM556 558h-139l19 -105h104zM550 10l-14 378h-98l-15 -378h127zM746 558h-139l19 -105h104zM740 10l-14 378h-98l-15 -378h127zM936 558h-139l19 -105h104zM930 10l-14 378h-98l-15 -378h127z" />
    <glyph glyph-name="uni2178" unicode="&#x2178;" 
d="M452 400l-53 -58l115 -145l-123 -131l94 -72l93 122l98 -122l95 76l-128 132l119 156l-53 46l-129 -137zM361 10l-14 378h-98l-15 -378h127zM367 558h-139l19 -105h104z" />
    <glyph glyph-name="uni2179" unicode="&#x2179;" 
d="M371 400l-53 -58l115 -145l-123 -131l94 -72l93 122l98 -122l95 76l-128 132l119 156l-53 46l-129 -137z" />
    <glyph glyph-name="uni2460" unicode="&#x2460;" 
d="M500 716q-141 -3 -247 -95q-56 -51 -88 -120q-32 -73 -32 -151q2 -141 94 -246q52 -56 121 -88q72 -31 152 -32q78 1 151 32q69 32 120 88q92 105 95 246q-3 139 -95 245q-51 56 -120 88q-73 32 -151 33zM500 657q117 -2 205 -80q99 -92 102 -227q-2 -118 -80 -207
q-92 -99 -227 -101q-118 1 -207 79q-99 93 -101 229q2 135 101 227q89 78 207 80zM404 572v-43l70 -12l-25 -396h106v451h-151z" />
    <glyph glyph-name="uni2461" unicode="&#x2461;" 
d="M500 716q-141 -3 -247 -95q-56 -51 -88 -120q-32 -73 -32 -151q2 -141 94 -246q52 -56 121 -88q72 -31 152 -32q78 1 151 32q69 32 120 88q92 105 95 246q-3 139 -95 245q-51 56 -120 88q-73 32 -151 33zM500 657q117 -2 205 -80q99 -92 102 -227q-2 -118 -80 -207
q-92 -99 -227 -101q-118 1 -207 79q-99 93 -101 229q2 135 101 227q89 78 207 80zM661 420v152h-323v-120h54l26 70l151 -13l-1 -66l-230 -252v-70h323v43l-210 21z" />
    <glyph glyph-name="uni2462" unicode="&#x2462;" 
d="M500 716q-141 -3 -247 -95q-56 -51 -88 -120q-32 -73 -32 -151q2 -141 94 -246q52 -56 121 -88q72 -31 152 -32q78 1 151 32q69 32 120 88q92 105 95 246q-3 139 -95 245q-51 56 -120 88q-73 32 -151 33zM500 657q117 -2 205 -80q99 -92 102 -227q-2 -118 -80 -207
q-92 -99 -227 -101q-118 1 -207 79q-99 93 -101 229q2 135 101 227q89 78 207 80zM358 300l215 29l-10 -147l-225 -16v-45h323v451h-323v-45l249 -16l-10 -131h-219v-80z" />
    <glyph glyph-name="uni2463" unicode="&#x2463;" 
d="M499 716q-140 -3 -246 -95q-56 -51 -88 -120q-32 -73 -32 -151q2 -141 94 -246q51 -56 120 -88q73 -31 152 -32q79 1 151 32q69 32 121 88q92 105 95 246q-1 78 -33 151q-32 69 -88 120q-106 92 -246 95zM499 657q117 -2 206 -80q99 -92 102 -227q-2 -118 -80 -207
q-93 -99 -228 -101q-136 2 -228 101q-78 89 -79 207q1 117 79 205q92 99 228 102zM542 279h-141l65 293h-103l-37 -376l219 25l6 -100h63l3 108l56 7v43h-54l10 293h-102z" />
    <glyph glyph-name="uni2464" unicode="&#x2464;" 
d="M499 716q-140 -3 -246 -95q-56 -51 -88 -120q-32 -73 -32 -151q2 -141 94 -246q51 -56 120 -88q73 -31 152 -32q79 1 151 32q69 32 121 88q92 105 95 246q-1 78 -33 151q-32 69 -88 120q-106 92 -246 95zM499 657q117 -2 206 -80q99 -92 102 -227q-2 -118 -80 -207
q-93 -99 -228 -101q-136 2 -228 101q-78 89 -79 207q1 117 79 205q92 99 228 102zM344 300l239 5l-18 -123l-221 -16v-45h323v247h-246l18 143l228 16v45h-323v-272z" />
    <glyph glyph-name="uni2465" unicode="&#x2465;" 
d="M500 716q-141 -3 -247 -95q-56 -51 -88 -120q-32 -73 -32 -151q2 -141 94 -246q52 -56 121 -88q72 -31 152 -32q78 1 151 32q69 32 120 88q92 105 95 245q-3 140 -95 246q-51 56 -120 88q-73 32 -151 33zM500 657q135 -3 227 -102q78 -89 80 -206q-3 -136 -102 -228
q-88 -78 -205 -79q-118 1 -207 79q-99 92 -101 228q1 117 79 206q93 99 229 102zM338 121h94v1q114 -1 229 -1v253h-242l-6 139l238 -5v64h-248v-1h-65v-450zM429 168l-7 149l168 -4l-24 -131z" />
    <glyph glyph-name="uni2466" unicode="&#x2466;" 
d="M500 716q-141 -3 -247 -95q-56 -51 -88 -120q-32 -73 -32 -151q2 -141 94 -246q52 -56 121 -88q72 -31 152 -32q78 1 151 32q69 32 120 88q92 105 95 246q-3 139 -95 245q-51 56 -120 88q-73 32 -151 33zM500 657q117 -2 205 -80q99 -92 102 -227q-2 -118 -80 -207
q-92 -99 -227 -101q-118 1 -207 79q-99 93 -101 229q2 135 101 227q89 78 207 80zM343 427l50 -1l32 98l155 -19l-133 -384h94l125 451h-323v-145z" />
    <glyph glyph-name="uni2467" unicode="&#x2467;" 
d="M500 716q-80 -1 -152 -33q-69 -32 -121 -88q-92 -106 -94 -246q2 -140 94 -245q52 -56 121 -88q72 -31 152 -32q78 1 151 32q69 32 120 88q92 105 95 245q-3 140 -95 246q-51 56 -120 88q-73 32 -151 33zM500 657q135 -3 227 -102q78 -89 80 -206q-3 -136 -102 -228
q-88 -78 -205 -79q-118 1 -207 79q-99 92 -101 228q1 117 79 206q93 99 229 102zM340 121h319v451h-319v-451zM431 166l-19 156h175l-19 -140zM431 368l-19 159l175 -16l-19 -128z" />
    <glyph glyph-name="uni2468" unicode="&#x2468;" 
d="M500 716q-80 -1 -152 -33q-69 -32 -121 -88q-92 -106 -94 -246q2 -140 94 -245q52 -56 121 -88q72 -31 152 -32q78 1 151 32q69 32 120 88q92 105 95 245q-3 140 -95 246q-51 56 -120 88q-73 32 -151 33zM500 657q135 -3 227 -102q78 -89 80 -206q-3 -136 -102 -228
q-88 -78 -205 -79q-118 1 -207 79q-99 92 -101 228q1 117 79 206q93 99 229 102zM661 571h-62l-261 1v-274l242 22l-10 -135l-222 -21v-43h313v450zM409 527l185 -17l-11 -145h-152z" />
    <glyph glyph-name="uni2469" unicode="&#x2469;" 
d="M500 716q-80 -1 -152 -33q-69 -32 -121 -88q-92 -106 -94 -246q2 -140 94 -245q52 -56 121 -88q72 -31 152 -32q78 1 151 32q69 32 120 88q92 105 95 245q-3 140 -95 246q-51 56 -120 88q-73 32 -151 33zM288 572q89 83 212 85q121 -3 211 -85h-249v-451h243
q-89 -78 -205 -79q-118 1 -207 79q-99 92 -101 228q1 119 81 208v-28l60 -12l-25 -396h106v451h-126zM530 508l128 19l-28 -342l-72 -19zM807 349q-2 -120 -81 -208v416q79 -89 81 -208z" />
    <glyph glyph-name="uni2474" unicode="&#x2474;" 
d="M418 643v-58l76 -18l-27 -553h114v629h-163zM751 658q54 -155 55 -318q-1 -176 -62 -340h61q60 164 60 340q-1 163 -52 318h-62zM186 658q-52 -155 -52 -318q-1 -176 60 -340h61q-62 164 -62 340q0 163 55 318h-62z" />
    <glyph glyph-name="uni2475" unicode="&#x2475;" 
d="M642 432v211h-279v-167l59 1l28 97l102 -17l-10 -107l-179 -338v-98h279v58l-157 32zM751 658q54 -155 55 -318q-1 -176 -62 -340h61q60 164 60 340q-1 163 -52 318h-62zM186 658q-52 -155 -52 -318q-1 -176 60 -340h61q-62 164 -62 340q0 163 55 318h-62z" />
    <glyph glyph-name="uni2476" unicode="&#x2476;" 
d="M375 580l199 -22l-10 -182h-179v-112l174 41l-12 -206l-172 -22v-63h279v629h-279v-63zM186 658q-52 -155 -52 -318q-1 -176 60 -340h61q-62 164 -62 340q0 163 55 318h-62zM752 658q53 -155 54 -318q-1 -176 -62 -340h61q60 164 60 340q-1 163 -52 318h-61z" />
    <glyph glyph-name="uni2477" unicode="&#x2477;" 
d="M348 117l196 36l7 -139h66l5 151l49 9v60h-48l11 410h-110l17 -410h-112l50 409h-111zM751 658q54 -155 55 -318q-1 -176 -62 -340h61q60 164 60 340q-1 163 -52 318h-62zM186 658q-52 -155 -52 -318q-1 -176 60 -340h61q-62 164 -62 340q0 163 55 318h-62z" />
    <glyph glyph-name="uni2478" unicode="&#x2478;" 
d="M368 264l199 31l-30 -196l-169 -22v-63h279v344h-196l21 200l175 22v63h-279v-379zM751 658q54 -155 55 -318q-1 -176 -62 -340h61q60 164 60 340q-1 163 -52 318h-62zM186 658q-52 -155 -52 -318q-1 -176 60 -340h61q-62 164 -62 340q0 163 55 318h-62z" />
    <glyph glyph-name="uni2479" unicode="&#x2479;" 
d="M441 575l198 -16v84h-279v-629h279v353h-191zM751 658q54 -155 55 -318q-1 -176 -62 -340h61q60 164 60 340q-1 163 -52 318h-62zM186 658q-52 -155 -52 -318q-1 -176 60 -340h61q-62 164 -62 340q0 163 55 318h-62zM452 291l110 -10l-17 -182l-86 -18z" />
    <glyph glyph-name="uni247A" unicode="&#x247a;" 
d="M359 441l55 -2l35 137l106 -27l-121 -535h102l114 630h-291v-203zM751 658q54 -155 55 -318q-1 -176 -62 -340h61q60 164 60 340q-1 163 -52 318h-62zM186 658q-52 -155 -52 -318q-1 -176 60 -340h61q-62 164 -62 340q0 163 55 318h-62z" />
    <glyph glyph-name="uni247B" unicode="&#x247b;" 
d="M367 14h283v629h-283v-629zM751 658q54 -155 55 -318q-1 -176 -62 -340h61q60 164 60 340q-1 163 -52 318h-62zM186 658q-52 -155 -52 -318q-1 -176 60 -340h61q-62 164 -62 340q0 163 55 318h-62zM454 87l-10 208h129l-10 -196zM454 368l-10 202l129 -12l-10 -179z" />
    <glyph glyph-name="uni247C" unicode="&#x247c;" 
d="M545 104l-180 -32v-58h279v629h-279v-383l190 33zM751 658q54 -155 55 -318q-1 -176 -62 -340h61q60 164 60 340q-1 163 -52 318h-62zM186 658q-52 -155 -52 -318q-1 -176 60 -340h61q-62 164 -62 340q0 163 55 318h-62zM560 354h-95l-23 226l130 -23z" />
    <glyph glyph-name="uni247D" unicode="&#x247d;" 
d="M492 643v-629h221v629h-221zM420 643v-629h-96l22 553l-55 18v58h129zM186 658q-52 -155 -52 -318q-1 -176 60 -340h61q-62 164 -62 340q0 163 55 318h-62zM752 658q53 -155 54 -318q-1 -176 -62 -340h61q60 164 60 340q-1 163 -52 318h-61zM579 77l-23 504l93 -28
l-23 -450z" />
    <glyph glyph-name="uni247E" unicode="&#x247e;" 
d="M545 643v-58l56 -18l-22 -553h96v629h-130zM420 643v-629h-96l22 553l-55 18v58h129zM751 658q54 -155 55 -318q-1 -176 -62 -340h61q60 164 60 340q-1 163 -52 318h-62zM186 658q-52 -155 -52 -318q-1 -176 60 -340h61q-62 164 -62 340q0 163 55 318h-62z" />
    <glyph glyph-name="uni247F" unicode="&#x247f;" 
d="M704 432v211h-222v-167l51 1l27 97l69 -17l-9 -107l-138 -338v-98h222v58l-119 32zM420 643v-629h-96l22 553l-55 18v58h129zM186 658q-52 -155 -52 -318q-1 -176 60 -340h61q-62 164 -62 340q0 163 55 318h-62zM752 658q53 -155 54 -318q-1 -176 -62 -340h61
q60 164 60 340q-1 163 -52 318h-61z" />
    <glyph glyph-name="uni2480" unicode="&#x2480;" 
d="M482 580l154 -22l-8 -182h-136v-112l132 41l-9 -206l-133 -22v-63h222v629h-222v-63zM420 643v-629h-96l22 553l-55 18v58h129zM751 658q54 -155 55 -318q-1 -176 -62 -340h61q60 164 60 340q-1 163 -52 318h-62zM186 658q-52 -155 -52 -318q-1 -176 60 -340h61
q-62 164 -62 340q0 163 55 318h-62z" />
    <glyph glyph-name="uni2481" unicode="&#x2481;" 
d="M480 117l155 36l5 -139h58l2 151l40 9v60h-38l9 410h-93l14 -410h-84l44 409h-92zM420 643v-629h-96l22 553l-55 18v58h129zM751 658q54 -155 55 -318q-1 -176 -62 -340h61q60 164 60 340q-1 163 -52 318h-62zM186 658q-52 -155 -52 -318q-1 -176 60 -340h61
q-62 164 -62 340q0 163 55 318h-62z" />
    <glyph glyph-name="uni2482" unicode="&#x2482;" 
d="M488 264l154 31l-23 -196l-131 -22v-63h224v344h-152l16 200l136 22v63h-224v-379zM420 643v-629h-96l22 553l-55 18v58h129zM751 658q54 -155 55 -318q-1 -176 -62 -340h61q60 164 60 340q-1 163 -52 318h-62zM186 658q-52 -155 -52 -318q-1 -176 60 -340h61
q-62 164 -62 340q0 163 55 318h-62z" />
    <glyph glyph-name="uni2483" unicode="&#x2483;" 
d="M558 555l154 34v54h-224v-629h224v353h-148zM291 643v-58l55 -18l-22 -553h96v629h-129zM751 658q54 -155 55 -318q-1 -176 -62 -340h61q60 164 60 340q-1 163 -52 318h-62zM186 658q-52 -155 -52 -318q-1 -176 60 -340h61q-62 164 -62 340q0 163 55 318h-62zM566 301
l79 -20l-21 -182l-52 -18z" />
    <glyph glyph-name="uni2484" unicode="&#x2484;" 
d="M486 441l48 -2l27 137l76 -27l-92 -535h90l81 630h-230v-203zM420 643v-629h-96l22 553l-55 18v58h129zM751 658q54 -155 55 -318q-1 -176 -62 -340h61q60 164 60 340q-1 163 -52 318h-62zM186 658q-52 -155 -52 -318q-1 -176 60 -340h61q-62 164 -62 340q0 163 55 318
h-62z" />
    <glyph glyph-name="uni2485" unicode="&#x2485;" 
d="M483 14h225v629h-225v-629zM291 643v-58l55 -18l-22 -553h96v629h-129zM751 658q54 -155 55 -318q-1 -176 -62 -340h61q60 164 60 340q-1 163 -52 318h-62zM186 658q-52 -155 -52 -318q-1 -176 60 -340h61q-62 164 -62 340q0 163 55 318h-62zM565 77l-16 218h93l-15 -196
zM565 358l-16 222l93 -22l-15 -179z" />
    <glyph glyph-name="uni2486" unicode="&#x2486;" 
d="M623 104l-139 -31v-59h222v629h-222v-388l148 33zM291 643v-58l55 -18l-22 -553h96v629h-129zM751 658q54 -155 55 -318q-1 -176 -62 -340h61q60 164 60 340q-1 163 -52 318h-62zM186 658q-52 -155 -52 -318q-1 -176 60 -340h61q-62 164 -62 340q0 163 55 318h-62z
M634 350h-65l-18 226l93 -24z" />
    <glyph glyph-name="uni2487" unicode="&#x2487;" 
d="M513 643v-629h221v629h-221zM487 432v211h-222v-167l51 1l27 97l68 -17l-9 -107l-137 -338v-98h222v58l-120 32zM751 658q54 -155 55 -318q-1 -176 -62 -340h61q60 164 60 340q-1 163 -52 318h-62zM186 658q-52 -155 -52 -318q-1 -176 60 -340h61q-62 164 -62 340
q0 163 55 318h-62zM601 77l-25 504l95 -28l-23 -450z" />
    <glyph glyph-name="uni2488" unicode="&#x2488;" 
d="M420 633v-60l73 -17l-26 -556h112v633h-159zM808 110v-110h111v110h-111z" />
    <glyph glyph-name="uni2489" unicode="&#x2489;" 
d="M637 417v216h-274v-171h58l28 101l100 -19l-11 -108l-175 -337v-99h274v59l-154 32zM808 110v-110h111v110h-111z" />
    <glyph glyph-name="uni248A" unicode="&#x248a;" 
d="M363 569l196 -22l-11 -178h-185v-114l181 41l-12 -210l-169 -23v-63h274v633h-274v-64zM808 110v-110h111v110h-111z" />
    <glyph glyph-name="uni248B" unicode="&#x248b;" 
d="M352 106l172 36l6 -142h66l3 155l49 9v60h-47l11 410h-108l17 -410h-91l30 409h-108v-527zM808 110v-110h111v110h-111z" />
    <glyph glyph-name="uni248C" unicode="&#x248c;" 
d="M363 245l196 32l-30 -191l-166 -23v-63h274v342h-192l20 205l172 22v64h-274v-388zM808 110v-110h111v110h-111z" />
    <glyph glyph-name="uni248D" unicode="&#x248d;" 
d="M443 543l194 35v55h-274v-633h274v351h-188zM452 283l109 -19l-25 -178l-76 -19zM808 110v-110h111v110h-111z" />
    <glyph glyph-name="uni248E" unicode="&#x248e;" 
d="M358 426l53 -1l35 140l103 -28l-118 -536l99 -1l112 634h-284v-208zM808 110v-110h111v110h-111z" />
    <glyph glyph-name="uni248F" unicode="&#x248f;" 
d="M361 0h277v633h-277v-633zM456 342l-19 227l126 -22l-20 -183zM456 63l-19 214h126l-20 -191zM808 110v-110h111v110h-111z" />
    <glyph glyph-name="uni2490" unicode="&#x2490;" 
d="M539 91l-176 -32v-59h274v633h-274v-391l188 33zM554 338h-92l-23 231l127 -24zM808 110v-110h111v110h-111z" />
    <glyph glyph-name="uni2491" unicode="&#x2491;" 
d="M493 633v-633h215v633h-215zM291 633v-60l54 -17l-20 -556h92v633h-126zM578 63l-24 507l93 -29l-23 -451zM808 110v-110h111v110h-111z" />
    <glyph glyph-name="uni2492" unicode="&#x2492;" 
d="M296 631v-59l53 -18l-21 -554h94v631h-126zM555 631v-59l53 -18l-21 -554h94v631h-126zM808 110v-110h111v110h-111z" />
    <glyph glyph-name="uni2493" unicode="&#x2493;" 
d="M700 417v216h-218v-171h51l26 101l66 -19l-9 -108l-134 -344v-99h218v59l-118 32zM422 631v-631h-94l21 554l-53 18v59h126zM808 110v-110h111v110h-111z" />
    <glyph glyph-name="uni2494" unicode="&#x2494;" 
d="M482 569l151 -22l-9 -187h-142v-114l139 41l-9 -201l-130 -23v-63h218v633h-218v-64zM422 631v-631h-94l21 554l-53 18v59h126zM808 110v-110h111v110h-111z" />
    <glyph glyph-name="uni2495" unicode="&#x2495;" 
d="M468 96l153 36l4 -132h56l4 145l39 9v60h-37l8 420h-91l14 -420h-83l43 419h-90zM422 631v-631h-94l21 554l-53 18v59h126zM808 110v-110h111v110h-111z" />
    <glyph glyph-name="uni2496" unicode="&#x2496;" 
d="M488 245l150 32l-24 -191l-126 -23v-63h217v342h-148l16 205l132 22v64h-217v-388zM422 631v-631h-94l21 554l-53 18v59h126zM809 110v-110h111v110h-111z" />
    <glyph glyph-name="uni2497" unicode="&#x2497;" 
d="M555 556l150 -13v88h-217v-631h217v352h-144zM296 631v-59l53 -18l-21 -554h94v631h-126zM562 286l79 -20l-21 -182l-51 -18zM808 110v-110h111v110h-111z" />
    <glyph glyph-name="uni2498" unicode="&#x2498;" 
d="M477 427l47 -2l27 138l74 -27l-91 -536l88 -1l80 632h-225v-204zM422 631v-631h-94l21 554l-53 18v59h126zM808 110v-110h111v110h-111z" />
    <glyph glyph-name="uni2499" unicode="&#x2499;" 
d="M484 0h220v631h-220v-631zM296 631v-59l53 -18l-21 -554h94v631h-126zM564 62l-16 217h91l-15 -195zM564 344l-16 223l91 -22l-15 -179zM808 110v-110h111v110h-111z" />
    <glyph glyph-name="uni249A" unicode="&#x249a;" 
d="M618 91l-136 -32v-59h218v631h-218v-383l144 33zM296 631v-59l53 -18l-21 -554h94v631h-126zM629 342h-65l-17 225l91 -24zM808 110v-110h111v110h-111z" />
    <glyph glyph-name="uni249B" unicode="&#x249b;" 
d="M513 631v-631h216v631h-216zM487 418v213h-217v-169l50 1l26 98l67 -18l-9 -107l-134 -338v-98h217v58l-118 32zM599 82l-24 487l92 -29l-23 -451zM808 110v-110h111v110h-111z" />
    <glyph glyph-name="uni3000" unicode="&#x3000;" 
 />
    <glyph glyph-name="uni3001" unicode="&#x3001;" 
d="M162 125l95 -155l90 87l-147 102z" />
    <glyph glyph-name="uni3002" unicode="&#x3002;" 
d="M260 34l-5 106l99 -5l-12 -98zM186 206l-1 -235h232v235h-231z" />
    <glyph glyph-name="uni3003" unicode="&#x3003;" 
d="M521 422l-99 35l-64 -240l43 -15zM641 422l-99 35l-64 -240l43 -15z" />
    <glyph glyph-name="uni3005" unicode="&#x3005;" 
d="M772 94l-165 50l207 298v88h-417l55 81l-135 55l-112 -288l69 -30l68 100l330 -26l-162 -249l-226 69l-30 -118l502 -91z" />
    <glyph glyph-name="uni3006" unicode="&#x3006;" 
d="M531 624l155 -169l-83 -80l-163 145l-263 -296l236 -207l222 252l37 -26l36 40l-34 30l130 147l-235 209zM304 191l151 210l99 -72l-182 -175z" />
    <glyph glyph-name="uni3007" unicode="&#x3007;" 
d="M499 607q98 -2 173 -67q82 -77 85 -190q-2 -99 -67 -174q-78 -82 -191 -84q-114 2 -191 84q-65 75 -66 174q1 98 66 172q77 82 191 85zM499 688q-149 -3 -252 -112q-85 -97 -86 -226q1 -130 86 -228q102 -109 252 -111q129 1 227 87q52 47 81 111q30 67 31 141
q-3 149 -112 251q-98 85 -227 87z" />
    <glyph glyph-name="uni3008" unicode="&#x3008;" 
d="M561 324l241 -350l58 30l-185 371l185 265l-109 66z" />
    <glyph glyph-name="uni3009" unicode="&#x3009;" 
d="M249 706l-109 -66l185 -265l-185 -371l59 -30l240 350z" />
    <glyph glyph-name="uni300A" unicode="&#x300a;" 
d="M369 324l241 -350l58 30l-185 371l185 265l-109 66zM561 324l241 -350l58 30l-185 371l185 265l-109 66z" />
    <glyph glyph-name="uni300B" unicode="&#x300b;" 
d="M441 706l-109 -66l185 -265l-185 -371l58 -30l241 350zM249 706l-109 -66l185 -265l-185 -371l59 -30l240 350z" />
    <glyph glyph-name="uni300C" unicode="&#x300c;" 
d="M561 14h87l30 579l182 31v76h-299v-686z" />
    <glyph glyph-name="uni300D" unicode="&#x300d;" 
d="M439 686h-87l-30 -579l-182 -31v-76h299v686z" />
    <glyph glyph-name="uni300E" unicode="&#x300e;" 
d="M833 631l-165 -30l-31 -558h-43v629h239v-41zM561 14h109l30 557l160 30v101h-299v-688z" />
    <glyph glyph-name="uni300F" unicode="&#x300f;" 
d="M167 71l165 30l31 558h43v-629h-239v41zM439 688h-109l-30 -557l-160 -30v-101h299v688z" />
    <glyph glyph-name="uni3010" unicode="&#x3010;" 
d="M600 -2h245q-35 19 -58 53q-26 42 -41 90q-16 56 -24 114q-6 62 -6 124q3 60 13 120q11 53 31 103q26 61 85 92h-245v-696z" />
    <glyph glyph-name="uni3011" unicode="&#x3011;" 
d="M400 694h-245q58 -31 84 -92q20 -50 31 -103q10 -60 13 -120q0 -62 -6 -124q-8 -58 -24 -114q-15 -48 -41 -90q-23 -34 -57 -53h245v696z" />
    <glyph glyph-name="uni3012" unicode="&#x3012;" 
d="M240 284l214 15l24 -289h78l24 298l191 14v67h-531v-105zM240 467l531 38v66h-531v-104z" />
    <glyph glyph-name="uni3013" unicode="&#x3013;" 
d="M147 410h706v190h-706v-190zM147 100h706v190h-706v-190z" />
    <glyph glyph-name="uni3014" unicode="&#x3014;" 
d="M845 654l-20 43l-217 -82v-519l217 -81l20 37l-148 101v405z" />
    <glyph glyph-name="uni3015" unicode="&#x3015;" 
d="M303 558v-405l-148 -101l20 -37l217 81v519l-217 82l-20 -43z" />
    <glyph glyph-name="uni3016" unicode="&#x3016;" 
d="M561 -3h299q-41 18 -71 53q-31 42 -50 90q-19 56 -29 114q-8 62 -7 124q3 61 15 120q13 54 39 103q35 64 103 92h-299v-696zM599 660h160q-20 -21 -34 -45q-21 -37 -33 -78q-25 -92 -24 -188q0 -97 26 -190q19 -72 65 -130h-160v631z" />
    <glyph glyph-name="uni3017" unicode="&#x3017;" 
d="M409 693h-299q67 -28 102 -92q26 -49 39 -103q12 -59 15 -120q1 -62 -7 -124q-10 -58 -29 -114q-19 -48 -50 -90q-30 -35 -70 -53h299v696zM371 29h-160q45 58 64 130q26 93 27 190q0 96 -25 188q-13 41 -33 78q-14 24 -33 45h160v-631z" />
    <glyph glyph-name="uni301D" unicode="&#x301d;" 
d="M695 498l-55 216l-106 -47l115 -189zM835 498l-55 216l-106 -47l115 -189z" />
    <glyph glyph-name="uni301E" unicode="&#x301e;" 
d="M351 478l115 189l-106 47l-55 -216zM211 478l115 189l-106 47l-55 -216z" />
    <glyph glyph-name="uni3220" unicode="&#x3220;" 
d="M731 658q58 -160 58 -329q0 -170 -58 -329h71q51 160 51 329q0 168 -51 329h-71zM268 0q-59 159 -58 329q-1 169 58 329h-71q-52 -161 -51 -329q-1 -169 51 -329h71zM283 384v-111l433 45v66h-433z" />
    <glyph glyph-name="uni3221" unicode="&#x3221;" 
d="M268 0q-59 158 -58 328q-1 170 58 330h-71q-52 -161 -51 -330q-1 -169 51 -328h71zM731 658q58 -160 58 -329q0 -170 -58 -329h71q51 160 51 329q0 168 -51 329h-71zM710 109v58l-421 43v-101h421zM315 548v-105l369 47v58h-369z" />
    <glyph glyph-name="uni3222" unicode="&#x3222;" 
d="M268 0q-59 158 -58 328q-1 170 58 330h-71q-52 -161 -51 -330q-1 -169 51 -328h71zM731 658q58 -160 58 -329q0 -170 -58 -329h71q51 160 51 329q0 168 -51 329h-71zM718 90v62l-437 46v-108h437zM315 567v-108l369 50v58h-369zM322 375v-109l353 47v62h-353z" />
    <glyph glyph-name="uni3223" unicode="&#x3223;" 
d="M704 70v517h-409v-517h409zM268 0q-59 158 -58 328q-1 170 58 330h-71q-52 -161 -51 -330q-1 -169 51 -328h71zM731 658q58 -160 58 -329q0 -170 -58 -329h71q51 160 51 329q0 168 -51 329h-71zM521 517l4 -320h96l-4 -54l-233 -17l-24 405l54 -6l-13 -338l41 -2l59 334z
M625 253l-39 14l17 244l39 -4z" />
    <glyph glyph-name="uni3224" unicode="&#x3224;" 
d="M668 396h-164l19 123l185 18v51h-417v-91l132 14l-7 -115h-106v-55l103 -10l-11 -179l-125 11v-94h445v55l-68 6zM268 0q-59 158 -58 328q-1 170 58 330h-71q-52 -161 -51 -330q-1 -169 51 -328h71zM731 658q58 -160 58 -329q0 -170 -58 -329h71q51 160 51 329
q0 168 -51 329h-71zM465 147l27 177l96 -11l-32 -176z" />
    <glyph glyph-name="uni3225" unicode="&#x3225;" 
d="M282 456v-103l432 43v60h-167l3 153l-117 -18l47 -135h-198zM268 0q-59 158 -58 328q-1 170 58 330h-71q-52 -161 -51 -330q-1 -169 51 -328h71zM731 658q58 -160 58 -329q0 -170 -58 -329h71q51 160 51 329q0 168 -51 329h-71zM615 345l-94 -60l163 -237l38 23zM277 71
l38 -23l168 237l-95 51z" />
    <glyph glyph-name="uni3226" unicode="&#x3226;" 
d="M472 601h-72l-4 -173l-123 -29l22 -114l99 36l-7 -265h320v172l-50 2l-29 -109l-140 23l-7 205l245 93l-13 60l-236 -57zM268 0q-59 158 -58 328q-1 170 58 330h-71q-52 -161 -51 -330q-1 -169 51 -328h71zM731 658q58 -160 58 -329q0 -170 -58 -329h71q51 160 51 329
q0 168 -51 329h-71z" />
    <glyph glyph-name="uni3227" unicode="&#x3227;" 
d="M268 0q-59 158 -58 328q-1 170 58 330h-71q-52 -161 -51 -330q-1 -169 51 -328h71zM731 658q58 -160 58 -329q0 -170 -58 -329h71q51 160 51 329q0 168 -51 329h-71zM628 596l-108 -29l155 -506l50 11zM274 72l50 -11l155 506l-108 29z" />
    <glyph glyph-name="uni3228" unicode="&#x3228;" 
d="M624 493h-114l34 89l-113 27l-27 -116h-127v-63l105 -10l-92 -357l45 -15l138 361l79 -6l-30 -348h200v225h-42l-27 -165l-29 11v367zM731 658q58 -160 58 -329q0 -170 -58 -329h71q51 160 51 329q0 168 -51 329h-71zM268 0q-59 159 -58 329q-1 169 58 329h-71
q-52 -161 -51 -329q-1 -169 51 -329h71z" />
    <glyph glyph-name="uni3229" unicode="&#x3229;" 
d="M468 48h61l13 285l174 22v56h-170l10 198h-115l9 -198h-167v-110l172 21zM268 0q-59 159 -58 329q-1 169 58 329h-71q-52 -161 -51 -329q-1 -169 51 -329h71zM731 658q58 -160 58 -329q0 -170 -58 -329h71q51 160 51 329q0 168 -51 329h-71z" />
    <glyph glyph-name="uni3231" unicode="&#x3231;" 
d="M493 641l-6 -220l35 -7l10 58l48 6l2 -96h-93v-100l48 8l-71 -227l35 -12l84 193l6 -244h57l7 260l97 -199l12 4q-10 -33 -22 -65h72q50 160 50 329q0 168 -50 329h-72q58 -160 58 -329q0 -114 -26 -224l-78 214l53 10v53h-91l3 106l83 10v53h-82l3 98h-88l2 -98h-33
l15 82zM239 537v-120l68 17l-64 -348l40 -13l57 206l9 -279h55l9 302l47 -95l33 15l-61 207l-16 -7l1 40l52 13v62h-50l4 111h-94l3 -111h-93zM257 0q-59 159 -58 329q-1 169 58 329h-72q-51 -161 -50 -329q-1 -169 50 -329h72z" />
    <glyph glyph-name="uni32A3" unicode="&#x32a3;" 
d="M500 716q-80 -1 -152 -33q-69 -32 -121 -88q-92 -106 -94 -246q2 -140 94 -245q52 -56 121 -88q72 -31 152 -32q78 1 151 32q69 32 120 88q92 105 95 245q-3 140 -95 246q-51 56 -120 88q-73 32 -151 33zM500 657q135 -3 227 -102q78 -89 80 -206q-3 -136 -102 -228
q-88 -78 -205 -79q-118 1 -207 79q-99 92 -101 228q1 117 79 206q93 99 229 102zM573 381l11 116l138 12v43h-445v-80l196 16l16 -279l-95 8l21 205h-104l14 -199l-48 4v-80h445v43l-165 14l9 102l156 33v42h-149z" />
    <glyph glyph-name="uni338E" unicode="&#x338e;" 
d="M597 388l-5 -379h230l-7 -163l-223 -19v-73h346l-6 634h-335zM61 388l3 -378h77l30 282l78 -3l10 -279h79l19 275l91 -4l-13 -271h105v378h-479zM701 300l134 -8l-8 -186l-116 -2z" />
    <glyph glyph-name="uni338F" unicode="&#x338f;" 
d="M523 388l-5 -379h230l-7 -163l-223 -19v-73h346l-6 634h-335zM268 605h-133l8 -595h94l5 107l181 -121l57 61q-72 61 -141 126l150 136l-82 95l-158 -173zM627 300l134 -8l-8 -186l-116 -2z" />
    <glyph glyph-name="uni339C" unicode="&#x339c;" 
d="M10 388l3 -378h77l30 282l78 -3l10 -279h79l19 275l91 -4l-13 -271h105v378h-479zM510 388l3 -378h77l30 282l78 -3l10 -279h79l19 275l91 -4l-13 -271h105v378h-479z" />
    <glyph glyph-name="uni339D" unicode="&#x339d;" 
d="M445 388l3 -378h77l30 282l78 -3l10 -279h79l19 275l91 -4l-13 -271h105v378h-479zM404 388h-328v-378h328v77l-220 9l12 206l208 4v82z" />
    <glyph glyph-name="uni339E" unicode="&#x339e;" 
d="M445 388l3 -378h77l30 282l78 -3l10 -279h79l19 275l91 -4l-13 -271h105v378h-479zM209 605h-133l8 -595h94l5 107l181 -121l57 61q-72 61 -141 126l150 136l-82 95l-158 -173z" />
    <glyph glyph-name="uni33A1" unicode="&#x33a1;" 
d="M244 388l3 -378h77l30 282l78 -3l10 -279h79l19 275l91 -4l-13 -271h105v378h-479zM944 582v86h-189v-93h52l16 37l41 -4l-2 -19l-107 -94v-60h189v48l-65 9l-18 3z" />
    <glyph glyph-name="uni33C4" unicode="&#x33c4;" 
d="M469 388h-328v-378h328v77l-220 9l12 206l208 4v82zM858 388h-328v-378h328v77l-220 9l12 206l208 4v82z" />
    <glyph glyph-name="uni33CE" unicode="&#x33ce;" 
d="M449 605v-595h74l34 480l105 -441h70l109 436l27 -475h77v595h-165l-84 -343l-75 343h-172zM55 10h74l16 183l40 45l198 -230l48 36l-159 291l168 188l-95 85l-188 -272l24 269h-126v-595z" />
    <glyph glyph-name="uni33D1" unicode="&#x33d1;" 
d="M339 605h-100l-12 -595h127zM426 388v-378h86l33 295l132 -8l-30 -287h125v378h-346z" />
    <glyph glyph-name="uni33D2" unicode="&#x33d2;" 
d="M606 388l-5 -379h230l-7 -151l-223 -19v-73h346l-6 622h-335zM218 388l-6 -378h351v378h-345zM164 605h-100l-12 -595h127zM328 100l-9 209l148 -6l-18 -199zM710 300l134 -8l-9 -186l-115 -2z" />
    <glyph glyph-name="uni33D5" unicode="&#x33d5;" 
d="M77 388l3 -378h77l30 282l78 -3l10 -279h79l19 275l91 -4l-13 -271h105v378h-479zM908 605h-100l-12 -595h127zM743 10l-14 378h-98l-15 -378h127zM749 559h-139l19 -105h104z" />
    <glyph glyph-name="uni4E00" unicode="&#x4e00;" 
d="M124 431v-150l751 68v82h-751z" />
    <glyph glyph-name="uni4E01" unicode="&#x4e01;" 
d="M121 693v-140l370 32l-26 -473l-175 -37v-69h328l-18 589l278 24v74h-757z" />
    <glyph glyph-name="uni4E03" unicode="&#x4e03;" 
d="M111 443l31 -145l181 47l-11 -353h551v220l-70 8l-52 -144l-273 32l-12 271l432 113l-14 83l-423 -73l-9 206h-107l-7 -228z" />
    <glyph glyph-name="uni4E04" unicode="&#x4e04;" 
d="M878 0v82l-335 25l35 592h-156l25 -585l-326 25v-139h757z" />
    <glyph glyph-name="uni4E05" unicode="&#x4e05;" 
d="M542 0l39 595l297 26v78h-757v-145l309 27l26 -581h86z" />
    <glyph glyph-name="uni4E07" unicode="&#x4e07;" 
d="M122 699v-133l168 12l-126 -561l71 -17l135 370l353 -32l-43 -216l-231 -38v-65h381v433h-430l51 138l426 32v77h-755z" />
    <glyph glyph-name="uni4E08" unicode="&#x4e08;" 
d="M116 638v-146l499 43l1 -118l-129 -87l-201 144l-78 -125l166 -95l-267 -180l37 -64l337 184l372 -211l38 58l-299 213l155 85l3 208l142 13v78h-141l1 79h-139l1 -79h-498z" />
    <glyph glyph-name="uni4E09" unicode="&#x4e09;" 
d="M877 35v79l-755 61v-140h755zM179 664v-140l641 66v74h-641zM192 417v-140l612 61v79h-612z" />
    <glyph glyph-name="uni4E0A" unicode="&#x4e0a;" 
d="M881 0v78l-375 32l13 221l317 56v79h-308l14 233h-157l27 -581l-294 26v-144h763z" />
    <glyph glyph-name="uni4E0B" unicode="&#x4e0b;" 
d="M492 0l20 292h329v71l-321 58l12 170l345 31v77h-755v-145l260 23l27 -577h83z" />
    <glyph glyph-name="uni4E0C" unicode="&#x4e0c;" 
d="M138 36l65 -31l279 499l-144 64l253 22l38 -585h89l26 598l133 11v80h-755v-144l204 17z" />
    <glyph glyph-name="uni4E0D" unicode="&#x4e0d;" 
d="M544 0l34 550l48 53l253 22v74h-754v-140l296 26l-315 -462l52 -43l284 317l17 -397h85zM706 545l-129 -75l263 -390l53 28z" />
    <glyph glyph-name="uni4E0E" unicode="&#x4e0e;" 
d="M468 -13h370v452h-519l17 70l529 59v66h-499l17 67l-159 12l-28 -398l552 50l-37 -277l-243 -38v-63zM134 240v-125l527 59v66h-527z" />
    <glyph glyph-name="uni4E10" unicode="&#x4e10;" 
d="M124 689v-126l317 23l15 -240h-177l48 155l-148 23l-24 -304l603 47l-30 -152l-265 -38v-67h396l-3 336h-314l10 58l304 45v69h-286l13 79l292 22v70h-751z" />
    <glyph glyph-name="uni4E11" unicode="&#x4e11;" 
d="M180 413v-130l174 19l1 -172l-231 15v-125h751v78l-96 6v575h-599v-78l171 -13l2 -175h-173zM459 313l200 22l-22 -222l-200 12zM682 563l-15 -150h-196l19 164z" />
    <glyph glyph-name="uni4E13" unicode="&#x4e13;" 
d="M847 309l-507 9l16 54l519 40v68h-488l19 67l432 36v69h-401l11 37l-150 28l-11 -65h-126v-125l107 9l-10 -56h-134v-125l115 8l-27 -161l495 28l-88 -131l-411 81l-22 -130l670 -67l10 68l-127 25z" />
    <glyph glyph-name="uni4E14" unicode="&#x4e14;" 
d="M197 684v-554l-73 5v-120h751v73l-75 4v592h-603zM712 578l-7 -87h-407l-8 115zM305 375l394 46l-10 -117h-379zM318 191l365 43l-11 -134l-350 22z" />
    <glyph glyph-name="uni4E15" unicode="&#x4e15;" 
d="M542 152l33 395l55 45l234 18v77h-734v-134l259 20l-268 -313l47 -50l278 230l19 -288h77zM864 12v73l-734 52v-125h734zM722 561l-125 -84l230 -276l51 32z" />
    <glyph glyph-name="uni4E16" unicode="&#x4e16;" 
d="M122 525v-131l85 7v-404h661v72l-528 43l-20 298l126 11l13 -251h321l12 279l85 7v69h-81l8 178h-133l9 -178h-122l11 178h-138l9 -178h-128l-10 159h-95v-159h-85zM552 429l133 11l8 -168l-152 -22z" />
    <glyph glyph-name="uni4E17" unicode="&#x4e17;" 
d="M113 541v-140l84 7l25 -399h481l1 -23h80l22 474l80 7v74h-76l7 145h-146l7 -145h-114l10 173h-143l10 -173h-120l6 146h-147l9 -146h-76zM315 418l132 11l18 -324l-164 -14zM558 439l124 10l15 -324l-157 -13z" />
    <glyph glyph-name="uni4E18" unicode="&#x4e18;" 
d="M887 5v78l-185 13l26 249l122 13v74h-494l15 137h439v125l-585 -38v-525l-113 9v-135h775zM341 303l248 27l21 -227l-289 21z" />
    <glyph glyph-name="uni4E19" unicode="&#x4e19;" 
d="M541 10h311v495h-291l45 100l274 20v74h-761v-130l324 24l-22 -88h-274v-505h79l55 421l117 -8l-72 -285l56 -19l134 296l235 -15l-38 -282l-172 -33v-65zM628 125l48 15l-63 253l-116 -49z" />
    <glyph glyph-name="uni4E1A" unicode="&#x4e1a;" 
d="M879 5v74l-251 18l40 597h-142l22 -591l-100 8l30 583h-142l30 -577l-246 18v-130h759zM269 172l59 15l-73 437l-135 -40zM879 589l-135 35l-73 -437l59 -15z" />
    <glyph glyph-name="uni4E1B" unicode="&#x4e1b;" 
d="M131 173l57 -20l110 238l141 -234l53 24l-122 365l46 99l-156 54zM504 168l57 -15l100 245l155 -241l49 24l-143 367l43 106l-151 45zM879 0v74l-759 52v-126h759z" />
    <glyph glyph-name="uni4E1C" unicode="&#x4e1c;" 
d="M132 643v-140l76 7l-36 -236l105 9l-164 -249l47 -38l237 209l-88 81l140 13l-12 -215l-112 -33v-63h247l-15 321l276 26v69l-280 2l-4 94h-89l-5 -93l-152 2l36 113l517 47v74h-479l15 46l-153 23l-11 -69h-96zM839 -4l47 38l-178 270l-106 -99z" />
    <glyph glyph-name="uni4E1D" unicode="&#x4e1d;" 
d="M507 205l-3 60l-231 -5l238 166l-74 93l-70 -62l-113 1l182 149l-104 92l-204 -241v-109l142 23l-134 -118v-108zM877 205l-3 60l-216 -5l222 170l-77 89l-62 -62l-96 1l167 154l-101 87l-181 -241v-109l124 22l-117 -117v-108zM114 122v-122h771v68z" />
    <glyph glyph-name="uni4E1E" unicode="&#x4e1e;" 
d="M855 150l39 44l-157 149l147 105l-103 102l-106 -148l-101 96l236 122v77h-631v-121l385 33l-100 -90h-333v-69l159 -27l-185 -234l39 -34l308 257l-18 -174l-132 -30v-64h271l-11 200zM855 2v69l-702 52v-121h702z" />
    <glyph glyph-name="uni4E21" unicode="&#x4e21;" 
d="M124 698v-125l315 22l4 -79h-301v-515h76l56 436l174 -10l13 -216l-51 -6l-22 176h-75v-257h370v257h-75l-20 -155l-54 -6l18 201l211 -12l-38 -320l-157 -29v-59h289v515h-297l8 88l307 21v73h-751z" />
    <glyph glyph-name="uni4E22" unicode="&#x4e22;" 
d="M844 610v103l-689 -25v-78h277l8 -77h-252v-118l263 23l8 -71h-349v-119l195 14l-150 -248l607 57l78 -84l44 31l-143 274l148 11v64h-344l7 79l259 23v64h-251l7 77h277zM626 219l77 -84h-350l124 139l243 17z" />
    <glyph glyph-name="uni4E24" unicode="&#x4e24;" 
d="M484 59l61 -17l64 191l84 -104l36 22l-9 -65l-119 -28v-55h251v487h-157l42 127l138 10v69h-751v-121l268 18l-16 -103h-224v-487h75l56 413l81 -4l-52 -338l61 -13l52 183l83 -71zM763 393l-33 -233l-82 190l16 48zM527 603l73 5l-25 -118h-80zM471 407l85 -4l-32 -151
l-65 112z" />
    <glyph glyph-name="uni4E25" unicode="&#x4e25;" 
d="M847 533l-99 69l-80 -182l42 -30h-79l24 233l220 17v68h-751v-125l152 11l-95 -66l137 -138h-170v-398h80l52 287l581 46v65h-151zM318 390l42 30l-79 175l94 7l21 -212h-78zM497 611l28 2l30 -223h-83z" />
    <glyph glyph-name="uni4E27" unicode="&#x4e27;" 
d="M833 250l-84 90l122 10v63h-211l131 114l-99 74l-80 -163l35 -25h-96l16 178l285 25v64h-277l4 38h-153l4 -38h-293v-126l124 11l-50 -38l130 -114h-222v-125l90 7l-24 -303l308 77v59l-169 -7l-13 183l108 9l-44 -63l476 -268l29 49l-173 133zM389 438l-64 132l115 10
l18 -167h-104zM506 320l231 19l-90 -129z" />
    <glyph glyph-name="uni4E28" unicode="&#x4e28;" 
d="M536 -8l33 716h-139l28 -716h78z" />
    <glyph glyph-name="uni4E2A" unicode="&#x4e2a;" 
d="M113 432l33 -58l332 175l375 -180l32 54l-273 196l74 39l-194 59zM538 -17l28 486h-140l29 -486h83z" />
    <glyph glyph-name="uni4E2B" unicode="&#x4e2b;" 
d="M539 -17l38 436h-154l38 -436h78zM428 430l38 48l-228 239l-103 -142zM864 589l-99 128l-227 -239l33 -48z" />
    <glyph glyph-name="uni4E2C" unicode="&#x4e2c;" 
d="M665 -17l33 734h-142l8 -205l-266 -430l47 -32l227 266l13 -333h80zM430 697l-129 -77l165 -192l49 27z" />
    <glyph glyph-name="uni4E2D" unicode="&#x4e2d;" 
d="M152 587v-365h301l8 -239h73l15 239h298v365h-274l8 130h-144l4 -130h-289zM252 510l192 -13l6 -188l-163 -11zM751 476l-34 -151l-162 -10l11 173z" />
    <glyph glyph-name="uni4E30" unicode="&#x4e30;" 
d="M144 642v-130l284 24l5 -85h-257v-130l263 25l6 -95h-321v-130l327 27l9 -165h73l10 172l332 28v68h-327l6 106l269 25v69h-263l5 97l290 25v69h-284l4 75h-157l4 -75h-278z" />
    <glyph glyph-name="uni4E32" unicode="&#x4e32;" 
d="M179 652v-247h268l2 -42h-299v-267h311l5 -114h72l6 114h305v267h-289l2 42h258v247h-244l4 66h-147l3 -66h-257zM253 292l199 -9l5 -104l-182 -10zM756 271l-21 -77l-186 -10l6 95zM278 583l161 -8l4 -91l-143 -6zM722 561l-18 -66l-137 -6l4 79z" />
    <glyph glyph-name="uni4E34" unicode="&#x4e34;" 
d="M443 373v-375h423v375h-423zM380 -17l47 734h-135l14 -734h74zM438 422l48 -21l86 156l75 13l-64 -87l204 -94l30 37l-139 149l198 32v64h-242l14 25l-146 21zM220 26l37 641h-134l24 -641h73zM530 305l71 -7l26 -224l-70 -9zM786 281l-32 -191l-63 -8l21 206z" />
    <glyph glyph-name="uni4E36" unicode="&#x4e36;" 
d="M597 185l51 39l-154 290l-143 -118z" />
    <glyph glyph-name="uni4E38" unicode="&#x4e38;" 
d="M718 597h-212l25 85l-150 36l-26 -121h-230v-87l209 -16l-25 -120l-103 93l-84 -123l142 -86l-133 -242l56 -34l171 220l164 -99l37 48l-144 129l58 203l146 -11l-52 -472h310v258l-57 6l-41 -171l-61 14v490z" />
    <glyph glyph-name="uni4E39" unicode="&#x4e39;" 
d="M124 378v-139l88 7v-250h75l26 259l357 32l-15 -194l-128 -29v-59h265l-2 292l85 8v73h-86l-2 326h-575v-326h-88zM559 378h-234l25 246l167 -18l-112 -79zM559 378l47 28l-85 199l172 -18l-16 -209h-118z" />
    <glyph glyph-name="uni4E3A" unicode="&#x4e3a;" 
d="M134 22l48 -40l306 307l46 110l236 -12l-47 -294l-170 -38v-63h312v510h-288l70 165l-141 51l-74 -216h-286v-82l254 -14l-18 -52zM652 115l49 27l-84 227l-120 -78zM205 584l186 -66l35 48l-139 147z" />
    <glyph glyph-name="uni4E3B" unicode="&#x4e3b;" 
d="M180 341v-129l268 26l11 -147l-340 24l4 -123h757v71l-334 22l14 163l254 25v68h-247l12 140l270 23v68h-278l3 136l-185 -34l75 -102h-319v-129l286 25l9 -127h-260z" />
    <glyph glyph-name="uni4E3D" unicode="&#x4e3d;" 
d="M578 0l41 330l94 -148l34 14l-11 -111l-68 -19v-57h185v527h-334v-536h59zM209 0l40 326l92 -144l38 16l-37 187l-91 -39l14 114l135 -26l-21 -236l-10 -111l-73 -21v-57h187v527h-337v-536h63zM128 699v-121l743 52v69h-743zM771 434l-22 -225l-34 176l-94 -40l14 113z
" />
    <glyph glyph-name="uni4E3E" unicode="&#x4e3e;" 
d="M140 175v-114l310 23l9 -107h75l9 114l315 24v60h-309l6 74l182 20v53l124 -101l37 36l-175 215l156 12v61h-200l167 110l-129 68l-139 -178h-43l38 18l-33 160l-130 -63l110 -115h-144l25 28l-118 150l-129 -74l195 -104h-230v-119l127 9l-145 -176l34 -40l122 97v-100
l182 20l4 -61h-303zM568 410h-142l6 -79h-157l148 118l144 11l159 -129h-164z" />
    <glyph glyph-name="uni4E3F" unicode="&#x4e3f;" 
d="M238 31l56 -39l469 622l-144 94z" />
    <glyph glyph-name="uni4E43" unicode="&#x4e43;" 
d="M122 614l529 -39l-118 -214l232 -26l-46 -209l-271 -45v-62h429v426h-158l140 254h-737v-85zM125 27l64 -27l271 534l-150 62z" />
    <glyph glyph-name="uni4E45" unicode="&#x4e45;" 
d="M176 304l174 234l247 -25l-163 -213l-322 -268l36 -50l365 226l333 -226l41 48l-273 279l192 211v109h-388l29 39l-154 50l-172 -380z" />
    <glyph glyph-name="uni4E47" unicode="&#x4e47;" 
d="M830 579v115l-662 -36v-79h256l-6 -172h-306v-134l301 24l-11 -292h485v196l-60 10l-45 -130l-234 35l-6 192l345 28v71h-347l-5 172h295z" />
    <glyph glyph-name="uni4E48" unicode="&#x4e48;" 
d="M170 33l578 73l72 -122l54 26l-132 407l-136 -68l102 -174h-321l328 438l-126 88zM125 311l54 -36l272 359l-134 82z" />
    <glyph glyph-name="uni4E49" unicode="&#x4e49;" 
d="M251 597l-95 -120l264 -192l-305 -249l39 -54l364 232l320 -232l46 54l-286 253l231 235l-107 104l-218 -256zM512 718l-130 -95l161 -139l49 31z" />
    <glyph glyph-name="uni4E4B" unicode="&#x4e4b;" 
d="M884 -10v72l-494 44l458 370v82h-275v152l-177 -35l83 -117h-328v-126l510 38l-444 -348l-102 9v-141h769z" />
    <glyph glyph-name="uni4E4C" unicode="&#x4e4c;" 
d="M379 713l5 -80h-200v-370l606 41l-40 -223l-278 -31v-63h420v391h-595l32 181l395 -20l-20 -54l-189 -25v-54h321v227h-309l51 72zM107 216v-119l614 56v63h-614z" />
    <glyph glyph-name="uni4E4D" unicode="&#x4e4d;" 
d="M118 339l47 -39l166 172l13 -490h82l11 112l444 53v66h-432l8 74l397 47v66h-386l8 79l394 45v65h-427l41 43l-149 86z" />
    <glyph glyph-name="uni4E4E" unicode="&#x4e4e;" 
d="M840 704l-683 -38v-79h313l-10 -218h-348v-129l343 24l-8 -173l-161 -30v-65h304l-9 277l306 21v75h-309l-6 218h268v117zM370 374l38 34l-95 177l-107 -98zM835 492l-107 93l-94 -177l42 -34z" />
    <glyph glyph-name="uni4E4F" unicode="&#x4e4f;" 
d="M822 704l-685 -38v-84h262l-56 -84l223 -85h-425v-129l459 41l-364 -202l-100 8v-135h727v76l-432 35l380 228v78h-195l22 33l-146 136h330v122z" />
    <glyph glyph-name="uni4E50" unicode="&#x4e50;" 
d="M838 701l-683 -27v-365l131 11l-173 -270l44 -38l243 223l-97 87l145 13l-13 -247l-106 -29v-60h242l-10 346l283 25v66l-285 1l-3 112h-97l-6 -112l-163 1l-28 156h576v107zM716 331l-112 -96l238 -223l44 34z" />
    <glyph glyph-name="uni4E52" unicode="&#x4e52;" 
d="M839 597v116l-618 -33v-366h-109v-130l225 16l-180 -160l30 -53l269 116l-66 101l497 37v73h-177l19 116l121 13v74h-502l14 80h477zM326 390l272 27l15 -103h-300z" />
    <glyph glyph-name="uni4E53" unicode="&#x4e53;" 
d="M839 597v116l-618 -33v-366h-109v-130l549 40l-87 -126l254 -111l35 49l-191 189l215 16v73h-177l19 116l121 13v74h-502l14 80h477zM326 390l272 27l15 -103h-300z" />
    <glyph glyph-name="uni4E54" unicode="&#x4e54;" 
d="M112 200l46 -42l131 123l-66 -269l55 -22l160 296l-102 39l94 88l118 9l145 -122h-76l52 -310h69l23 252l85 -71l41 38l-158 227l127 10v75h-311l73 69h204v120l-647 -33v-87h248l-55 -69h-221v-129l125 9z" />
    <glyph glyph-name="uni4E56" unicode="&#x4e56;" 
d="M462 -10h74l30 472l310 20v70h-304l4 52h277v106l-710 -28v-78h293l2 -52h-318v-119l322 21zM880 333l-71 93l-97 -111l-13 104h-89l-4 -313h270v137l-46 9l-35 -83l-66 18l-7 52zM121 375v-65l162 -19l3 -32l-165 -28v-65l175 -2l7 -68h75l33 323h-141l4 -37z" />
    <glyph glyph-name="uni4E58" unicode="&#x4e58;" 
d="M864 401l-63 88l69 4v70h-307l2 39h281v108l-695 -30v-78h283l2 -39h-309v-111l154 8l4 -40h-146v-64l157 -30l2 -14l-159 -31v-59h169l2 -11l-198 -152l34 -54l307 165l8 -180h74l9 181l309 -166l34 54l-163 126h137v145l-47 10l-29 -83l-72 19l-6 43zM411 467l29 2
l6 -152l-66 -51zM559 475l35 2l-3 -190l-40 31zM793 488l-96 -99l-12 93z" />
    <glyph glyph-name="uni4E59" unicode="&#x4e59;" 
d="M170 547l476 41l-498 -571h703v277l-61 2l-59 -187l-303 32l392 462v79h-650v-135z" />
    <glyph glyph-name="uni4E5C" unicode="&#x4e5c;" 
d="M338 704h-105l-5 -185l-114 -25v-88l111 17l-11 -427h671v196l-69 12l-44 -126l-409 42l-14 322l396 62l-38 -164l-197 -38v-64h341v420l-506 -113z" />
    <glyph glyph-name="uni4E5D" unicode="&#x4e5d;" 
d="M137 12l61 -30l251 472l150 -13l-56 -449h342v294l-65 6l-48 -203l-65 13v464h-198l47 87l-159 65l-56 -152h-227v-83l190 -17z" />
    <glyph glyph-name="uni4E5E" unicode="&#x4e5e;" 
d="M173 298l438 40l-470 -349h741v217l-61 8l-56 -141l-280 30l326 246v77h-615l57 69l615 62v75h-502l28 33l-175 46l-102 -275l56 -33v-105z" />
    <glyph glyph-name="uni4E5F" unicode="&#x4e5f;" 
d="M309 642h-95l-4 -158l-96 -23v-83l94 17l-8 -403h685v219l-48 5v418l-248 -60l11 134h-155l11 -166l-138 -33zM605 205h212l-40 -133l-433 42l-20 303l139 26l19 -276h76l23 298l158 30l-38 -197l-96 -24v-69z" />
    <glyph glyph-name="uni4E60" unicode="&#x4e60;" 
d="M177 692v-80l552 -45l-46 -455l-204 -40v-65h358v685h-660zM231 22l469 321l-41 75l-497 -297zM192 416l332 -58l21 60l-316 137z" />
    <glyph glyph-name="uni4E61" unicode="&#x4e61;" 
d="M808 453l-128 -105l-297 -24l435 200l-57 121l-210 -121h-192l281 121l-143 73l-334 -200v-117l234 34l-230 -132v-126l399 79l-69 -56l-388 -154l21 -64l446 132l316 239z" />
    <glyph glyph-name="uni4E66" unicode="&#x4e66;" 
d="M687 648l36 -43h-238l11 103h-157l1 -103h-179v-75l180 -13l2 -144h-233v-80l235 -12l4 -299h76l28 293l289 -14l-34 -110l-188 -32v-60h331v314h-115v217l108 -128l45 24l-85 232zM634 496l-35 -123h-136l13 134z" />
    <glyph glyph-name="uni4E69" unicode="&#x4e69;" 
d="M121 389v-402h402v402h-187l14 110l191 46v63h-178l13 105h-143l19 -324h-131zM684 713h-85l-28 -726h307v273l-60 7l-48 -198l-77 19zM434 282l-35 -192l-150 -23l-30 245z" />
    <glyph glyph-name="uni4E70" unicode="&#x4e70;" 
d="M519 572l-28 -254h-382v-120l241 15l-227 -154l26 -55l391 188l319 -190l31 47l-187 188l187 12v69h-263l34 236zM109 623l651 -35l-31 -127h152v236h-772v-74zM195 611l-30 -120l279 -34l15 51zM191 486l-30 -120l273 -34l15 51z" />
    <glyph glyph-name="uni4E71" unicode="&#x4e71;" 
d="M118 671v-73h151l9 -94h-170v-111l179 19l8 -85h-176v-340h421v340h-169l9 95l169 19v63h-161l9 94h143v101zM691 713h-84l-23 -726h307v273l-61 7l-47 -198l-77 19zM451 235l-37 -161l-168 -18l-32 204z" />
    <glyph glyph-name="uni4E73" unicode="&#x4e73;" 
d="M397 323l-85 -88h-202v-111l232 23l-11 -73l-179 -29v-58h320l-19 171l131 13v64h-160l140 86v69h-428v-97zM713 713h-84l-24 -726h284v273l-60 7l-48 -198l-54 19zM575 713l-465 -33v-80h465v113zM478 588l-79 -136l-27 139l-114 -58l99 -122l43 20l28 -24l138 98z
M280 439l-45 143l-110 -66l110 -106z" />
    <glyph glyph-name="uni4E7E" unicode="&#x4e7e;" 
d="M375 -18l11 106l166 18v60h-158l4 42h144v337h-161l9 54l162 18v64h-150l6 37h-139l5 -37h-163v-111l178 19l6 -44h-175v-337h153l5 -42h-167v-107l176 19l10 -96h78zM577 400l150 -27l-139 -381h300v233l-50 2l-40 -163l-63 18l116 387h-274v-69zM615 718l-63 -216
l50 -26l40 53l246 41v64h-167l35 46zM218 476l234 -21l-6 -36h-220zM240 319l195 35l-10 -56l-179 -18z" />
    <glyph glyph-name="uni4E82" unicode="&#x4e82;" 
d="M597 718l-485 -20v-72h92l-61 -51l93 -52h-115v-83l133 12l-32 -38l44 -22h-154v-410h65l49 355l50 -4l-42 -118l182 24l23 -31h-206v-38l35 -5l-23 -64l29 -9l-65 -36l11 -33l135 44l103 -32l-53 -13v-40h195v410h-148l138 87l1 44h-116l109 51l-38 52h51v92zM759 718
h-90l-32 -736h250v111l-116 -20zM519 313l-38 -272l-14 -4l12 25l-72 38l75 59l1 49h-6l-26 110zM283 537l-43 89h100l-47 -27l87 -76h-116zM417 542l-26 84h112l-77 -83l13 -20h-56zM424 467l-59 -65l-48 55zM363 326l42 -4l-39 -16l20 -27h-59zM356 153l-19 -17l-48 26z
" />
    <glyph glyph-name="uni4E86" unicode="&#x4e86;" 
d="M144 572l511 38l-145 -181l-24 -324l-241 -38v-65h406l-36 416l240 202l-1 77h-710v-125z" />
    <glyph glyph-name="uni4E88" unicode="&#x4e88;" 
d="M869 426h-258l197 184v89h-610v-122l183 16l-88 -106l109 -61h-272v-121l362 27l-28 -235l-226 -33v-64h375l-14 340l177 13l-43 -191h136v264zM621 615l-105 -158l-126 137z" />
    <glyph glyph-name="uni4E89" unicode="&#x4e89;" 
d="M107 445l37 -37l64 51l261 -13l-5 -53h-310v-106l303 19l-4 -57l-285 -16v-64h278l-8 -102l-209 -29v-56h352l-6 187h254v161l64 4v59h-64v131h-132l142 143h-393l-143 51zM601 575l-30 -51h-283l90 72zM571 313l141 9l-14 -60l-126 -7zM737 432l-9 -39h-160l-1 48z" />
    <glyph glyph-name="uni4E8B" unicode="&#x4e8b;" 
d="M112 682v-93l345 17l-1 -27h-301v-169h294l-1 -25h-298v-59l296 -10l-1 -30l-328 5v-92l325 12l-1 -30l-296 -14v-59h293l-1 -46l-203 -24v-56h332l-1 126h282v117l40 2v54h-40v104h-286l-1 25h275v169h-277l-1 32l330 16v55h-331v36h-95l-2 -36h-347zM272 520l181 -8
l-1 -39l-168 -8zM751 307l-6 -24l-183 2v28zM563 215l166 6l-7 -26l-158 -8zM730 500l-6 -15l-165 -7v29z" />
    <glyph glyph-name="uni4E8C" unicode="&#x4e8c;" 
d="M864 61v74l-729 52v-126h729zM178 638v-131l643 57v74h-643z" />
    <glyph glyph-name="uni4E8D" unicode="&#x4e8d;" 
d="M112 484v-130l370 27l-20 -276l-199 -34v-66h351l-18 384l291 22v73h-775zM177 694v-130l645 57v73h-645z" />
    <glyph glyph-name="uni4E8E" unicode="&#x4e8e;" 
d="M112 451v-126l349 25l-10 -245l-203 -34v-66h348l-9 354l300 21v71h-303l-4 150l257 21v72h-675v-126l308 24l-5 -141h-353z" />
    <glyph glyph-name="uni4E8F" unicode="&#x4e8f;" 
d="M112 501v-127l150 10l-63 -206l522 47l-33 -134l-332 -33v-64h472v310l-464 -1l70 94l453 32v72h-775zM177 706v-128l645 56v72h-645z" />
    <glyph glyph-name="uni4E91" unicode="&#x4e91;" 
d="M112 470v-128l160 11l-134 -315l614 64l80 -102l55 32l-139 333l-135 -83l79 -102l-357 -2l134 189l418 31v72h-775zM177 699v-136l645 57v79h-645z" />
    <glyph glyph-name="uni4E92" unicode="&#x4e92;" 
d="M112 685v-131l144 11l-72 -355h443l-35 -105l-480 32v-123h775v72l-137 9l65 399h-420l32 85l460 37v69h-775zM685 383l-32 -96l-324 29l37 101z" />
    <glyph glyph-name="uni4E93" unicode="&#x4e93;" 
d="M140 41l54 -41l274 297l-91 70l219 17l41 -384h78l35 397l141 11v74h-783v-136l211 16zM177 699v-133l645 56v77h-645z" />
    <glyph glyph-name="uni4E94" unicode="&#x4e94;" 
d="M138 691v-123l236 16l-11 -146h-192v-78l185 -14l-17 -225l-225 17v-130h771v74l-119 8l26 348h-295l34 157l330 24v72h-723zM673 322l-58 -221l-187 14l48 222z" />
    <glyph glyph-name="uni4E95" unicode="&#x4e95;" 
d="M698 -13l13 274l164 13v71h-160l8 172l143 11v70h-140l6 116h-155l6 -116h-140l6 120h-146l-2 -120h-168v-127l167 13l-2 -139h-175v-127l142 10l-85 -217l59 -29l171 257l191 14l14 -266h83zM439 495l149 11l8 -161h-164z" />
    <glyph glyph-name="uni4E98" unicode="&#x4e98;" 
d="M174 532v-369h651v369h-651zM110 120v-115h779v68zM120 694v-118l759 52v66h-759zM726 440l-11 -48h-426l-11 72zM304 294l396 29l-14 -63l-372 -27z" />
    <glyph glyph-name="uni4E9A" unicode="&#x4e9a;" 
d="M130 688v-123l206 14l29 -461l-249 16v-123h767v74l-250 16l39 502l197 14v71h-739zM477 589l58 4l17 -487l-104 6zM876 444l-134 58l-72 -282l62 -25zM271 195l58 21l-66 286l-136 -60z" />
    <glyph glyph-name="uni4E9B" unicode="&#x4e9b;" 
d="M116 392v-125l419 61v64h-110l13 126l97 28v68h-87l10 94h-141l23 -316h-81l27 288h-139l24 -288h-55zM655 708h-90l-10 -432h312v196l-52 6l-45 -132l-89 18l-4 47l206 208l-99 81l-115 -187zM869 -8v68l-753 47v-115h753zM161 236v-116l668 52v64h-668z" />
    <glyph glyph-name="uni4E9C" unicode="&#x4e9c;" 
d="M108 692v-114l238 13l3 -80h-203v-318h213l3 -83l-253 16v-119h781v71l-260 16l8 99h213l6 318h-193l8 98l218 12v71h-782zM250 437l101 -5l6 -161l-76 -5zM469 427l72 -3l5 -139l-89 -7zM756 415l-26 -117l-84 -6l10 127zM449 193h100l3 -94l-110 6zM484 598l51 3l3 -90
h-62z" />
    <glyph glyph-name="uni4E9E" unicode="&#x4e9e;" 
d="M118 699v-119l218 15l28 -104h-213v-280h213l-25 -104l-231 16v-123h782v71l-192 12l-30 128h178l6 280h-192l37 128l184 13v67h-763zM465 424v180l97 6v-182l192 -27l-26 -89l-166 -37v-183l-97 7v176l-186 29l-18 94z" />
    <glyph glyph-name="uni4E9F" unicode="&#x4e9f;" 
d="M606 134l113 102l105 -92l41 36l-89 109l91 174v76h-260l233 84v78h-686v-112l406 33l-113 -82l-18 -341l-100 -25v-54h232l-17 396l34 12v-53l153 -25l-31 -68l-63 77l-83 -77l98 -87l-87 -125zM127 543v-328h269v328h-269zM122 104v-105h755v63zM314 460l-27 -160
l-51 -12l-24 190z" />
    <glyph glyph-name="uni4EA0" unicode="&#x4ea0;" 
d="M384 679l65 -74h-336v-128l772 57v71h-290l7 103z" />
    <glyph glyph-name="uni4EA1" unicode="&#x4ea1;" 
d="M403 671l72 -98h-361v-130l140 10l-31 -453h646v69l-490 42l-11 351l517 40v71h-294l14 126z" />
    <glyph glyph-name="uni4EA2" unicode="&#x4ea2;" 
d="M213 -18h82l67 411l311 -30l-47 -366h267v115l-110 -24v387h-570v-493zM396 704l48 -64h-338v-126l787 57v69h-288l7 78z" />
    <glyph glyph-name="uni4EA4" unicode="&#x4ea4;" 
d="M108 40l37 -58l352 203l354 -203l40 55l-285 210l135 78l109 -76l41 47l-230 263l230 18v68h-288l7 73l-212 -14l44 -59h-334v-128l207 16l-207 -233l43 -51l105 74l140 -80zM529 474l98 -69l-120 -85l-125 93l93 66l-55 62l175 13z" />
    <glyph glyph-name="uni4EA5" unicode="&#x4ea5;" 
d="M408 704l37 -50h-337v-130l204 15l-172 -185v-101l174 30l-204 -185l35 -51l580 423l-72 94l238 17v73h-292l6 64zM262 32l36 -50l292 185l263 -181l38 41l-187 212l168 107l-72 108zM463 492l-51 54l210 15l-213 -192h-118z" />
    <glyph glyph-name="uni4EA6" unicode="&#x4ea6;" 
d="M401 701l44 -65h-333v-129l261 19l-115 -526l63 -18l204 555l41 3l-29 -465l-102 -20v-63h241l-11 555l222 17v72h-298l13 82zM825 497l-136 -36l131 -389l63 14zM112 84l60 -19l152 374l-140 43z" />
    <glyph glyph-name="uni4EA7" unicode="&#x4ea7;" 
d="M233 -18l61 306l585 48v65h-220l114 83l-143 67l-91 -150h-47l-88 146l483 36v67h-300l11 68l-193 -17l34 -51h-327v-124l280 20l-134 -62l114 -83h-221v-419h82z" />
    <glyph glyph-name="uni4EA8" unicode="&#x4ea8;" 
d="M153 538v-204h694v204h-694zM124 206l459 24l-102 -72l-4 -87l-259 -28v-59h423l-31 157l259 108v53h-745v-96zM400 699l29 -42h-321v-107l783 48v59h-297l9 59zM735 455l-14 -31l-434 -25l-23 74z" />
    <glyph glyph-name="uni4EA9" unicode="&#x4ea9;" 
d="M163 475v-482h673v482h-673zM405 690l45 -66h-336v-116l771 51v65h-300l13 83zM550 200l171 18l-20 -126l-162 -11zM266 404l170 -9l9 -111h-166zM290 172l162 17l8 -114l-159 -12zM746 378l-15 -94h-174l9 104z" />
    <glyph glyph-name="uni4EAB" unicode="&#x4eab;" 
d="M131 227l478 24l-70 -55h-424v-102l449 25l-7 -48l-334 -28v-59h477l-20 141l204 12v59h-191l169 72v53h-731v-94zM159 538v-185h681v185h-681zM405 699l32 -42h-322v-102l769 43v59h-297l11 59zM738 458l-11 -23l-439 -21l-20 61z" />
    <glyph glyph-name="uni4EAC" unicode="&#x4eac;" 
d="M152 508v-238h129l-175 -234l45 -44l241 194l-80 84h135l-18 -197l-123 -29v-57h273l-20 283h129l-81 -84l242 -194l44 39l-174 239h129v238h-696zM407 697l36 -52h-337v-107l787 42v65h-306l11 68zM746 418l-19 -51l-441 -28l-28 100z" />
    <glyph glyph-name="uni4EAD" unicode="&#x4ead;" 
d="M125 205h65v-82l317 24l-16 -77l-251 -24v-59h390l-11 168l189 15v30h67v152h-750v-147zM165 550v-171h670v171h-670zM400 697l26 -38h-316v-102l779 43v59h-295l9 54zM774 284l-19 -50h-532l15 28zM731 472l-9 -17l-425 -16l-15 49z" />
    <glyph glyph-name="uni4EAE" unicode="&#x4eae;" 
d="M166 541v-186h669v186h-669zM277 218l-138 -194l37 -42l227 162l218 -22l-35 -126h289v149l-58 6l-38 -87l-50 8v146h-452zM401 701l28 -42h-319v-104l779 42v62h-296l10 59zM125 181h84l30 61l535 22l-33 -87h133v152h-749v-148zM732 465l-16 -36l-419 -15l-19 68z" />
    <glyph glyph-name="uni4EB2" unicode="&#x4eb2;" 
d="M855 -4l35 45l-196 206l151 11v63h-285l-1 50l331 20v62h-233l97 63l-147 44l-90 -107h-45l-86 96l469 31v65h-276l11 68l-183 -16l35 -52h-302v-112l243 16l-144 -52l77 -44h-207v-109l347 21l-3 -44h-299v-110l127 8l-172 -178l35 -45l265 161l-52 67l90 6l-11 -156
l-119 -29v-58h255l-9 251l91 7l-64 -88z" />
    <glyph glyph-name="uni4EB3" unicode="&#x4eb3;" 
d="M694 210v84l-423 -23v-61h145l-2 -26h-274v-99l265 13l-10 -111h468v113l-65 6l-37 -61l-227 24l-4 36l331 17v62h-340l-3 26h176zM165 563v-157h670v157h-670zM125 246h84l30 55l535 19l-32 -78h133v140h-750v-136zM400 703l28 -39h-318v-92l779 39v53h-295l9 49z
M727 492l-9 -16l-421 -15l-15 46z" />
    <glyph glyph-name="uni4EB5" unicode="&#x4eb5;" 
d="M125 57l106 35l-20 -110l370 60l-5 51l-232 -9l-8 43l149 50l377 -195l31 43l-114 82l77 42l-66 76h87v96l-43 -13v234h-119l10 26l-91 23l250 15v58h-303l10 54l-182 -11l31 -43h-325v-102l158 9l-3 -38h-143v-99l137 16l-2 -34l-145 -19l19 -96l120 31l-3 -38l-113 -22
v-51h205l-239 -113zM468 362l53 -18l-32 -55l-113 -54l-2 127l92 24l-9 55l-85 -11v33l89 11v59h-91l-1 43l238 14l-13 -48h-108v-64l89 -8l-11 -41l-51 34zM686 291l22 44l-58 38l34 88l66 -5l-50 -231h62l-49 -71l-163 116l50 49z" />
    <glyph glyph-name="uni4EBA" unicode="&#x4eba;" 
d="M111 25l59 -43l284 361l382 -357l52 43l-335 440l120 153l-151 96z" />
    <glyph glyph-name="uni4EBB" unicode="&#x4ebb;" 
d="M118 352l48 -45l119 118l-22 -443h131l-9 543l98 98l-109 95z" />
    <glyph glyph-name="uni4EBF" unicode="&#x4ebf;" 
d="M432 657v-131l282 41l-291 -567h466v222l-61 6l-49 -154l-165 25l256 558h-438zM110 345l53 -39l65 80l-20 -404h133l-10 533l99 122l-126 81z" />
    <glyph glyph-name="uni4EC0" unicode="&#x4ec0;" 
d="M686 -18l22 396l180 25v63h-175l14 239h-146l9 -239h-187v-129l191 26l15 -381h77zM111 345l53 -39l66 82l-20 -406h129l-9 532l101 125l-126 79z" />
    <glyph glyph-name="uni4EC1" unicode="&#x4ec1;" 
d="M112 345l55 -39l62 78l-20 -402h133l-9 532l99 123l-128 81zM887 39v73l-485 55v-128h485zM431 613v-132l426 54v78h-426z" />
    <glyph glyph-name="uni4EC2" unicode="&#x4ec2;" 
d="M427 516l98 -10l-87 -509l70 -15l146 512l123 -12l-50 -396l-108 -28v-62h250v594h-188l28 97l-148 31l-22 -128h-112v-74zM130 345l51 -39l68 84l-20 -408h127l-5 533l99 122l-128 81z" />
    <glyph glyph-name="uni4EC3" unicode="&#x4ec3;" 
d="M443 675v-129l230 29l-25 -490l-142 -32v-61h275l-9 595l115 15v73h-444zM112 345l51 -39l68 84l-20 -408h131l-9 534l98 121l-124 81z" />
    <glyph glyph-name="uni4EC4" unicode="&#x4ec4;" 
d="M118 701v-702h86l64 590l599 42v70h-749zM268 38l53 -39l203 250l313 -250l44 43l-269 316l110 135l-134 92z" />
    <glyph glyph-name="uni4EC5" unicode="&#x4ec5;" 
d="M430 590l257 -33l-63 -186l-107 139l-103 -100l154 -154l-157 -239l45 -35l190 196l192 -191l51 40l-179 232l130 318v90h-410v-77zM110 345l50 -39l70 86l-20 -410h131l-10 534l99 121l-122 81z" />
    <glyph glyph-name="uni4EC6" unicode="&#x4ec6;" 
d="M617 -18l22 434l202 -215l47 37l-142 279l-106 -86l15 277h-146l24 -726h84zM111 345l55 -39l62 78l-20 -402h133l-9 531l99 123l-128 82z" />
    <glyph glyph-name="uni4EC7" unicode="&#x4ec7;" 
d="M888 -4v116l-63 -20v490h-141l31 99l-143 37l-28 -136h-135v-76l117 -14l-101 -493l72 -17l154 496l82 -9l-59 -473h214zM111 345l52 -39l68 84l-20 -408h131l-10 533l99 122l-126 81z" />
    <glyph glyph-name="uni4EC9" unicode="&#x4ec9;" 
d="M450 -18h77l61 595l131 -15l-47 -569h213v101l-73 -18v588h-362v-682zM114 345l50 -39l80 99l-21 -423h131l-9 546l89 109l-124 81z" />
    <glyph glyph-name="uni4ECA" unicode="&#x4eca;" 
d="M450 29l45 -47l330 262v100h-650v-113l477 34zM113 495l24 -59l357 126l363 -150l28 54l-238 150l73 26l-205 76zM410 471l93 -119l63 21l-10 148z" />
    <glyph glyph-name="uni4ECB" unicode="&#x4ecb;" 
d="M114 457l28 -55l350 160l360 -169l33 55l-258 175l74 34l-205 61zM220 3l67 -21l177 420l-148 45zM699 -18l29 436h-149l47 -436h73z" />
    <glyph glyph-name="uni4ECD" unicode="&#x4ecd;" 
d="M430 606l67 -8l-62 -604l67 -12l127 600l94 -11l-83 -218l138 -14l-41 -261l-114 -23v-59h250v436h-85l70 243h-428v-69zM126 345l55 -39l65 92l-21 -416h131l-9 559l75 106l-128 71z" />
    <glyph glyph-name="uni4ECE" unicode="&#x4ece;" 
d="M121 3l71 -16l88 300l191 -88l-50 -191l72 -21l127 333l207 -320l51 31l-195 454l70 185l-148 43l-116 -443l-169 150l76 259l-155 34z" />
    <glyph glyph-name="uni4ECF" unicode="&#x4ecf;" 
d="M812 425l-134 -42l82 -214h-224l220 484l-136 55l-240 -666l-4 -9h2l408 70l45 -116l56 16zM112 342l53 -36l66 93l-20 -417h129l-7 560l75 105l-130 71z" />
    <glyph glyph-name="uni4ED1" unicode="&#x4ed1;" 
d="M771 325l-59 111l-361 -207l-18 173h-96l-14 -410q282 1 565 1l-2 221l-65 6l-52 -156l-304 31l-6 55zM112 448l28 -55l347 161l372 -166l28 55l-263 175l67 31l-195 59z" />
    <glyph glyph-name="uni4ED3" unicode="&#x4ed3;" 
d="M671 320l-24 -56l-190 -33v-51h312v241h-532l-15 -429h575v162l-62 12l-44 -106l-333 33l-25 258zM112 447l28 -55l350 162l369 -166l28 54l-263 175l69 32l-197 59z" />
    <glyph glyph-name="uni4ED4" unicode="&#x4ed4;" 
d="M431 551l264 31l-73 -190h-218v-116l243 26l-22 -222l-162 -29v-59h299l-15 321l137 15v64h-174l134 200v76h-413v-117zM115 342l51 -36l69 96l-21 -420h131l-9 562l75 105l-126 69z" />
    <glyph glyph-name="uni4ED5" unicode="&#x4ed5;" 
d="M869 15v68l-183 21l17 338l187 23v65h-182l9 174h-144l9 -174h-196v-126l201 24l16 -315l-196 23v-121h462zM109 342l55 -36l64 91l-20 -415h131l-9 559l75 106l-126 71z" />
    <glyph glyph-name="uni4ED6" unicode="&#x4ed6;" 
d="M683 134l4 80h186v411l-165 -58l8 141h-125l7 -180l-79 -28l-5 114h-85l-4 -147l-58 -20v-69l56 14l-9 -392h478v192l-64 8l-44 -129l-245 27l-16 319l78 20l12 -303h70zM107 342l53 -36l64 90l-20 -414h131l-9 557l77 108l-124 71zM786 484l-31 -186l-64 -22l11 186z
" />
    <glyph glyph-name="uni4ED7" unicode="&#x4ed7;" 
d="M407 605v-123l263 32l1 -149l-36 -46l-118 141l-95 -100l143 -129l-158 -201l48 -43l183 177l203 -182l43 42l-176 208l81 78l3 218l93 12v65h-92l1 93h-124v-93h-263zM114 342l53 -36l69 96l-21 -420h129l-9 560l75 105l-128 71z" />
    <glyph glyph-name="uni4ED8" unicode="&#x4ed8;" 
d="M393 595v-122l296 34l-17 -424l-149 -28v-63h281l-12 527l95 11v65h-97l-2 110h-91l-5 -110h-299zM112 342l54 -36l69 97l-21 -421h129l-10 559l76 108l-124 69zM562 138l52 22l-72 288l-130 -63z" />
    <glyph glyph-name="uni4ED9" unicode="&#x4ed9;" 
d="M791 618l-37 -542l-71 8l23 622h-129l21 -612l-68 8l-48 516h-79v-617h468v617h-80zM128 336l59 -30l36 61l-19 -385h130l-10 554l72 120l-124 62z" />
    <glyph glyph-name="uni4EDD" unicode="&#x4edd;" 
d="M832 -4v65l-283 24l29 222l216 21v62h-589v-119l234 22l20 -201l-292 25v-121h665zM112 443l29 -55l349 163l368 -167l29 52l-265 177l66 31l-192 60z" />
    <glyph glyph-name="uni4EDE" unicode="&#x4ede;" 
d="M422 592l188 -18l-45 -259l-121 -306l57 -26l166 290l72 289l47 -4l-50 -478l-113 -29v-59h253v676h-454v-76zM123 338l51 -32l71 101l-21 -425h128l-8 563l75 106l-126 67zM398 189l61 -15l103 338l-119 26z" />
    <glyph glyph-name="uni4EDF" unicode="&#x4edf;" 
d="M677 -17l21 351l193 22v67h-187l9 164l159 11l-8 108l-449 -62l6 -78l155 11l7 -154h-189v-124l194 22l16 -338h73zM108 340l53 -34l63 89l-20 -413h135l-10 560l75 105l-124 71z" />
    <glyph glyph-name="uni4EE1" unicode="&#x4ee1;" 
d="M447 353l275 28l-294 -380h461v239l-57 6l-51 -171l-146 22l205 279v87h-393v-110zM110 340l55 -34l67 96l-21 -420h129l-9 564l71 103l-130 69zM381 492l50 -29l56 68l402 55v63h-305l24 29l-142 40z" />
    <glyph glyph-name="uni4EE3" unicode="&#x4ee3;" 
d="M382 469l14 -122l184 38l106 -403l201 78l-14 63l-117 -23l-62 308l184 38l-10 68l-192 -18l-43 219l-131 -30l52 -200zM112 342l51 -36l65 91l-21 -415h133l-9 558l77 107l-124 71zM678 645l108 -125l49 25l-43 167z" />
    <glyph glyph-name="uni4EE4" unicode="&#x4ee4;" 
d="M398 478l65 -115h-286v-72l429 -31l-107 -140l-318 74l-22 -120l675 -92l12 58l-252 58l231 194v71h-275l-8 155zM113 481l23 -56l349 141l376 -146l25 51l-252 155l67 27l-212 65z" />
    <glyph glyph-name="uni4EE5" unicode="&#x4ee5;" 
d="M463 4l67 -22l129 302l159 -302l55 22l-145 443l95 222l-140 49zM241 699h-92l-23 -699l333 122l-14 69l-169 -26zM450 248l60 13l-31 408l-147 -30z" />
    <glyph glyph-name="uni4EE8" unicode="&#x4ee8;" 
d="M114 343l53 -37l63 89l-20 -413h129l-10 551l81 114l-126 71zM885 19v68l-469 47v-115h469zM426 647v-117l449 52v65h-449zM449 385v-122l403 57v65h-403z" />
    <glyph glyph-name="uni4EE9" unicode="&#x4ee9;" 
d="M884 9v68l-237 23l17 283l203 39v67h-197l13 209h-145l26 -590l-175 18v-117h495zM115 340l51 -34l65 91l-21 -415h132l-10 555l79 110l-126 71z" />
    <glyph glyph-name="uni4EEA" unicode="&#x4eea;" 
d="M847 -17l48 40l-193 245l179 341l-125 58l-129 -303l-145 185l-100 -93l184 -187l-186 -247l49 -41l206 217zM104 343l55 -36l61 86l-20 -410h131l-10 553l79 112l-127 71zM631 475l51 29l-69 215l-120 -66z" />
    <glyph glyph-name="uni4EEB" unicode="&#x4eeb;" 
d="M434 22l365 55l35 -95l55 17l-69 408l-125 -42l79 -219h-193l229 503l-128 51zM110 340l51 -34l65 90l-20 -414h129l-10 551l83 114l-131 71zM367 288l58 -27l191 389l-129 49z" />
    <glyph glyph-name="uni4EEC" unicode="&#x4eec;" 
d="M124 342l54 -36l62 87l-20 -411h129l-9 551l81 114l-126 71zM627 593l157 -29l-39 -487l-96 -29v-56h225v671h-247v-70zM497 -8l46 522h-129l10 -522h73zM447 633l138 -128l44 32l-74 181z" />
    <glyph glyph-name="uni4EF0" unicode="&#x4ef0;" 
d="M685 -17l4 71h190v605h-277l10 -676h73zM120 338l53 -32l45 74l-19 -398h127l-9 559l71 115l-124 62zM376 54l218 76l-10 56l-82 -10l-17 401l106 14l-16 104l-180 -65zM798 561l-37 -428l-68 -16l29 458z" />
    <glyph glyph-name="uni4EF2" unicode="&#x4ef2;" 
d="M406 592v-396h193l5 -213h74l11 213h187v396h-167l6 116h-129l3 -116h-183zM123 342l53 -36l63 88l-21 -412h132l-10 554l79 111l-128 71zM498 525l93 -11l6 -239l-70 -7zM791 492l-31 -199l-67 -7l11 215z" />
    <glyph glyph-name="uni4EF3" unicode="&#x4ef3;" 
d="M106 343l55 -37l63 89l-21 -413h131l-9 556l77 109l-126 71zM893 450l-58 102l-74 -76l-4 223h-87l-22 -702l222 -1v106l-100 -22l-7 296zM402 -8l227 80v65l-99 -10l-5 244l104 30v69h-106l-4 220h-88z" />
    <glyph glyph-name="uni4EF5" unicode="&#x4ef5;" 
d="M689 -17l12 276l189 20v67h-185l8 176l156 20v68h-321l35 64l-134 44l-70 -297l56 -24l50 95l102 13l8 -159h-206v-119l210 22l13 -266h77zM109 345l55 -39l65 93l-20 -417h129l-10 556l77 109l-127 71z" />
    <glyph glyph-name="uni4EF6" unicode="&#x4ef6;" 
d="M379 404l59 -16l35 84l117 15l5 -141h-206v-121l210 22l10 -264h78l12 274l191 20v69h-187l6 156l160 21v69h-156l6 126h-138l5 -126h-62l29 69l-128 33zM109 343l53 -37l67 95l-20 -419h131l-10 560l75 105l-123 71z" />
    <glyph glyph-name="uni4EF7" unicode="&#x4ef7;" 
d="M110 342l53 -36l63 89l-20 -413h129l-7 555l78 110l-123 71zM355 478l32 -55l222 124l245 -129l35 48l-162 148l70 39l-173 65zM419 -5l66 -13l128 428l-143 28zM774 -18l27 444h-138l39 -444h72z" />
    <glyph glyph-name="uni4EFB" unicode="&#x4efb;" 
d="M388 393v-126l198 22l7 -181l-186 18v-117h463v74l-192 17l14 201l196 23v69h-190l12 184l149 12l-8 110l-432 -59l7 -86l148 12l7 -173h-193zM111 342l55 -36l61 86l-21 -410h132l-10 553l79 112l-126 71z" />
    <glyph glyph-name="uni4EFD" unicode="&#x4efd;" 
d="M740 718l-101 -79l181 -204h-391l187 204l-107 79l-142 -277l40 -30l13 14v-59l75 -8l-80 -358l59 -17l153 360l105 -11l-38 -251l-109 -28v-56h240v433l17 -19l45 30zM112 339l55 -34l61 89l-21 -412h130l-8 559l75 110l-120 67z" />
    <glyph glyph-name="uni4EFF" unicode="&#x4eff;" 
d="M550 699l53 -89h-199v-117l115 12l-92 -505l64 -17l116 356l152 -22l-37 -235l-114 -28v-57h249v417h-226l35 107l221 24v65h-182l7 108zM112 342l55 -36l64 91l-23 -415h129l-4 558l76 107l-124 71z" />
    <glyph glyph-name="uni4F01" unicode="&#x4f01;" 
d="M158 118v-121h689v69l-275 20l15 143l234 42v62h-223l14 134h-141l22 -375l-131 10l35 304h-140l18 -297zM112 466l28 -59l340 151l379 -156l28 55l-266 163l66 30l-210 53z" />
    <glyph glyph-name="uni4F08" unicode="&#x4f08;" 
d="M892 194l-23 476l-117 -18l74 -442l-37 4l-44 -145l-119 23l-14 392h-85l-31 -488h360v192zM107 341l55 -35l48 78l-18 -402h126l-5 567l66 106l-129 63zM423 42l106 592l-126 17l-41 -600zM765 210l-59 508l-123 -26l124 -496z" />
    <glyph glyph-name="uni4F09" unicode="&#x4f09;" 
d="M432 468v-486h67l61 410l173 -24l-52 -376h206v101l-61 -14v389h-394zM112 342l53 -36l63 90l-20 -414h131l-10 557l79 112l-126 67zM542 699l58 -81h-209v-119l496 54v65h-189l7 100z" />
    <glyph glyph-name="uni4F0A" unicode="&#x4f0a;" 
d="M399 498v-116l107 11l-8 -97l-85 -8v-67h79l-18 -231l73 -8l42 239h119v-1h142v210l38 4v64h-38v180h-437v-67l109 -11l-8 -102h-115zM111 343l53 -37l63 88l-21 -412h132l-10 554l79 111l-128 71zM621 406l115 12l-14 -100l-118 -11zM760 578l-12 -80h-110l16 90z" />
    <glyph glyph-name="uni4F0D" unicode="&#x4f0d;" 
d="M408 671v-120l136 15l-11 -146h-117v-72l111 -10l-18 -227l-111 12v-118h490v66l-60 6l12 343h-190l29 161l199 22v68h-470zM111 340l53 -34l63 90l-20 -414h131l-9 558l78 111l-127 67zM743 319l-36 -229l-115 12l41 226z" />
    <glyph glyph-name="uni4F0E" unicode="&#x4f0e;" 
d="M414 651v-119l173 20l10 -86h-181v-74l262 -26l-67 -107l-118 98l-72 -109l117 -73l-151 -149l38 -44l203 137l222 -137l37 49l-185 153l144 200v82h-166l12 99l177 21v65h-166l8 62h-144l7 -62h-160zM112 342l55 -36l62 89l-20 -413h131l-9 557l77 110l-128 69z" />
    <glyph glyph-name="uni4F0F" unicode="&#x4f0f;" 
d="M391 501v-125l159 18l-159 -381l62 -30l181 320l196 -320l57 28l-162 403l162 18v69h-186l8 210l-136 1l-3 -211h-179zM112 342l56 -36l62 89l-20 -413h131l-9 557l77 110l-128 69zM715 654l93 -143l50 18l-29 175z" />
    <glyph glyph-name="uni4F10" unicode="&#x4f10;" 
d="M365 492l12 -120l164 32l43 -175l-207 -180l40 -50l191 134l39 -158l240 77l-14 60l-155 -24l-19 108l164 115l-74 96l-111 -96l-20 116l224 44l-7 65l-233 -20l-35 201l-135 -28l45 -184zM112 344l55 -36l61 86l-20 -410h131l-10 553l79 112l-127 71zM659 653l120 -114
l45 29l-53 157z" />
    <glyph glyph-name="uni4F11" unicode="&#x4f11;" 
d="M393 615v-120l186 21l3 -63l-124 30l-61 -460l59 -13l126 437l18 -464h81l18 468l130 -441l58 15l-60 458l-128 -32l3 79l185 22v63h-182l4 93h-137l3 -93h-182zM112 342l53 -36l63 91l-21 -415h130l-10 559l77 112l-124 65z" />
    <glyph glyph-name="uni4F17" unicode="&#x4f17;" 
d="M126 14l56 -32l132 204l170 -90l-36 -86l56 -28l113 174l213 -169l41 39l-182 242l80 123l-132 66l-126 -297l-133 126l75 115l-133 65zM109 455l28 -54l344 163l381 -174l28 49l-271 190l63 30l-199 59z" />
    <glyph glyph-name="uni4F18" unicode="&#x4f18;" 
d="M402 7l59 -25l193 440l222 26v68h-217l10 188l-131 4l-5 -192h-143v-125l128 15zM112 342l55 -36l64 91l-20 -415h131l-9 559l75 106l-122 71zM637 1l250 -1v93l-113 -18l-19 303h-90zM699 649l103 -126l48 22l-39 163z" />
    <glyph glyph-name="uni4F19" unicode="&#x4f19;" 
d="M767 626l-82 -229l6 316h-131l4 -359l-176 -341l48 -30l190 250l216 -250l45 35l-168 290l168 260zM112 342l53 -36l66 93l-20 -417h131l-9 560l75 105l-122 71zM373 591l114 -286l55 15l-48 308z" />
    <glyph glyph-name="uni4F1A" unicode="&#x4f1a;" 
d="M177 328v-119l128 12l-104 -217l518 53l66 -75l45 28l-105 250l101 10v58h-649zM110 523l19 -54l359 116l382 -126l19 50l-246 127l66 21l-224 61zM223 486v-119l556 58v61h-556zM472 236l237 23l-107 -70l59 -67l-287 1z" />
    <glyph glyph-name="uni4F1B" unicode="&#x4f1b;" 
d="M412 679v-678h472v57l-344 38l-39 487l374 39v57h-463zM115 342l53 -36l66 93l-20 -417h128l-10 554l79 111l-126 71zM560 145l48 -29l98 146l112 -144l48 31l-108 189l108 160l-105 62l-60 -123l-65 116l-99 -71l114 -148z" />
    <glyph glyph-name="uni4F1D" unicode="&#x4f1d;" 
d="M384 447v-113l98 10l-80 -333l394 62l48 -91l46 18l-77 329l-124 -52l72 -138l-220 -2l96 222l247 25v63h-500zM108 340l52 -34l71 98l-21 -422h129l-9 560l75 105l-117 71zM418 665v-123l432 61v62h-432z" />
    <glyph glyph-name="uni4F1E" unicode="&#x4f1e;" 
d="M154 266v-120l299 24l13 -187h79l11 196l298 24v63h-159l97 130l-124 61l-62 -191h-45l12 212h-140l14 -212h-36l-80 202l-121 -76l109 -126h-165zM113 480l26 -54l330 148l388 -158l28 55l-271 167l61 28l-205 51z" />
    <glyph glyph-name="uni4F1F" unicode="&#x4f1f;" 
d="M409 652v-2l-120 68l-171 -376l52 -36l66 92l-20 -416h129l-6 559l70 97v-102l113 14l1 -44h-104v-114l106 13l2 -51h-123v-67l125 -11l7 -293h77l16 284l155 -13l-28 -136l-98 -28v-53h223v317h-247l4 65l229 29v58h-224l3 59l230 28v59h-225l4 65h-137l1 -65h-110z" />
    <glyph glyph-name="uni4F20" unicode="&#x4f20;" 
d="M877 328h-323l13 51l309 37v59h-284l22 84l262 31v60h-238l11 41l-139 21l-9 -62h-100l-120 68l-170 -378l53 -34l64 90l-20 -414h130l-8 557l67 94v-99l89 10l-10 -69h-79v-116l64 7l-20 -146l279 33l-40 -152l-248 80l-30 -115l472 -83l14 52l-131 42z" />
    <glyph glyph-name="uni4F22" unicode="&#x4f22;" 
d="M699 74l-111 -28v-54h235l-6 368l68 8v58h-69l-3 175l72 8v61h-480v-20l-121 68l-171 -376l52 -36l71 98l-21 -422h129l-9 560l70 98v-84l315 35l-7 -165h-175l52 92l-134 29l-46 -236l118 14l-129 -317l47 -25l202 289l-99 55l161 20z" />
    <glyph glyph-name="uni4F24" unicode="&#x4f24;" 
d="M378 355l125 -9l-96 -342l58 -21l159 355l146 -10l-39 -259l-145 -28v-53h277l2 435h-203l34 74l-138 46l-34 -120h-146v-68zM112 336l48 -30l75 103l-21 -427h129l-9 562l75 103l-126 71zM450 718l-75 -231l49 -26l63 88l400 48v60h-324l20 27z" />
    <glyph glyph-name="uni4F25" unicode="&#x4f25;" 
d="M369 441v-115l68 7l-9 -350l271 60v60l-139 -10l-10 252l334 35v61h-338l-10 262h-89l-7 -262h-71zM106 340l53 -34l67 94l-21 -418h130l-10 557l77 108l-122 71zM733 341l-110 -75l222 -283l48 29zM587 509l33 -48l255 134l-69 113z" />
    <glyph glyph-name="uni4F26" unicode="&#x4f26;" 
d="M410 0h438v178l-57 6l-46 -115l-202 31l-8 67l311 162l-69 106l-251 -191l-20 182h-87zM108 340l51 -34l69 97l-21 -421h130l-10 558l77 107l-122 71zM361 470l32 -48l216 135l252 -141l30 47l-174 162l51 32l-157 61z" />
    <glyph glyph-name="uni4F27" unicode="&#x4f27;" 
d="M406 0h439v153l-59 6l-38 -93l-209 30l-37 269l226 -26l-25 -72l-122 -28v-55h241v252h-416v-436zM110 342l55 -38l66 94l-20 -418h129l-9 559l75 106l-126 71zM351 484l28 -49l219 124l261 -130l30 48l-172 150l53 30l-164 63z" />
    <glyph glyph-name="uni4F2A" unicode="&#x4f2a;" 
d="M398 8l55 -26l149 301l73 -149l51 13l-26 220l-67 -21l29 60l117 -10l-41 -318l-124 -28v-54h260v506h-164l79 160l-132 56l-79 -216h-183v-72l152 -14zM125 342l52 -36l68 95l-20 -419h131l-9 561l71 99l111 -123l48 29l-58 160l-99 -60l-122 70z" />
    <glyph glyph-name="uni4F2B" unicode="&#x4f2b;" 
d="M111 342l55 -36l61 86l-20 -410h131l-9 554l78 111l-125 71zM540 684l70 -126h-218v-207h81l32 106l277 29l-42 -135h134v207h-180l-3 160zM378 141v-112h510v65z" />
    <glyph glyph-name="uni4F2F" unicode="&#x4f2f;" 
d="M572 718l-3 -141h-149v-585h451v585h-208l59 121zM128 340l52 -34l64 89l-20 -413h131l-9 555l79 110l-122 71zM786 478l-15 -143h-248l-16 171zM532 230l232 41l-20 -183l-196 -29z" />
    <glyph glyph-name="uni4F30" unicode="&#x4f30;" 
d="M402 590v-116l193 21l12 -117h-183v-386h440v386h-184l13 127l192 21v64h-184l12 121h-139l12 -121h-184zM114 342l55 -36l61 90l-20 -414h131l-10 562l75 110l-129 64zM779 281l-38 -194l-187 -23l-35 241z" />
    <glyph glyph-name="uni4F31" unicode="&#x4f31;" 
d="M115 343l55 -37l66 96l-21 -420h127l-10 561l74 109l-121 66zM372 478l32 -45l210 121l237 -127l33 45l-158 146l53 30l-150 70zM590 479l-24 -407l-94 -27v-53h219l-14 487h-87zM829 432l-122 -30l120 -384l53 14zM386 72l53 -13l120 340l-122 33z" />
    <glyph glyph-name="uni4F32" unicode="&#x4f32;" 
d="M409 685v-703h70l42 458h355v245h-467zM113 342l53 -36l71 102l-22 -426h127l-10 564l73 106l-121 66zM550 -3q165 1 331 1v186l-56 7l-42 -121l-107 20l-4 40l214 210l-98 81l-124 -198l-17 186h-82zM785 594l-23 -66l-234 -19l9 105z" />
    <glyph glyph-name="uni4F34" unicode="&#x4f34;" 
d="M403 432v-116l184 22l3 -70h-196v-112l199 21l8 -195h76l9 204l203 22v60h-199l4 83l185 22v59h-182l13 275h-137l10 -275h-180zM110 342l53 -36l68 97l-23 -421h129l-8 562l67 96l100 -190l51 14l-30 219l-118 -39l2 3l-119 71zM889 641l-120 42l-36 -214l54 -17z" />
    <glyph glyph-name="uni4F36" unicode="&#x4f36;" 
d="M547 481l57 -118h-194v-70l272 -32l-44 -146l-211 73l-33 -119l462 -87l17 52l-154 53l152 276h-195l4 142zM108 343l55 -37l66 96l-21 -420h129l-10 563l73 106l-127 67zM354 482l30 -49l232 127l241 -133l34 45l-164 149l61 34l-157 63z" />
    <glyph glyph-name="uni4F38" unicode="&#x4f38;" 
d="M407 603v-453h200l6 -168h67l8 168h190v453h-167l6 105h-127l3 -105h-186zM121 342l51 -36l70 101l-21 -425h126l-9 563l74 107l-123 66zM493 539l103 -10l3 -109h-93zM517 319l85 12l3 -110l-76 -10zM698 345l82 11l-15 -114l-73 -10zM800 511l-12 -91h-86l5 99z" />
    <glyph glyph-name="uni4F3A" unicode="&#x4f3a;" 
d="M418 609l370 -28l-38 -502l-175 -28v-59h300v687h-457v-70zM124 338l49 -32l72 103l-21 -427h127l-10 564l74 106l-119 66zM412 397v-280h293v280h-293zM399 533v-105l320 42v63h-320zM620 314l-24 -114l-68 -11l-20 141z" />
    <glyph glyph-name="uni4F3C" unicode="&#x4f3c;" 
d="M797 443l-4 -2l68 242l-130 30l-127 -719l61 -12l74 264l104 -264l50 17zM106 337l53 -31l51 83l-19 -407h125l-5 573l62 102l-124 61zM477 704h-86l-18 -704l249 124l-14 59l-102 -26zM586 261l62 9l-15 419l-124 -16z" />
    <glyph glyph-name="uni4F3D" unicode="&#x4f3d;" 
d="M645 661v-668h233v668h-233zM362 563l29 -5l-28 -571l64 -5l70 559l41 -6l-34 -480l-51 -14v-48h165v635h-110l10 79l-119 7l-4 -86h-33v-65zM121 335l55 -29l37 72l-18 -396h124l-4 592l50 96l-124 48zM803 578l-26 -511l-32 -8l-18 532z" />
    <glyph glyph-name="uni4F43" unicode="&#x4f43;" 
d="M405 670v-13l-112 61l-172 -378l51 -34l70 103l-21 -427h123l-8 565l69 102v-648h473v669h-473zM492 601l94 -9l9 -211h-88zM795 574l-15 -193h-89l9 201zM688 300l86 14l-17 -217l-79 -8zM515 273l84 13l9 -205l-79 -9z" />
    <glyph glyph-name="uni4F46" unicode="&#x4f46;" 
d="M413 678v-513h444v513h-444zM110 340l50 -34l72 103l-21 -427h126l-9 564l74 106l-121 66zM381 107v-107h508v65zM771 583l-15 -110h-235l-15 134zM533 364l213 37l-18 -137l-181 -28z" />
    <glyph glyph-name="uni4F47" unicode="&#x4f47;" 
d="M111 340l51 -34l70 99l-21 -423h127l-10 560l76 108l-121 68zM888 358v63h-489v-114l238 25l-22 -266l-130 -25v-54h266l-14 355zM484 453l21 66l288 28l-22 -94h117v164h-183l8 101l-160 -19l53 -82h-208v-164h86z" />
    <glyph glyph-name="uni4F4D" unicode="&#x4f4d;" 
d="M112 340l53 -34l65 94l-25 -418h128l-2 565l72 105l-125 66zM388 122v-116h499v64l-163 17l131 366l-134 37l-77 -395zM548 697l60 -92h-206v-116l477 51v65h-175l9 113zM564 131l54 14l-48 334l-135 -41z" />
    <glyph glyph-name="uni4F4E" unicode="&#x4f4e;" 
d="M410 660v-637l121 54l88 -95l41 23l-31 115l51 23l-15 54l-129 -33l-14 170l147 18l67 -369l151 65l-15 50l-63 -13l-33 281l97 12v62h-105l-17 149h113v95zM112 340l52 -34l65 94l-20 -418h130l-9 564l74 106l-121 66zM500 589h127l27 -149h-141z" />
    <glyph glyph-name="uni4F4F" unicode="&#x4f4f;" 
d="M552 699l60 -94h-210v-116l173 19l8 -148h-167v-114l172 19l9 -165l-209 22v-116h499v64l-209 21l11 186l176 20v63h-171l10 162l175 20v63h-175l9 113zM112 338l51 -34l69 100l-20 -422h128l-9 565l72 103l-119 68z" />
    <glyph glyph-name="uni4F50" unicode="&#x4f50;" 
d="M106 343l54 -37l66 93l-20 -417h131l-9 560l61 85v-120l57 7l-55 -521l64 -11l72 354l120 18l18 -252l-155 20v-113h383v64l-147 18l30 281l102 15v62h-328l17 80l319 41v63h-298l13 62l-134 18l-9 -80h-65l10 14l-124 71z" />
    <glyph glyph-name="uni4F51" unicode="&#x4f51;" 
d="M395 628v-121l54 6l-52 -520l63 -11l89 439v-429h321v485h-310l10 50l317 37v64h-296l14 69l-136 16l-9 -85h-65zM112 343l53 -37l67 94l-21 -418h130l-8 560l75 105l-124 71zM785 380l-34 -296l-81 -17l-36 338z" />
    <glyph glyph-name="uni4F53" unicode="&#x4f53;" 
d="M393 615v-121l95 11l-91 -456l56 -15l132 389l8 -224h-82v-111l86 16l5 -121h77l5 138l90 18v60h-87l9 232l136 -397l55 15l-103 489l103 12v65h-184l4 93h-133l3 -93h-184zM112 342l53 -36l69 96l-21 -420h129l-9 560l75 105l-124 71z" />
    <glyph glyph-name="uni4F55" unicode="&#x4f55;" 
d="M403 669v-14l-118 63l-174 -375l55 -37l74 105l-22 -429h127l-8 567h-1l67 94v-89l347 37l-29 -512l-176 -28v-59h300l-8 608l51 6v63h-485zM412 500v-358h269v358h-269zM602 404l-28 -176l-49 -11l-28 210z" />
    <glyph glyph-name="uni4F57" unicode="&#x4f57;" 
d="M441 -4h419v181l-59 9l-47 -125l-184 34l-9 83l314 146l-54 106l-268 -183l-19 177h-93v-428zM121 345l53 -39l75 106l-22 -430h130l-10 567h-1l73 103l-122 66zM559 694l51 -71h-193v-172h84l25 76l265 29l-32 -105h119v172h-166l7 95z" />
    <glyph glyph-name="uni4F58" unicode="&#x4f58;" 
d="M139 344v-109l134 9l-144 -219l44 -36l226 196l-66 63l119 7l-20 -190l-121 -26v-54h258l-14 277l132 9l-90 -88l226 -194l44 36l-166 247l155 10v62h-717zM113 487l24 -54l92 36v-96l537 52v47l96 -35l23 50l-251 143l53 21l-185 64zM493 574l234 -87h-454z" />
    <glyph glyph-name="uni4F59" unicode="&#x4f59;" 
d="M113 487l24 -54l92 36v-94l228 22l-4 -53h-314v-109l132 8l-142 -218l44 -36l226 200l-65 58l112 8l-14 -190l-121 -28v-52h258l-11 277l126 8l-89 -83l228 -198l44 36l-164 247l153 10v62h-301l-3 62l214 21v46l96 -36l23 50l-251 143l53 21l-187 64zM495 575l234 -88
h-456z" />
    <glyph glyph-name="uni4F5A" unicode="&#x4f5a;" 
d="M410 412v-118l160 19l-161 -298l46 -33l197 250l186 -250l49 29l-153 321l153 18v62h-175l1 131l165 23v60h-165l1 82h-124v-82h-46l19 41l-125 31l-40 -256l57 -16l39 88l96 13v-115h-180zM112 340l52 -34l78 110l-22 -434h125l-7 567h-2l74 103l-121 66z" />
    <glyph glyph-name="uni4F5B" unicode="&#x4f5b;" 
d="M392 574l112 -6v-100l-114 -6v-246l107 12l-65 -228l52 -18l118 258l55 7l5 -264h71l2 50h145v295h-132l3 65h126v250h-115l3 65h-117l1 -65h-33l2 64h-113v-64h-113v-69zM119 339l49 -33l66 99l-20 -423h128l-8 575l65 98l-124 63zM799 263l-25 -158l-36 -9l7 161z
M613 563l38 -2l1 -86l-42 -2zM607 393h47l1 -65h-50zM792 555l-13 -73l-24 -1l3 75zM478 393h26v-65h-31z" />
    <glyph glyph-name="uni4F5C" unicode="&#x4f5c;" 
d="M354 351l51 -32l104 151l11 -488h81l8 129l269 43v59h-262l6 91l248 42v59h-242l7 100l252 39v59h-288l35 50l-127 65zM112 343l50 -37l77 108l-21 -432h127l-9 567l74 103l-122 66z" />
    <glyph glyph-name="uni4F5D" unicode="&#x4f5d;" 
d="M379 428l45 -24l17 26v-298h276v369h-230l51 78l246 -26l-38 -476l-178 -29v-56h304v660h-287l18 28l-134 39zM127 343l53 -38l76 107l-22 -431h127l-8 567h-1l73 103l-122 66zM633 408l-28 -187l-49 -8l-27 213z" />
    <glyph glyph-name="uni4F5E" unicode="&#x4f5e;" 
d="M384 538v-110l129 12l-15 -56h-114v-116l87 9l-29 -115l91 -39l-149 -91l27 -49l218 99l233 -99l27 44l-162 100l99 45v141l62 7v64h-258l14 31l-107 27l351 33v63h-504zM110 343l49 -37l77 108l-21 -432h127l-9 566l75 104l-125 66zM451 684v-111l370 47v64h-370z
M711 231l-76 -46l-74 46l26 58l123 12z" />
    <glyph glyph-name="uni4F5F" unicode="&#x4f5f;" 
d="M505 717l-139 -263l44 -32l37 40l92 -47l-168 -113l28 -50l82 41l-22 -82l393 -75l18 57l-354 117l115 58l226 -116l27 45l-169 122l154 151v91h-237l19 20zM115 345l52 -39l70 98l-23 -422h121l2 563l76 107l-124 66zM445 166l-29 -111l434 -73l18 51zM705 570l-79 -87
l-95 69l35 38z" />
    <glyph glyph-name="uni4F60" unicode="&#x4f60;" 
d="M109 342l52 -36l71 100l-21 -424h128l-10 561l78 109l-124 66zM384 456l54 -25l76 126l273 -18l-28 -93h117v183h-318l28 46l-130 43zM594 507l-24 -437l-97 -27v-51h224l-14 515h-89zM834 432l-119 -30l122 -384l53 14zM386 53l52 -13l124 359l-120 33z" />
    <glyph glyph-name="uni4F62" unicode="&#x4f62;" 
d="M892 0v62l-356 31l-8 106h346v235h-1v41h-367l-8 103l394 35v64h-487v-677h487zM107 339l51 -33l70 101l-23 -425h126l-5 566l72 104l-123 66zM512 397l262 -20l-22 -86l-230 -23z" />
    <glyph glyph-name="uni4F63" unicode="&#x4f63;" 
d="M398 679v-696h72l15 210l104 14l4 -219h68l14 230l91 13l-10 -166l-58 -19v-58h176v691h-476zM125 337l55 -31l52 86l-19 -410h121l-4 570l63 104l-123 62zM687 415l90 14l-7 -130h-90zM787 586l-6 -92h-90l6 100zM500 389l85 12l2 -102h-94zM517 611l64 -6l2 -111h-75z
" />
    <glyph glyph-name="uni4F64" unicode="&#x4f64;" 
d="M401 671v-18l-118 65l-171 -377l52 -35l71 103l-20 -427h122l-7 563l71 102v-94l50 6l-20 -577l252 80l-9 50l-145 -19l16 172l153 -106l38 35l-3 -202h154v92l-61 -14l23 422h-282l7 81l313 37v61h-486zM740 399l-4 -204l-109 168l-81 -91l14 150z" />
    <glyph glyph-name="uni4F65" unicode="&#x4f65;" 
d="M835 -8v61l-184 14l155 206l-127 73l-112 -273l-16 2l-1 267l-138 -21l71 -241l-73 6l-70 257l-133 -62l121 -189l-173 14v-114h680zM114 498l23 -58l355 129l266 -99h-536v-119l555 57v55l85 -32l23 54l-246 138l68 25l-214 60z" />
    <glyph glyph-name="uni4F67" unicode="&#x4f67;" 
d="M112 341l56 -35l69 102l-20 -426h122l-5 567l70 103l-121 66zM388 455v-120l499 61v59h-296l9 69l268 44v58h-256l11 82h-137l10 -174v-26h1l3 -53h-112zM581 -17l40 350h-133l21 -350h72zM887 89l-156 262l-97 -86l208 -210z" />
    <glyph glyph-name="uni4F69" unicode="&#x4f69;" 
d="M360 -17h67l49 632l303 -20l-27 -607h142v87l-31 -8v613h-503v-697zM481 577v-99l88 13l2 -56h-90v-396h53l26 336l12 -2l9 -390h52l1 53h104v399h-91l2 68l89 13v61h-257zM105 336l53 -30l47 84l-19 -408h119l-4 581l57 102l-123 53zM676 356l-22 -259l-18 -6l9 270z
" />
    <glyph glyph-name="uni4F6C" unicode="&#x4f6c;" 
d="M405 668v-119l142 17l11 -109h-162v-121l98 11l-134 -123l36 -50l45 34l-13 -211h444v177l-61 6l-46 -118l-206 28l-5 43l323 122l-45 108l-287 -160l-9 76l117 87l238 27v64h-115l90 67l-58 73l73 9v62h-211l7 44h-143l4 -44h-133zM108 343l53 -37l72 105l-21 -429h125
l-10 564l73 106l-118 66zM759 591l-115 -105l14 93z" />
    <glyph glyph-name="uni4F6F" unicode="&#x4f6f;" 
d="M403 572v-113l181 19l4 -68h-176v-113l181 20l4 -70h-199v-113l205 21l10 -172h70l10 182l196 21v61h-191l5 83l172 19v61h-167l4 82l173 19v61h-129l105 107l-129 38l-62 -145h-37l-69 145l-133 -38l118 -107h-146zM110 337l51 -31l74 107l-21 -431h124l-9 566l72 104
l-121 66z" />
    <glyph glyph-name="uni4F70" unicode="&#x4f70;" 
d="M403 666v-117l182 21l-6 -92h-149v-486h439v486h-208l58 108l168 20v60h-484zM112 341l51 -35l71 103l-20 -427h126l-9 566l72 104l-121 66zM786 382l-13 -92h-240l-14 120zM544 188l219 35l-19 -134l-185 -29z" />
    <glyph glyph-name="uni4F73" unicode="&#x4f73;" 
d="M407 633v-113l179 20l9 -90h-208v-113l501 52v61h-208l12 102l177 20v61h-167l9 75h-142l8 -75h-170zM888 5v60l-208 18l13 114l176 19v60h-167l7 55h-136l5 -55h-171v-108l179 18l10 -96l-209 18v-103h501zM111 338l50 -32l75 108l-21 -432h125l-10 566l73 104l-121 66z
" />
    <glyph glyph-name="uni4F74" unicode="&#x4f74;" 
d="M827 -17l4 120l58 6v62h-56l16 441l42 4v63h-491v-110l41 4l4 -402h-48v-114l350 37l5 -111h75zM108 336l47 -30l75 110l-20 -434h124l-9 572l68 99l-117 65zM532 232l207 40l5 -101h-218zM548 405l184 35l5 -105h-196zM564 585l162 15l4 -97h-173z" />
    <glyph glyph-name="uni4F76" unicode="&#x4f76;" 
d="M430 317v-325h433v325h-433zM407 652v-115l181 19l10 -91h-178v-114l451 52v62h-186l10 103l190 21v63h-182l6 60h-139l7 -60h-170zM114 342l53 -36l69 101l-20 -425h129l-10 568l70 102l-123 66zM771 219l-30 -132l-182 -23l-33 181z" />
    <glyph glyph-name="uni4F77" unicode="&#x4f77;" 
d="M408 693v-711l265 82l-14 60l-121 -15l-15 207h41l118 -182l159 -152l43 35l-98 138l98 49l-69 104l-69 -84l-42 92h147v377h-443zM115 342l51 -36l71 103l-20 -427h125l-10 564l74 106l-121 66zM766 594l-10 -50h-249l-6 82zM514 443l230 34l-14 -73l-212 -26z" />
    <glyph glyph-name="uni4F7B" unicode="&#x4f7b;" 
d="M106 334l51 -28l49 83l-19 -407h121l-4 575l35 60l96 -236l44 12l-158 -224l71 -50l91 138l-74 -257l60 -18l134 312l7 419h-113v-294l-13 -19l-36 263l-97 -26l14 24l-122 57zM627 -8q126 0 253 -1v104l-126 -25l-4 161l81 -93l62 65l-145 154l-8 356h-89zM893 653
l-105 18l-29 -302l54 -9z" />
    <glyph glyph-name="uni4F7C" unicode="&#x4f7c;" 
d="M388 22l44 -40l206 209l207 -209l44 39l-182 240l72 73l61 -85l49 26l-113 296l113 13v61h-180l7 73l-164 -14l40 -59h-204v-118l104 12l-104 -262l48 -28l61 85l73 -73zM110 338l49 -32l71 110l-21 -434h125l-9 581l62 96l-119 59zM656 507l49 -69l-66 -87l-66 87l50 69
l-77 38l220 25z" />
    <glyph glyph-name="uni4F7E" unicode="&#x4f7e;" 
d="M718 717l-89 -91l156 -127h-329l158 129l-89 89l-171 -236l37 -36l23 19v-481h75l13 118l222 36l-8 -77l-98 -23v-49h218v470l16 -13l37 36zM110 338l52 -32l69 100l-20 -424h126l-9 563l74 107l-121 66zM518 251l222 35l-10 -86h-218zM753 407l-6 -57h-219l9 76z" />
    <glyph glyph-name="uni4F7F" unicode="&#x4f7f;" 
d="M402 662v-110l192 21l1 -59h-184v-243h183l-47 -68l-95 47l-43 -108l76 -26l-68 -98l42 -35l102 107l309 -105l20 51l-259 126l68 71l1 38h173v243h-169l2 71l177 19v58h-176l2 55h-117l1 -55h-191zM109 342l49 -36l75 108l-20 -432h126l-9 570l70 100l-121 66zM503 448
l93 -8l2 -97l-71 -7zM786 425l-18 -66l-67 -6l2 79z" />
    <glyph glyph-name="uni4F83" unicode="&#x4f83;" 
d="M411 679v-300h457v300h-457zM111 340l51 -34l72 104l-21 -428h125l-10 562l75 108l-120 66zM720 -8h168v83l-52 -10l-16 275h-86zM778 584l-27 -118l-214 -17l-33 163zM396 -5l57 -12l117 343l-124 29zM667 -8l32 348h-124l24 -348h68z" />
    <glyph glyph-name="uni4F84" unicode="&#x4f84;" 
d="M700 527l52 -73h-203l70 131l270 30v65h-485v-119l67 7l-58 -230l181 25l7 -84h-188v-114l195 22l8 -96l-217 21v-112h494v65l-199 19l10 113l175 20v62h-169l8 101l80 11l50 -70l45 23l-76 247zM106 340l51 -34l73 106l-20 -430h126l-9 569l70 101l-123 66z" />
    <glyph glyph-name="uni4F86" unicode="&#x4f86;" 
d="M531 -18l11 245l310 -218l38 47l-261 252l50 47l165 -91l36 44l-116 126l63 59l-100 90l153 12v68h-319l3 55h-141l2 -55h-306v-125l119 9l-119 -279l52 -31l74 97l95 -47l-231 -231l37 -47l299 222l11 -249h75zM364 488l-102 61l168 12l8 -177l-53 -52l-75 86zM549 385
l8 186l168 12l-154 -219z" />
    <glyph glyph-name="uni4F88" unicode="&#x4f88;" 
d="M401 181l34 -44l86 59l93 -66l-217 -98l21 -51l295 96l171 157v107l-151 -2l45 31l-81 49l170 128v101l-184 -1l45 31l-162 39l-179 -211l36 -43l60 43l79 -55l-175 -101l21 -52l195 78zM115 343l55 -36l68 99l-21 -423h127l-10 564l73 106l-123 66zM745 259l-83 -87
l-53 83l23 16zM712 567l-93 -77l-48 78l21 14z" />
    <glyph glyph-name="uni4F89" unicode="&#x4f89;" 
d="M889 405l-153 185l143 16v60h-186l1 52h-121v-52h-183v-8l-107 60l-173 -380l52 -32l73 106l-21 -430h125l-8 568l59 85v-81l127 13l-147 -159l33 -38l93 70v-88l277 47v38l84 -66zM390 333v-103l71 7l-40 -130l338 37l-24 -73l-209 -29v-50h327v213q-148 -1 -294 -1
l39 48l271 30v51h-479zM635 546l117 -92h-238z" />
    <glyph glyph-name="uni4F8B" unicode="&#x4f8b;" 
d="M732 120l28 498h-113v60h-283v-15l-118 55l-135 -384l53 -28l46 80l-19 -404h120l-5 570l58 100v-86l53 9l-91 -342l52 -20l40 90l90 -30l-134 -261l47 -30l182 250l53 163l16 -275h60zM772 69l-106 -24v-53h222l-9 715h-86zM549 597l95 15l5 -84h-130zM556 446l-28 -104
l-71 48l29 65z" />
    <glyph glyph-name="uni4F8D" unicode="&#x4f8d;" 
d="M579 -12h237l-11 305l70 8v56h-72l-1 51h-84l-4 -51h-313v-108l122 13l-77 -82l155 -99l33 35l-91 148l166 19l-15 -213l-115 -29v-53zM112 342l51 -36l72 104l-21 -428h123l-8 563l74 107l-119 66zM570 712l8 -52h-169v-110l183 21l9 -60h-212v-110l498 52v58h-209
l10 71l179 20v58h-168l7 52h-136z" />
    <glyph glyph-name="uni4F8F" unicode="&#x4f8f;" 
d="M420 704l-37 -229l52 -17l34 73l111 15l4 -97h-196v-112l106 11l-109 -318l50 -24l156 273l12 -295h71l11 287l154 -265l48 24l-121 346l121 13v60h-195l5 112l171 22v58h-167l3 77h-131l3 -77h-57l16 34zM112 343l54 -37l67 96l-20 -420h124l-9 557l78 111l-119 68z" />
    <glyph glyph-name="uni4F91" unicode="&#x4f91;" 
d="M406 637v-112l47 5l-80 -167l44 -33l21 28l-1 -375h73l13 117l231 33l-9 -70l-100 -27v-48h91v-1h132v499h-335l44 58l303 35v58h-234l33 44l-135 37l-39 -81h-99zM119 338l49 -32l72 103l-21 -427h130l-9 567h-2l72 103l-123 66zM539 247l233 34l-10 -84h-229zM786 394
l-7 -52h-230l9 75z" />
    <glyph glyph-name="uni4F94" unicode="&#x4f94;" 
d="M428 471l-52 -221l47 -18l37 62l137 15l5 -88h-216v-107l221 21l9 -153h69l9 162l189 18v59h-184l6 100l163 18v60h-159l5 81h-127l4 -81h-68l20 32zM106 342l52 -36l70 97l-20 -421h127l-7 561l75 104l-124 71zM588 691l-136 25l-68 -242l409 55l55 -77l45 24l-74 242
l-116 -63l47 -66h-228z" />
    <glyph glyph-name="uni4F96" unicode="&#x4f96;" 
d="M259 -18l24 139l99 11l6 -118h63l13 127l73 8l9 -135h44v-27h223v409h-624v-414h70zM113 488l22 -52l134 55v-79l441 48v36l152 -56l24 50l-260 147l57 23l-185 58zM486 579l168 -62h-322zM619 158l85 10l-17 -111l-81 -18zM635 311l89 -5l-12 -81h-86zM318 328l53 -3
l6 -100h-76zM482 319l44 -3l6 -91h-59z" />
    <glyph glyph-name="uni4F97" unicode="&#x4f97;" 
d="M484 -18l40 630l267 -24l-30 -524l-98 -23v-49h212v686h-467l1 -696h75zM124 340l49 -34l67 100l-21 -424h126l-10 566l68 101l-113 69zM541 414v-301h198v301h-198zM534 542v-100l221 42v58h-221zM676 326l-20 -138l-23 -5l-16 158z" />
    <glyph glyph-name="uni4F9B" unicode="&#x4f9b;" 
d="M395 591v-126l97 12l10 -102h-111v-120l497 57v63h-108l12 141l91 12v63h-85l10 117h-136l10 -117h-87l10 117h-135l11 -117h-86zM111 342l52 -36l68 95l-20 -419h127l-9 556l78 109l-120 71zM766 266l-110 -82l188 -201l44 32zM391 17l44 -34l187 201l-112 80zM587 490
l103 13l12 -128h-124z" />
    <glyph glyph-name="uni4F9D" unicode="&#x4f9d;" 
d="M539 693l55 -97h-199v-122l113 13l-142 -288l45 -33l54 71l-14 -254l230 65l-9 59l-92 -10l-21 261l59 77l61 -190l157 -262l51 27l-103 258l103 67l-76 99l-53 -69l-33 146l162 19v66h-189l4 121zM112 342l53 -36l66 93l-20 -417h127l-9 554l79 111l-120 71z" />
    <glyph glyph-name="uni4FA0" unicode="&#x4fa0;" 
d="M409 647v-108l163 19l1 -203h-173v-110l127 14l-150 -242l44 -35l206 233l216 -233l44 33l-168 266l145 16v58h-182l4 216l169 20v56h-167l1 64h-118v-64h-162zM112 342l48 -36l70 96l-20 -420h124l-4 557l79 108l-119 71zM511 369l40 24l-60 154l-92 -70zM856 482
l-96 63l-55 -150l39 -26z" />
    <glyph glyph-name="uni4FA3" unicode="&#x4fa3;" 
d="M413 326v-325h464v325h-464zM431 680v-318h350v1h79v317h-429zM122 340l49 -34l71 98l-21 -422h126l-10 554l81 111l-116 71zM794 234l-31 -143l-229 -25l-30 194zM773 587l-31 -137l-191 -26l-31 189z" />
    <glyph glyph-name="uni4FA5" unicode="&#x4fa5;" 
d="M396 617l13 -106l148 31l25 -75l-169 -80l20 -52l173 61l30 -89l247 58l-6 54l-172 -24l-8 33l156 55l-35 96l-140 -67l-12 53l217 46l-7 59l-228 -25l-16 70l-122 -30l18 -54zM399 304v-105l109 9l-109 -192l41 -33l191 176l-61 55l108 9l-21 -231h226v92l-101 -19
l-17 165l122 11v63h-488zM112 342l51 -36l70 98l-20 -422h125l-7 558l77 107l-120 71z" />
    <glyph glyph-name="uni4FA6" unicode="&#x4fa6;" 
d="M466 185l52 262l251 -20l-38 -242h127v334h-247l10 49l251 39v54h-233l9 46h-142l16 -188h-124v-334h68zM108 340l50 -34l69 96l-23 -420h127l-6 556l79 109l-124 71zM365 27l31 -45l229 135l234 -135l32 41l-205 191l1 182l-112 2l-3 -192z" />
    <glyph glyph-name="uni4FA7" unicode="&#x4fa7;" 
d="M120 330l51 -24l32 70l-20 -394h113l-1 593l43 94v-467h60l40 407l137 -15l-27 -381l-12 23l7 328h-93l-4 -325l-118 -232l41 -24l121 158l134 -158l37 24l-101 185h84v488h-301l-117 38zM769 64l-75 -19v-53h185l-8 716h-73zM676 669l14 -549h55l23 549h-92z" />
    <glyph glyph-name="uni4FA8" unicode="&#x4fa8;" 
d="M351 212l43 -36l83 108l-40 -287l62 -15l110 324l-98 22l78 102l65 7l86 -115h-71l40 -340h70l14 269l51 -67l43 28l-107 237l87 9v60h-211l60 79h131v97l-444 -24v-20l-113 68l-178 -376l47 -36l76 104l-20 -428h121l-5 560l72 98v-43h166l-45 -79h-140v-108l84 8z" />
    <glyph glyph-name="uni4FA9" unicode="&#x4fa9;" 
d="M381 319v-113l87 10l-70 -215l378 54l47 -73l45 21l-68 241l-112 -51l50 -79l-205 -2l75 121l253 30v56h-480zM110 343l50 -37l72 100l-20 -424h125l-9 556l79 109l-122 71zM356 500l29 -48l207 118l219 -103h-389v-112l398 56v52l40 -19l29 41l-187 148l46 26l-144 59z
" />
    <glyph glyph-name="uni4FAA" unicode="&#x4faa;" 
d="M541 703l36 -55h-168l-122 70l-172 -376l51 -36l68 95l-20 -419h128l-10 555l62 86v-82l91 10l-50 -72l101 -60l-161 -117l28 -50l73 41l-54 -293l58 -18l126 288l-108 35l120 66l142 -83h-93l47 -306h66l16 285l58 -34l30 45l-178 142l121 67l-60 95l101 11v55h-178
l8 70zM759 581l-133 -97l-90 72z" />
    <glyph glyph-name="uni4FAC" unicode="&#x4fac;" 
d="M881 419v185h-177l27 76l-125 28l-27 -104h-197v-185h73l31 92l71 6l-11 -42l-183 -256l43 -41l68 75l-16 -271l247 79l-9 55l-107 -14l-23 252l40 44l71 -167l162 -249l51 30l-111 222l111 78l-81 88l-59 -88l-63 216l111 9l-32 -118h115zM109 340l47 -34l74 102
l-20 -426h123l-7 557l79 108l-122 71z" />
    <glyph glyph-name="uni4FAE" unicode="&#x4fae;" 
d="M443 718l-71 -215l51 -26l-8 -136h-43v-102l38 3l-9 -162l343 26l-5 -48l-115 -21v-50h234v128l34 3v55h-34v110l34 3v55h-34v168h-411l33 46l412 48v53h-339l16 21zM107 340l49 -34l68 94l-20 -418h126l-8 553l81 112l-118 71zM510 446l122 -11l-63 -41l62 -53h-119z
M777 422l-8 -81h-63l-35 90zM514 252l118 10l-63 -40l57 -49h-110zM668 266l94 8l-11 -101h-47z" />
    <glyph glyph-name="uni4FAF" unicode="&#x4faf;" 
d="M414 617l328 -24l-13 -44h-338v-102l40 3l-40 -150l46 -24l30 42l119 12l-1 -58h-194v-104l139 12l-139 -159l34 -38l213 167l210 -167l37 36l-148 180l148 14v59h-186l2 70l175 17v58h-340l20 28l-41 13l370 33v58h-44v135h-427v-67zM114 338l49 -32l70 97l-20 -421h127
l-7 559l77 106l-124 71z" />
    <glyph glyph-name="uni4FB5" unicode="&#x4fb5;" 
d="M404 607v-80l346 24l-9 -34l-337 -18v-52h450v251h-450v-48l-114 68l-178 -378l48 -34l72 99l-20 -423h125l-9 554l78 107l364 -18l-5 -18h-361zM437 135l82 -30l-142 -73l17 -49l236 82l232 -82l25 49l-175 90l146 105v69h-453v-60l73 -6zM391 423v-109h88l17 31l272 19
l-19 -50h118v109h-476zM663 214l-48 -41l-106 54z" />
    <glyph glyph-name="uni4FBF" unicode="&#x4fbf;" 
d="M406 684v-35l-116 69l-177 -376l52 -36l68 95l-20 -419h125l-9 552l77 107v-55l185 16v-43h-176v-311h173l-37 -50l-81 41l-40 -106l59 -21l-73 -99l35 -31l107 106l304 -106l23 48l-256 128l67 66v24h171v311h-165l1 53l173 16v56h-470zM502 500l89 -6v-54h-80zM790 481
l-8 -41h-82l1 47zM699 375l71 9l-11 -58l-61 -5zM524 354l66 8v-51l-59 -5z" />
    <glyph glyph-name="uni4FC3" unicode="&#x4fc3;" 
d="M407 689v-41l-122 70l-173 -378l52 -34l68 95l-20 -419h125l-7 555l77 107v-244h187l17 -245l-88 40l62 146l-127 37l-75 -368l54 -18l41 97l390 -106l19 49l-203 90l10 84l164 37v63h-152l11 94h136v289h-446zM771 596l-29 -108l-215 -19l-33 155z" />
    <glyph glyph-name="uni4FC4" unicode="&#x4fc4;" 
d="M734 -18l159 45l-5 55l-79 -7l-13 143l97 82l-77 85l-31 -37l-7 74l106 11v61h-112l-15 164l75 -145l44 14l-26 176l-94 -33l-3 42l-116 -14l27 -204h-99l-2 108h53v96l-245 -23v-13l-101 56l-164 -381l49 -31l65 98l-22 -422h122l-5 565l56 84v-29h99l-2 -108h-97v-113
l95 9l-2 -99l-103 -40l43 -99l58 33l-2 -122l-77 -19v-52h191l-5 254l89 50l-22 61l-68 -27l-2 70l109 11l23 -165l-115 -134l39 -41l89 75z" />
    <glyph glyph-name="uni4FC5" unicode="&#x4fc5;" 
d="M363 585v-110l84 8l-85 -84l149 -111l38 34l-92 162l107 11l-6 -432l-99 -23v-53h219l-6 274l170 -258l48 29l-118 236l119 152l-100 63l-58 -138l-66 134l-1 26l216 22v58h-54l-15 133l-114 -40l63 -93h-98l-2 123h-94l-2 -123h-203zM108 337l49 -31l65 98l-22 -422h122
l-5 564l71 107l-116 65zM353 54l44 -26l153 204l-104 65z" />
    <glyph glyph-name="uni4FCA" unicode="&#x4fca;" 
d="M626 424l-37 85l85 10l-40 -95l234 -76l21 47l-196 126l101 11l48 -50l42 29l-91 207l-106 -71l51 -55h-206l91 94l-142 30l-107 -231l166 19l-170 -109l21 -47l84 27l-101 -199l43 -31l40 46l92 -48l-173 -113l26 -48l237 114l219 -114l31 48l-176 120l136 121v83h-254
l21 24l-50 26zM110 337l50 -31l63 95l-21 -419h122l-5 563l71 107l-116 66zM681 270l-55 -60l-97 66l11 13z" />
    <glyph glyph-name="uni4FCE" unicode="&#x4fce;" 
d="M467 679v-583l-50 5l32 39l-117 130l37 66l-124 49l-124 -378l53 -24l108 196l133 -81l1 1v-98h471v59l-46 4v615h-374zM165 319l87 162l159 -86l33 47l-140 137l47 88l-132 50l-107 -373zM757 585l-6 -94h-189l-7 121zM568 395l179 33l-9 -136h-163zM580 199l154 28
l-10 -153l-137 12z" />
    <glyph glyph-name="uni4FCF" unicode="&#x4fcf;" 
d="M480 -12l13 117l264 33l-8 -78l-116 -23v-49h238v506h-115l129 141l-104 68l-68 -184l43 -25h-78l27 209h-130l23 -209h-193v-506h75zM114 341l50 -35l62 95l-22 -419h124l-5 567l71 108l-116 61zM519 494l44 25l-65 184l-108 -68zM509 255l264 29l-9 -79h-260zM786 400
l-6 -51h-260l8 76z" />
    <glyph glyph-name="uni4FD0" unicode="&#x4fd0;" 
d="M548 -17l11 317l64 -111l40 16l-50 226l-50 -23l2 39l84 14v64h-81l2 77h70v96l-280 -23v-8l-117 51l-127 -382l56 -30l39 73l-21 -397h120l-1 582l51 96v-58h97l2 -77h-107v-112l83 13l-98 -309l51 -23l79 157l7 -268h74zM770 65l-85 -19v-54h198l-9 706h-77zM664 625
l17 -497h57l27 497h-101z" />
    <glyph glyph-name="uni4FD1" unicode="&#x4fd1;" 
d="M404 589l155 14l-57 -49l61 -41h-157l-1 -525h67l13 122l114 15l6 -137h65l9 148l88 12l-9 -95l-56 -19v-46h174l-4 525h-134l130 113v63h-464v-100zM123 341l47 -33l65 97l-22 -423h124l-5 567l71 105l-118 64zM688 294l95 13l-10 -98h-90zM502 270l91 12l3 -73h-101z
M795 424l-6 -61h-97l5 69zM521 445l65 -5l3 -77h-77zM709 617l-53 -83l-44 74z" />
    <glyph glyph-name="uni4FD7" unicode="&#x4fd7;" 
d="M884 309l-186 153l35 22l-116 69l-259 -243l28 -43l22 14v-289h430v284l20 -10zM115 335l47 -29l65 98l-22 -422h120l-5 561l75 113l-116 62zM748 201l-26 -120l-194 -18l-28 166zM616 623l-96 85l-154 -241l36 -36zM841 436l39 35l-159 237l-92 -85zM429 294l170 106
l205 -106h-375z" />
    <glyph glyph-name="uni4FD8" unicode="&#x4fd8;" 
d="M691 323l-64 -81h-246v-108l261 24l-15 -86l-182 -24v-56h318l-18 175l148 14v61h-153l122 91v62h-453v-97zM106 339l53 -33l57 87l-22 -411h126l-5 565l71 109l-114 62zM874 699l-474 -29v-70h474v99zM779 581l-79 -133l-20 137l-115 -43l90 -130l38 15l37 -30l134 108z
M573 429l-52 147l-104 -64l112 -112z" />
    <glyph glyph-name="uni4FDA" unicode="&#x4fda;" 
d="M396 684v-404h195l1 -39h-197v-106l200 19l2 -64l-221 19v-108h513v65l-215 18l4 78l192 19v60h-188l2 39h185v404h-473zM110 337l51 -31l61 93l-22 -417h124l-5 566l71 108l-118 62zM481 618l99 -10l3 -84h-91zM504 423l82 11l2 -80l-74 -8zM693 448l78 10l-14 -87
l-68 -7zM792 588l-10 -64h-85l4 73z" />
    <glyph glyph-name="uni4FDC" unicode="&#x4fdc;" 
d="M391 666v-3l-116 55l-160 -381l53 -31l57 89l-21 -413h125l-5 568l67 104v-311h474v323h-172l4 44h-128l4 -44h-182zM372 317v-94l58 4l-32 -120l372 32l-24 -75l-209 -19v-53h328v207h-336l27 38l328 24v56h-512zM477 608l103 -9l6 -63h-98zM782 580l-8 -44h-92l4 53z
M676 469l87 10l-10 -56l-81 -8zM501 448l92 11l5 -51l-90 -8z" />
    <glyph glyph-name="uni4FDD" unicode="&#x4fdd;" 
d="M380 392v-107l202 18l13 -320h71l25 330l200 19v60h-194l3 44h171v253h-472v-253h178l1 -44h-198zM108 335l53 -29l57 88l-21 -412h122l-5 561l75 116l-117 59zM790 600l-25 -80l-247 -20l-28 126zM431 -3l145 236l-117 57l-79 -272zM890 18l-81 272l-116 -58l148 -235z
" />
    <glyph glyph-name="uni4FDE" unicode="&#x4fde;" 
d="M251 -15l11 92l171 25l-5 -54l-67 -9v-54h185v420h-365v-420h70zM111 519l19 -51l96 30v-75l550 38v29l90 -27l22 54l-243 111l58 18l-206 69zM704 58l-112 -23v-50h230l-9 420h-80zM586 378l19 -272h60l24 272h-103zM482 577l189 -56h-371zM277 201l169 25l-7 -66h-167z
M457 322l-4 -37h-165l7 54z" />
    <glyph glyph-name="uni4FDF" unicode="&#x4fdf;" 
d="M848 471l45 23l-77 224l-111 -64l51 -65h-227l81 93l-144 29l-83 -228l39 4l-50 -170l46 -23l40 54l121 14v-73h-187v-106l136 13l-145 -173l38 -40l212 180l223 -180l38 35l-158 198l148 14v59h-189v86l180 20v56h-342l17 23l-55 22l306 34zM105 341l57 -35l49 78
l-21 -402h128l-6 562l74 117l-122 57z" />
    <glyph glyph-name="uni4FE0" unicode="&#x4fe0;" 
d="M842 228l48 21l-47 201l31 58l-114 42l-31 -110h-1v-2l-34 -123l-5 8l-1 260l184 18v61h-184v56h-117l1 -56h-182v-109l183 18l5 -230l-55 97l32 72l-122 34l-54 -302l51 -18l52 119l80 -69l-190 -256l37 -36l229 217l210 -217l42 32l-153 234l46 88zM109 337l47 -31
l59 90l-21 -414h130l-6 571l71 108l-116 57z" />
    <glyph glyph-name="uni4FE1" unicode="&#x4fe1;" 
d="M525 697l46 -64h-201l19 28l-117 57l-164 -377l45 -35l65 99l-21 -423h122l-5 567l50 74v-95l527 47v58h-209l5 85zM389 251v-255h477v255h-477zM394 506v-105l467 47v58h-467zM394 378v-105l467 48v57h-467zM777 162l-23 -84l-243 -16l-23 121z" />
    <glyph glyph-name="uni4FE3" unicode="&#x4fe3;" 
d="M397 422v-99l169 16l-1 -60h-187v-100l146 13l-166 -170l35 -40l240 169l221 -169l35 38l-163 189l143 13v57h-188v71l169 16v56h-453zM393 680v-227h462v227h-462zM110 337l47 -31l65 99l-22 -423h121l-6 565l75 114l-120 57zM768 596l-21 -63l-234 -17l-25 104z" />
    <glyph glyph-name="uni4FE6" unicode="&#x4fe6;" 
d="M398 656v-95l106 8l-2 -26h-94v-95l86 7l-2 -26h-113v-96l92 7l-95 -304l52 -22l89 198l77 10l-66 -62l119 -88l34 28l-62 125l114 14l-17 -175l-90 -23v-49h212l-12 258l62 8v53h-64l-1 27h-80l-3 -27h-178l17 37l302 23v58h-284l5 35l250 22v57h-238l5 36l243 20v57
h-232l8 51l-121 11l-5 -62h-114zM111 339l49 -33l63 97l-22 -421h120l-5 564l75 115l-114 57z" />
    <glyph glyph-name="uni4FE8" unicode="&#x4fe8;" 
d="M383 683v-18l-111 53l-160 -383l51 -29l61 95l-22 -419h122l-5 566l64 99v-67l146 13l18 -204h-146v-407h69l43 311l366 41v55h-146l24 226l130 12v56h-504zM885 551l-92 36l-40 -173l42 -15zM485 399l42 15l-40 173l-92 -41zM629 603l26 2l16 -216h-61z" />
    <glyph glyph-name="uni4FE9" unicode="&#x4fe9;" 
d="M618 26l51 -8v-31h207l1 506h-107l23 117l94 9v62h-525v-14l-120 51l-130 -387l52 -25l41 74l-20 -398h121l-5 571l61 109v-92l167 15l-6 -92h-151v-511h67l47 443l33 -3l-24 -391l55 -4l31 197l52 -51zM680 40l35 176l41 -40l23 16l-14 -134zM801 402l-21 -194l-47 99
l19 98zM612 415l45 -3l-17 -168l-42 86zM641 596l35 3l-11 -106h-41z" />
    <glyph glyph-name="uni4FEA" unicode="&#x4fea;" 
d="M692 -13l20 259l65 -45l-8 -146l-47 -20v-48h148v566h-241v-566h63zM425 -13l20 259l64 -43l-9 -149l-45 -19v-48h144v566h-240v-566h66zM121 331l51 -25l34 70l-21 -394h120l-5 590l49 102l-118 44zM351 690v-109l527 52v57h-527zM793 472l-12 -199l-60 89l10 126z
M525 472l-12 -193l-59 86l10 123z" />
    <glyph glyph-name="uni4FEC" unicode="&#x4fec;" 
d="M367 674v-10l-114 54l-146 -382l49 -30l53 87l-19 -411h117l-6 560l66 107v-46h97l2 -79h-108v-110l81 13l-95 -311l47 -23l82 160l8 -271h71l13 315l64 -109l27 11l-27 -190l195 51l18 -78l50 7l-30 395l-81 -13l66 311l-120 21l-65 -462l-43 189l-50 -21l2 39l84 14v62
h-81l3 79h70v94zM768 310l42 -186h-82z" />
    <glyph glyph-name="uni4FED" unicode="&#x4fed;" 
d="M860 0v58l-127 13l115 236l-112 42l-69 -271l-5 1l4 267l-116 -13l55 -248l-44 5l-53 251l-112 -40l97 -204l-115 13v-110h482zM351 481l29 -46l46 26v-102l386 47v45l45 -24l30 44l-178 153l50 29l-158 65zM112 338l51 -32l54 88l-20 -412h119l-7 559l71 114l-121 63z
M604 564l177 -96h-344z" />
    <glyph glyph-name="uni4FEE" unicode="&#x4fee;" 
d="M553 712l-106 -248l40 -27l29 37l65 -33l-129 -99l25 -44l188 100l46 -23l-247 -135l20 -46l304 113l-18 38l88 -44l27 42l-148 106l119 123v85h-197l17 22zM114 331l47 -25l48 85l-21 -409h115l-3 571l65 115l-116 50zM339 588l21 -543h66l22 543h-109zM489 30l18 -48
l365 108l-31 88zM489 135l19 -49l323 118l-37 80zM710 575l-55 -68l-73 52l24 30z" />
    <glyph glyph-name="uni4FEF" unicode="&#x4fef;" 
d="M547 699l35 -45h-209l6 9l-119 55l-149 -382l50 -30l55 90l-20 -414h121l-7 568l62 101v-6h-2v-663h71l45 580l402 37v55h-188l9 64zM649 481v-105l120 23l-10 -339l-82 -24v-49h178l-7 428l40 8v58h-41l-1 70h-72l-2 -70h-123zM483 262l46 -20l-11 -255h99l-5 425
l52 109l-106 39zM698 113l44 8l-15 233l-91 -18z" />
    <glyph glyph-name="uni4FF1" unicode="&#x4ff1;" 
d="M417 684v-448h-35v-98l103 9l-112 -126l32 -39l204 118l-43 55l138 12l-53 -67l200 -118l36 39l-131 151l127 12v52h-36l1 448h-431zM112 342l47 -36l71 97l-21 -421h122l-4 554l81 111l-120 71zM516 490l239 28l-5 -61h-231zM763 602l-3 -32h-250l-4 53zM524 380l221 25
l-5 -59h-213zM532 269l203 23l-5 -56h-195z" />
    <glyph glyph-name="uni4FF3" unicode="&#x4ff3;" 
d="M399 607v-67l109 -25l4 -103h-113v-67l116 -26l3 -107l-119 -29v-63h122l5 -138h74l27 726h-125l3 -101h-106zM759 -18l4 138h124v63l-121 29l4 107l117 26v67h-114l3 103l111 25v67h-108l4 101h-125l28 -726h73zM112 338l48 -32l74 102l-22 -426h123l-5 557l79 108
l-122 71z" />
    <glyph glyph-name="uni4FF8" unicode="&#x4ff8;" 
d="M660 -18l8 89l200 18v53h-193l4 47l138 16v44l45 -21l25 38l-153 124l133 13v53h-187v42l157 17v53h-156l1 40l171 17v53h-170l1 36h-117v-36h-163v-29l-118 69l-174 -376l48 -36l72 100l-21 -424h124l-9 552l78 107v-60l164 16v-29h-148v-97l149 16v-31h-178v-97l111 10
l-132 -103l24 -40l46 22v-85l139 15l4 -36h-193v-95l200 17l7 -82h63zM689 290h-119l3 -37h-124l177 86l183 -86h-124z" />
    <glyph glyph-name="uni4FFA" unicode="&#x4ffa;" 
d="M112 342l47 -36l69 95l-21 -419h128l-10 553l70 96v-87l111 11l-124 -124l32 -40l2 1v-269h169l-2 -131h295v148l-22 3v252l31 37l-137 148l119 13v56h-170l2 69h-122l-2 -69h-169l-117 69zM592 492l-1 -56h-112l159 108l156 -108h-112l-1 56h-89zM689 74l-1 49h126
l-26 -69zM497 375l93 -8l-1 -51h-84zM686 250l72 9l-10 -56l-61 -4zM775 353l-7 -37h-84l-1 44zM518 231l69 8l-1 -47l-62 -5z" />
    <glyph glyph-name="uni4FFE" unicode="&#x4ffe;" 
d="M413 648v-354h112l-83 -67l22 -36h-79v-105l272 26l12 -130h63l15 139l144 14v56h-136l8 68h-120l6 -68h-165l201 103h192v354h-199l40 58l-147 12l3 -70h-161zM108 342l48 -36l72 99l-21 -423h124l-6 556l79 109l-122 71zM496 589l102 -9l-1 -70h-90zM703 442l80 10
l-13 -77l-70 -4zM801 563l-9 -53h-86l2 61zM519 418l76 10l-1 -63l-67 -4z" />
    <glyph glyph-name="uni5000" unicode="&#x5000;" 
d="M379 343v-111l58 6l-3 -256l248 77l-9 54l-119 -14l-6 151l35 3l102 -128l166 -143l36 37l-88 113l88 53l-67 84l-62 -82l-43 80l163 18v58h-334l-1 28l306 32v55h-309l-1 25l310 33v55h-314l-1 24l324 34v56h-414l-5 -342h-60zM112 340l49 -34l68 94l-20 -418h126
l-10 551l83 114l-126 71z" />
    <glyph glyph-name="uni5006" unicode="&#x5006;" 
d="M356 677v-5l-115 46l-123 -381l50 -26l51 95l-22 -424h116l-5 589l48 89v-89l202 17l2 -67h-193l-1 -539h64l36 394l24 -76l-42 -181l28 -10l43 95l28 -91l28 7l4 -120h60l6 119l22 -10l44 93l29 -89l25 7l-5 -61l-74 -20v-52h184l1 534h-205l3 76l212 18v62h-525z
M749 281h-1l-21 134l-68 -18l3 47l129 -10l-23 -279l-20 124zM468 399l6 59l89 -7l9 -265l-34 231zM658 372l24 -76l-36 -147z" />
    <glyph glyph-name="uni5009" unicode="&#x5009;" 
d="M419 551l33 -39h-265l-9 -530h70l35 249h530v274l58 -16l18 48l-239 108l81 23l-228 50l-393 -169l17 -51l356 100l306 -86h-211l8 54zM312 199v-207h501v207h-501zM722 120l-16 -46l-270 -28l-24 93zM729 431l-6 -26h-416l7 49zM295 319l416 33l-9 -42l-411 -23z" />
    <glyph glyph-name="uni500B" unicode="&#x500b;" 
d="M129 340l51 -34l69 96l-21 -420h122l-4 556l69 97v-643h455v698h-455v-36l-110 64zM496 623l296 -28l-27 -514l-243 -26zM534 519v-99l79 15l8 -66h-76v-246h202v246h-67l9 81l69 14v55h-62l6 51h-106l6 -51h-68zM683 289l-16 -89l-37 -9l-13 110z" />
    <glyph glyph-name="uni500C" unicode="&#x500c;" 
d="M416 483v-491h446v231h-345l3 38h337v222h-441zM881 500v149h-193l13 69l-163 -14l38 -55h-165l-118 69l-175 -378l50 -34l71 98l-21 -422h123l-7 553l62 86v-121h80l21 58l290 25l-24 -83h118zM773 138l-18 -65l-253 -19l9 105zM768 398l-16 -57l-227 -17l8 93z" />
    <glyph glyph-name="uni500D" unicode="&#x500d;" 
d="M541 704l37 -56h-177l-122 70l-172 -380l51 -32l71 98l-25 -422h124l-2 558l73 101v-105l157 18l-110 -66l104 -81h-165v-108l507 49v59h-161l107 81l-106 66l-91 -135l-84 135l321 36v58h-180l14 70zM413 276v-284h451v284h-451zM778 185l-29 -108l-211 -19l-33 151z
" />
    <glyph glyph-name="uni500F" unicode="&#x500f;" 
d="M466 267v-105l111 14l-128 -157l33 -35l178 146l190 -148l35 35l-149 180l135 17v53h-55l-3 56l45 -22l27 42l-151 105l122 124v85h-194l18 22l-127 33l-106 -246l42 -29l27 35l64 -32l-128 -98l25 -44l186 101l118 -59l-64 -17l40 -56h-52l1 87l-103 -2v-85h-137z
M114 331l49 -25l46 81l-21 -405h113l-3 564l67 120l-116 52zM333 588l17 -543h66l26 543h-109zM714 575l-60 -71l-73 50l28 35z" />
    <glyph glyph-name="uni5011" unicode="&#x5011;" 
d="M129 333l50 -27l45 81l-21 -405h118l-6 567l58 102l-1 -669h66l26 377h147v331h-238v-21l-110 49zM636 689v-330h140l-16 -292l-101 -28v-52h210l1 703h-75v-1h-159zM712 621l78 -15l-2 -45h-70zM482 621l60 -11l-6 -49h-58zM725 485l59 14l-3 -59l-50 -13zM472 482
l55 13l-7 -59l-52 -13z" />
    <glyph glyph-name="uni5012" unicode="&#x5012;" 
d="M522 525l47 -100h-92l59 162l123 21v63h-291l-106 47l-135 -385l48 -27l47 84l-21 -408h115l-3 568l55 96v-86l43 7l-42 -248l94 17l6 -73h-90v-111l98 17l6 -76h-115v-106l291 44v62h-110l8 90l92 17v63h-86l8 93l28 6l28 -60l40 16l-43 244zM769 64l-74 -19v-53h177
l-7 705h-77zM667 619l24 -487h53l16 487h-93z" />
    <glyph glyph-name="uni5014" unicode="&#x5014;" 
d="M449 -18l36 484h393v219h-499v-703h70zM518 197v-205h360v205h-71l-22 -126l-50 -5l11 157h127v206h-66l-22 -124l-34 -4l10 133h-114l8 -143l-37 -3l-25 141h-70v-206h136l9 -163l-50 -5l-25 142h-75zM121 331l50 -25l50 89l-22 -413h116l-2 577l60 107l-118 52z
M791 597l-16 -52l-286 -20l7 99z" />
    <glyph glyph-name="uni5018" unicode="&#x5018;" 
d="M370 622l132 -121h-132v-519h67l43 451l317 -19l-30 -351l-108 -22v-54h218v514h-129l133 128l-103 75l-73 -174l40 -29h-80l24 207h-127l26 -207h-84l44 29l-74 174zM118 333l50 -27l48 85l-21 -409h115l-1 575l61 109l-118 52zM511 378v-274h227v274h-227zM668 291
l-19 -104l-42 -10l-18 129z" />
    <glyph glyph-name="uni5019" unicode="&#x5019;" 
d="M484 623l280 -29l-14 -42h-277v-101l40 4l-40 -161l45 -23l36 53l83 11v-68h-164v-103l119 13l-119 -159l38 -36l177 163l160 -163l43 31l-115 185l115 13v56h-147l1 82l138 18v54h-261l13 19l-67 20l323 33v59h-37v131h-370v-60zM108 333l50 -27l47 85l-21 -409h112
l-2 566l66 118l-118 52zM335 588l21 -543h66l22 543h-109z" />
    <glyph glyph-name="uni501A" unicode="&#x501a;" 
d="M391 468l25 -34h-61v-102l386 33l-23 -303l-134 -20v-55h256l-13 386l62 5v56h-58l22 30l-127 124l144 16v54h-189l1 60h-119v-60h-188v-107l123 13zM110 331l51 -25l46 82l-21 -406h117l-3 573l62 111l-117 52zM381 308v-217h307v217h-307zM624 538l177 -104h-362z
M602 226l-18 -59l-94 -12l-18 88z" />
    <glyph glyph-name="uni501C" unicode="&#x501c;" 
d="M124 331l51 -25l41 74l-20 -398h119l-5 567l62 111l1 -678h68l48 638l306 -26l-32 -527l-108 -24v-51h220v696h-503v-21l-117 51zM512 310v-211h234v211h-234zM499 418v-93l260 38v55h-95l6 49l80 12v55h-71l6 46h-113l7 -46h-71v-92l82 12l6 -36h-97zM673 233l-15 -61
l-54 -9l-17 87z" />
    <glyph glyph-name="uni501F" unicode="&#x501f;" 
d="M394 347v-351h472v351h-472zM377 632v-107l114 11l9 -70h-133v-103l521 43v60h-123l12 98l101 10v58h-92l9 73h-130l9 -73h-79l7 73h-131l9 -73h-103zM111 331l52 -25l43 78l-21 -402h116v572l62 112l-122 52zM781 256l-8 -45h-275l-10 70zM511 116l252 34l-12 -67
l-232 -24zM587 545l96 10l11 -89h-114z" />
    <glyph glyph-name="uni5021" unicode="&#x5021;" 
d="M374 326v-334h506v334h-506zM393 681v-326h468v326h-468zM119 331l52 -25l41 74l-20 -398h121l-5 571l63 113l-120 52zM798 238l-8 -39h-319l-9 65zM484 106l294 31l-12 -61l-274 -25zM777 594l-8 -38h-280l-11 63zM504 466l253 29l-12 -58l-232 -21z" />
    <glyph glyph-name="uni5025" unicode="&#x5025;" 
d="M859 271v58h-465v-110l181 20l16 -147l-223 23v-110h517v58l-213 21l18 168zM114 331l52 -25l43 78l-21 -402h119l-3 572l62 112l-122 52zM856 336l29 47l-112 96h107v175h-193l9 64l-154 -14l30 -50h-199v-175h74l27 84l318 25l-27 -103l-74 65l-66 -102zM625 448
l-65 102l-194 -167l28 -47z" />
    <glyph glyph-name="uni5026" unicode="&#x5026;" 
d="M885 291l-157 126l136 13v53h-193v43l184 18v52h-86l65 54l-90 65l-62 -119h-10l2 117h-114v-117h-12l-49 120l-95 -62l59 -58h-89v-98l186 18v-33h-195v-98l122 11l-140 -102l26 -47l30 15l-7 -270h459v153l-38 4v121l42 -21zM114 331l52 -25l41 74l-21 -398h118l-2 569
l64 115l-120 52zM568 178v-55h216l-28 -68l-241 28l-21 171l230 -18l-12 -34zM622 371l101 -52h-205z" />
    <glyph glyph-name="uni5028" unicode="&#x5028;" 
d="M450 -18l37 491h386v212h-495v-703h72zM882 333v55h-130l7 55h-123l8 -55h-133v-106l145 20l8 -54h-145v-252h354v252h-139l9 66zM117 331l51 -25l44 79l-21 -403h119l-3 573l62 111l-117 52zM786 598l-13 -43l-282 -20l7 89zM789 161l-21 -83l-141 -19l-21 122z" />
    <glyph glyph-name="uni5029" unicode="&#x5029;" 
d="M453 -18l13 88l284 26l-6 -41l-110 -19v-49h236l-1 378h-490v-383h74zM359 464v-90l530 38v52h-224l5 37l194 16v53h-186l5 40l191 14v53h-183l4 34h-138l3 -34h-186v-90l194 14l3 -31h-187v-91l195 15l3 -30h-223zM110 331l52 -25l41 74l-21 -398h118l-2 569l64 115
l-120 52zM781 283l-4 -26h-283l7 48zM482 176l286 26l-8 -48h-282z" />
    <glyph glyph-name="uni502A" unicode="&#x502a;" 
d="M349 12l44 -30l210 252l-94 63h148l-23 -305h255v102l-119 -26l-22 229h123l-2 370h-229v-67l142 -28l-7 -51h-135v-62l123 -23l-7 -49l-265 -22l-8 71l121 25v60h-131l-9 73h140v101l-230 -37l-2 -361h114zM110 331l52 -25l41 74l-20 -398h119l-3 571l63 113l-120 52z
" />
    <glyph glyph-name="uni502B" unicode="&#x502b;" 
d="M425 -18l17 146l71 9l5 -123h55l10 133l50 7l7 -140h32v-27h179v409h-490v-414h64zM109 331l52 -25l41 74l-21 -398h120l-4 569l64 115l-118 52zM320 528l21 -49l72 30v-99l369 47v54h-366l181 76l271 -103l22 44l-173 109l40 17l-156 64zM704 163l54 8l-12 -113l-52 -15
zM467 334l38 -3l4 -106h-55zM716 316l58 -5l-10 -86h-55zM597 324l27 -2l5 -97h-40z" />
    <glyph glyph-name="uni502C" unicode="&#x502c;" 
d="M362 544v-320h190l5 -45h-210v-105l219 21l13 -113h67l16 122l226 22v53h-215l6 45h194v320h-273l6 33l272 40v51h-256l7 40h-142l21 -164h-146zM111 331l52 -25l41 74l-21 -398h118l-4 565l66 119l-118 52zM792 460l-8 -36h-328l-9 59zM471 328l300 36l-12 -57l-281 -22
z" />
    <glyph glyph-name="uni502D" unicode="&#x502d;" 
d="M659 318l11 117l182 -120l30 38l-141 152l131 11v60l-189 -1l4 39h163v87l-460 -16v-71h178l3 -39h-202v-101l120 10l-123 -129l29 -40l186 120l7 -108l-113 31l-19 -61h-87v-101l57 5l-26 -86l95 -27l-141 -54l16 -52l245 73l260 -73l16 48l-154 61l91 27l-1 120l45 4
v55h-284l12 21h59zM108 331l52 -25l45 82l-21 -406h120l-6 573l62 111l-124 52zM621 137l-101 40l20 35l173 15l-2 -56z" />
    <glyph glyph-name="uni502E" unicode="&#x502e;" 
d="M379 684v-331h194l1 -36h-223v-102l123 10l-123 -200l37 -32l190 191l6 -202h70l9 203l186 -192l41 32l-137 222l137 11v59h-222l2 36h192v331h-483zM109 331l46 -25l54 94l-22 -418h118l-6 576l62 108l-118 52zM458 625l107 -9l2 -63h-98zM676 488l91 9l-12 -60l-82 -8z
M786 596l-9 -43h-98l2 52zM483 468l86 9l2 -57l-80 -8z" />
    <glyph glyph-name="uni503A" unicode="&#x503a;" 
d="M456 126l42 169l267 -22l-29 -145l-58 40v89l-117 3v-99l-205 -137l20 -42l244 96l246 -96l22 40l-149 104h117l-1 227h-470v-227h71zM378 580l185 15l2 -27h-178v-91l185 16l4 -33h-208v-91l504 41v50h-220l5 41l196 17v50h-189l4 36l195 17v50h-188l4 37h-127l3 -37
h-177v-91zM111 331l50 -25l47 85l-21 -409h119l-5 574l62 110l-122 52z" />
    <glyph glyph-name="uni503C" unicode="&#x503c;" 
d="M889 608v56h-204l7 44h-137l7 -44h-199v-105l212 20l7 -47h-178v-441l-46 4v-99h531v57l-42 3l1 476h-185l9 56zM110 331l48 -25l50 88l-22 -412h118l-4 575l62 109l-118 52zM503 334l253 32l-6 -59h-244zM765 447l-3 -29h-266l-4 49zM513 223l232 28l-7 -60h-223z
M522 110l211 26l-7 -70l-201 16z" />
    <glyph glyph-name="uni503E" unicode="&#x503e;" 
d="M524 690v-109l138 21l-7 -68h-121l-2 -340h62l41 274l166 -22l-30 -238l-22 37l6 168l-97 2l-5 -179l-135 -226l36 -28l149 159l150 -159l35 28l-108 184h93l3 340h-146l47 86l108 17v53h-361zM111 331l50 -25l47 85l-21 -409h119l-5 574l62 110l-120 52zM521 449v62h-61
l-3 193h-84l-24 -717l201 148l-24 51l-60 -23l-5 261z" />
    <glyph glyph-name="uni5043" unicode="&#x5043;" 
d="M513 586v-217h73l-12 -35h-77v-84l49 4l-21 -62l67 -22l-99 -46l17 -40l170 58l179 -58l18 40l-103 50l63 21l-2 85l43 4v50h-191l13 21l-49 14h212v217h-350zM367 690l-9 -690h529v49l-417 35l-22 520l439 36v50h-520zM112 331l50 -25l47 85l-21 -409h119l-5 574l62 110
l-118 52zM786 519l-4 -16h-177l-6 31zM688 216l-55 27l12 20l92 8l-1 -33zM617 436l154 19l-6 -26l-145 -13z" />
    <glyph glyph-name="uni5046" unicode="&#x5046;" 
d="M887 248l-152 131l131 11v51h-199l1 48l177 17v51h-176l1 47l186 16v51h-185l1 36h-116v-36h-178v-93l179 16l1 -37h-168v-94l168 16l1 -38h-190v-93l108 9l-129 -109l25 -39l22 12v-229h445v231l21 -11zM112 331l48 -25l50 88l-22 -412h118l-4 575l62 109l-116 52z
M759 208l-7 -33h-262l-9 54zM502 94l240 30l-11 -50l-221 -28zM616 344l106 -57h-209z" />
    <glyph glyph-name="uni5047" unicode="&#x5047;" 
d="M114 331l49 -25l43 79l-21 -403h115l-5 567l60 109v-676h71l10 140l168 35v56h-162l4 60l158 33v48l138 -22l-28 -72l-44 66l-82 -70l84 -89l-91 -158l41 -27l109 123l117 -123l37 27l-105 154l79 170v84h-257v-55h-149l4 64h166v264h-268v-23l-117 51zM643 508v-64h216
v246h-216v-66l126 -22l-16 -78zM470 615l72 -10l-17 -97l-63 -10z" />
    <glyph glyph-name="uni5048" unicode="&#x5048;" 
d="M411 688v-289h35l-65 -148l35 -26l-10 -194h211v-39h263v379h-323l13 13l-34 15h329v289h-454zM119 336l51 -30l55 91l-19 -415h119l-6 569l68 112l-122 55zM496 266h-38l44 47l115 -10l-100 -159l36 -28l64 55l113 -61l24 33l-75 82l45 39l-41 34l117 -9l-35 -218
l-77 -17v27l-178 30zM786 609l-6 -32h-275l-10 52zM519 496l252 30l-9 -49l-236 -18z" />
    <glyph glyph-name="uni5049" unicode="&#x5049;" 
d="M393 457v-174h243l3 -32h-265v-96l40 3l-21 -123l260 25l6 -78h63l8 86l157 15v48h-150l5 55l131 12v53h-124l3 27h116v179h-475zM112 336l51 -30l55 89l-21 -413h123l-10 563l70 114l-121 59zM887 505v54h-37v110h-249l6 32h-131l6 -32h-79v-63l91 -4l8 -43h-128v-91z
M783 382l-9 -26l-273 -19l-16 65zM587 598l162 -8l-9 -31h-160zM527 168l117 10l4 -47h-140z" />
    <glyph glyph-name="uni504C" unicode="&#x504c;" 
d="M382 420v-108l69 7l-96 -119l33 -38l44 39v-204h432v281h-345l61 54l307 32v56h-208l46 40l-123 46l-70 -86h-150zM112 334l49 -28l53 85l-21 -409h131l-10 567h-3l69 110l-121 59zM568 484l11 72l112 12l14 -84h59l16 94l107 12v57h-95l11 64h-136l10 -64h-85l10 64
h-135l10 -64h-95v-112l112 12l11 -63h63zM780 190l-31 -103l-196 -31l-33 159z" />
    <glyph glyph-name="uni504D" unicode="&#x504d;" 
d="M394 683v-301h454v301h-454zM676 86l6 47l176 37v53h-164l7 58l167 15v55h-498v-101l73 7l-79 -252l46 -23l49 72l171 -45l248 -27l10 49l-221 55h9zM111 336l52 -30l53 87l-20 -411h123l-9 565l69 112l-121 59zM770 600l-7 -31h-275l-11 54zM505 484l247 28l-10 -50
l-229 -20zM569 216l-90 44l110 10l17 -161l-85 37z" />
    <glyph glyph-name="uni504E" unicode="&#x504e;" 
d="M391 690v-333h464v333h-464zM373 326v-105l46 4l-17 -233l247 62l-4 53l-118 -11l-14 138l54 5l112 -130l176 -127l32 41l-92 93l90 54l-67 85l-69 -93v1l-54 88l179 17v58h-501zM112 336l51 -30l53 87l-19 -411h122l-9 564l70 113l-123 59zM474 629l99 -9l7 -59h-97z
M673 492l86 11l-11 -63l-81 -7zM497 468l92 12l6 -53l-91 -7zM777 603l-8 -42h-88l5 50z" />
    <glyph glyph-name="uni504F" unicode="&#x504f;" 
d="M558 -13l15 181l37 5l5 -155h48l8 164l30 4l4 -168h18v-31h154v453h-376v-453h57zM547 704l28 -42h-183v-675h64l41 485h380v190h-178l8 56zM122 334l51 -28l54 87l-20 -411h123l-9 563l69 111l-121 62zM791 581l-14 -34l-275 -18l6 71zM764 194l30 4l-14 -150l-26 -6z
M809 358l-9 -101h-32l7 104zM591 381l12 -1l4 -123h-27zM681 371l16 -1l3 -113h-25z" />
    <glyph glyph-name="uni5050" unicode="&#x5050;" 
d="M457 534l71 -54h-139v-498h70l49 404l287 33l-282 -137l19 -50l323 108l-28 83l54 6v51h-126l73 54l-115 52l-59 -106h-23l-55 99l305 30v54h-177l7 55l-169 -14l33 -41h-194v-103l171 17zM112 336l51 -30l55 90l-21 -414h121l-8 564l70 114l-121 58zM887 90l-33 88
l-341 -146l18 -50zM866 212l-32 93l-321 -151l21 -51z" />
    <glyph glyph-name="uni5055" unicode="&#x5055;" 
d="M656 708l-14 -307l-98 7l8 -58h-146v-357h460v357h-202l23 46h189v93l-116 -18l-8 78l128 30l-29 101l-105 -59l-8 87h-82zM119 336l51 -30l54 87l-20 -411h123l-10 561l70 113l-123 62zM622 592v54h-128l-7 62h-80l-14 -322l235 67l-9 55l-107 -9l-8 62zM779 265l-8 -54
h-267l-12 79zM518 120l244 34l-12 -80l-221 -22z" />
    <glyph glyph-name="uni5056" unicode="&#x5056;" 
d="M391 674v-113l153 17l10 -88h-172v-109l103 10l-120 -95l30 -48l29 18l1 -274h442l1 373h-285l67 41l239 23v61h-104l69 43l-50 75l75 9v57h-215l5 44h-140l5 -44h-143zM110 338l52 -32l54 88l-20 -412h122l-9 563l69 113l-123 60zM780 280l-9 -56h-243l-11 77zM541 128
l221 30l-13 -83l-198 -23zM755 603l-110 -87l9 75z" />
    <glyph glyph-name="uni505A" unicode="&#x505a;" 
d="M347 388v-392h265v392h-90l9 123l87 15v61h-81l10 117h-126l11 -117h-92v-109l101 17l11 -107h-105zM111 333l50 -27l45 82l-20 -406h113v574l61 111l-121 51zM720 443l-98 -52l89 -168l-93 -218l45 -23l96 151l80 -151l49 23l-81 209l68 253l-106 23l-23 -115zM878 534
v63h-127l38 74l-118 43l-68 -282l52 -22l45 88zM430 316l101 -10l-23 -228l-51 -11z" />
    <glyph glyph-name="uni505C" unicode="&#x505c;" 
d="M112 338l49 -32l58 95l-20 -419h120l-7 567h-1l66 106v-87l510 42v54h-192l14 54l-151 -7l32 -47h-213v-3l-120 57zM387 219h27v-83l224 25l-12 -98l-155 -24v-52h271l-10 184l117 13v30h29v143h-491v-138zM413 555v-171h439v171h-439zM792 301l-15 -62h-308l13 37z
M768 481l-10 -26l-236 -14l-14 55z" />
    <glyph glyph-name="uni5063" unicode="&#x5063;" 
d="M396 332v-343h465v343h-465zM830 520l-116 57l-74 -126h-10l-72 122l321 32v54h-183l9 56l-167 -14l33 -42h-193v-103l169 16l-107 -52l90 -69h-162v-102l521 48v54h-150zM110 336l50 -30l56 91l-20 -415h122l-9 566l69 112l-121 58zM782 245l-9 -47h-277l-12 75z
M511 109l253 33l-13 -70l-230 -27z" />
    <glyph glyph-name="uni5065" unicode="&#x5065;" 
d="M115 331l51 -25l40 73l-20 -397h117l-2 571l53 97v-34l44 -12l-65 -254l68 -11l-59 -342h542v50l-416 36l29 344h-48l44 263h-139v-17l-111 45zM524 565v-92l111 12l2 -44l-113 -12v-53h115l2 -32h-117v-95l120 15l2 -38h-122v-95l125 15l3 -64h61l3 72l147 18v54h-144
l2 47l142 18v53h-139l1 32h138v133l14 2v54h-14v115h-125l2 33h-115l1 -33h-102v-59l105 -10l2 -46h-107zM730 495l47 5l-6 -45l-43 -5zM735 602l53 -5l-4 -32h-51z" />
    <glyph glyph-name="uni506C" unicode="&#x506c;" 
d="M505 318l35 -33l98 91l71 -25l18 43l-43 24l83 78l-73 70l-81 -107l-36 21l66 69l-53 43l199 -19l-39 -222l-105 -19v-47h224v380h-329l19 22l-133 31l-85 -210l43 -30l104 125l54 -6l-47 -70l-42 25l-43 -94l30 -11l-88 -129l40 -33l127 133l49 -17zM111 333l51 -27
l38 70l-18 -394h119l-8 562l67 121l-125 53zM501 -8h251v81l-133 -18l-29 206h-75zM345 14l47 -18l120 242l-109 37zM841 -8l47 15l-41 269l-106 -33zM689 86l41 11l-12 166l-102 -29z" />
    <glyph glyph-name="uni5072" unicode="&#x5072;" 
d="M390 691v-371h475v371h-475zM107 336l49 -30l54 86l-20 -410h123l-10 560l71 114l-119 62zM515 -9h253v83l-132 -16l-25 234h-79zM363 7l49 -14l108 280l-115 28zM843 -9l49 12l-38 301l-107 -27zM709 91l42 12l-21 189l-102 -32zM474 632l103 -10l8 -80h-100zM674 472
l95 11l-11 -84l-91 -8zM496 452l96 11l7 -78l-93 -9zM785 602l-8 -60h-97l7 69z" />
    <glyph glyph-name="uni5074" unicode="&#x5074;" 
d="M366 691v-23l-117 50l-130 -387l50 -25l38 69l-19 -393h119l-6 564l65 117v-470h36l-60 -187l39 -24l122 163l-86 48h171l-85 -48l118 -163l43 24l-61 187h39v498h-276zM796 704l-23 -638l-85 -22v-51h192l-10 711h-74zM739 139l27 523h-99l16 -523h56zM443 626l126 -19
l-6 -57h-113zM457 467l100 20l-7 -77h-88zM469 329l75 15l-7 -76l-62 -10z" />
    <glyph glyph-name="uni5075" unicode="&#x5075;" 
d="M387 560v-402h102l-138 -137l25 -39l216 105l-47 71h148l-47 -71l210 -105l31 39l-135 137h103l1 402h-247l6 28l258 36v52h-240l7 33h-139l18 -149h-132zM112 336l52 -30l49 83l-19 -406h124l-7 571l65 109l-124 55zM774 480l-5 -31h-287l-6 53zM492 369l270 24l-8 -56
h-258zM506 259l240 21l-6 -45l-229 -18z" />
    <glyph glyph-name="uni5076" unicode="&#x5076;" 
d="M392 680v-316h189l1 -28h-199v-349h66l43 287l93 -6l4 -90h-81v-99l200 35l18 -49l37 8l-13 174l-83 -20l18 -49h-34l7 86l136 -9l-26 -199l-97 -17v-52h205l1 349h-214l2 28h192v316h-465zM122 334l52 -28l53 88l-19 -412h122l-9 566l66 108l-118 62zM476 625l94 -8
l3 -64h-86zM777 599l-9 -46h-88l4 54zM675 487l83 9l-10 -55l-77 -7zM500 467l76 9l2 -50l-71 -7z" />
    <glyph glyph-name="uni5077" unicode="&#x5077;" 
d="M439 -10l14 116l87 17l-7 -78l-49 -11v-44h152v434h-257v-434h60zM112 334l48 -28l53 86l-19 -410h123l-10 561l73 117l-125 58zM343 539l21 -48l56 22v-80l390 47v31l56 -18l21 48l-168 94l49 20l-166 60zM755 53l-80 -14v-49h181l-7 453h-71zM658 401l15 -317h50
l20 317h-85zM588 582l159 -51h-284zM561 346l-5 -51h-79l7 62zM468 222l83 15l-5 -54h-83z" />
    <glyph glyph-name="uni507B" unicode="&#x507b;" 
d="M408 633l117 -48h-147v-104l119 11l-124 -114l30 -41l190 115l9 -99l-106 23l-19 -59h-107v-105l76 6l-28 -88l89 -29l-144 -68l20 -51l236 82l254 -82l20 47l-159 76l94 33l-1 113l66 6v60h-288l12 23h52l8 109l186 -112l30 36l-151 141l143 14v57h-143l121 48l-56 85
l-96 -99l24 -34h-48l10 133h-128l12 -133h-50l25 34l-87 99zM106 338l51 -32l54 89l-20 -413h123l-9 566l69 112l-121 58zM626 156l-82 40l16 32l156 14l-1 -44z" />
    <glyph glyph-name="uni507E" unicode="&#x507e;" 
d="M108 334l51 -28l54 90l-20 -414h123l-9 571l65 107l-125 58zM471 150l39 156l259 -19l-35 -137h123v222h-460v-222h74zM366 422l100 8l7 -40h70l9 47l148 12l12 -59h69l11 66l94 8v56h-82l8 46h-135l9 -46h-118l9 46h-135l8 -46h-84v-98zM362 27l22 -45l243 103l240 -103
l24 44l-206 144v101l-117 3v-111zM385 581l200 18l9 -39h74l10 48l190 18v53h-174l8 34h-142l7 -34h-182v-98z" />
    <glyph glyph-name="uni507F" unicode="&#x507f;" 
d="M375 565v-153h65v-89l376 46v43h64v153h-102l88 79l-112 54l-55 -133h-31l29 133h-134l28 -133h-30l-56 133l-107 -54l87 -79h-110zM375 296v-107l87 8l-75 -188l399 48l61 -75l42 24l-81 226l72 7v57h-505zM110 338l51 -32l53 90l-19 -414h119l-6 576l62 106l-121 54z
M470 472l321 32l-21 -75h-313zM606 212l192 19l-103 -60l44 -55h-204z" />
    <glyph glyph-name="uni5080" unicode="&#x5080;" 
d="M515 718l1 -53h-132v-350h136l-140 -306l47 -27l135 229l-22 -215h347v134l-27 4l-12 118l-67 -16l21 41l-95 23l-46 -177l-11 165h-43l16 27h238v350h-223l28 43zM112 337l51 -31l53 87l-19 -411h123l-10 564l70 114l-125 58zM471 598l121 -8l-14 -65h-97zM664 82l-1 11
l145 33l13 -33l-13 -35zM671 451l93 11l-11 -62l-100 -8zM784 577l-9 -52h-82l16 57zM494 429l66 8l-11 -54l-48 -4zM772 217l17 -42h-38z" />
    <glyph glyph-name="uni5085" unicode="&#x5085;" 
d="M873 606v50h-41l5 59l-108 -14l27 -45h-59l4 54h-124l3 -54h-182v-87l187 14l1 -26h-179v-304h71l6 33l119 11l3 -44h67l3 51l82 7l-8 -52h-7l-3 -26h-347v-93l110 9l-40 -43l131 -81l30 30l-60 100l169 14l-13 -114l-98 -19v-49h211l-7 190l52 5v51h-54l-1 20h40v304
h-172l2 35zM121 341l52 -35l53 90l-19 -414h122l-9 571l66 111l-122 54zM682 400l90 7l-7 -45h-86zM522 499l68 -4l3 -37h-79zM784 482l-4 -24h-95l2 30zM501 384l96 8l2 -30h-102z" />
    <glyph glyph-name="uni5088" unicode="&#x5088;" 
d="M374 695v-35l-120 58l-146 -381l55 -31l49 82l-19 -406h122l-9 563l68 113v-62l136 10l5 -41h-128v-230h187l3 -37h-203v-98l123 9l-127 -182l36 -34l179 161l11 -172h66l15 171l178 -160l36 34l-141 202l137 11v58h-198l3 37h182v230h-128l5 60l136 11v59h-513zM607 493
l49 -3l8 -80l-65 -5zM474 503l48 -4l12 -98l-41 -3zM793 481l-18 -64l-44 -3l7 70zM617 615l26 2l5 -52h-35z" />
    <glyph glyph-name="uni508D" unicode="&#x508d;" 
d="M580 50v-54h276v214h-247l31 41l245 20v54h-207l6 70l-145 -19l37 -51h-199v-96l118 10l-104 -231l46 -26l123 162l206 -17l-19 -54zM114 337l51 -31l54 86l-20 -410h123l-10 561l70 113l-121 62zM386 486v-139h80l24 56l294 23l-28 -79h120v139h-123l60 42l-125 33
l-41 -75h-18l-52 75l-125 -33l64 -42h-130zM537 704l41 -51h-196v-101l498 43v58h-183l6 65z" />
    <glyph glyph-name="uni5095" unicode="&#x5095;" 
d="M115 337l51 -31l49 80l-19 -404h123l-10 558l69 112v-143h72l24 61l61 4l-12 -29l-164 -196l40 -44l38 34l-18 -345h118l-1 22h348v49l-153 13l6 61l133 14v49h-127l6 66l121 14v49h-115l6 66l109 11v54h-116l7 47h113v151h-157l17 27l-140 26l-23 -53h-188l-125 58z
M670 583l114 8l-21 -60l-134 -16zM529 243l125 14l4 -55h-128zM525 372l119 13l4 -54h-122zM533 117l130 14l4 -47l-134 12v21zM626 511l32 -49h-86z" />
    <glyph glyph-name="uni5096" unicode="&#x5096;" 
d="M538 547l25 -41h-184l-7 -524h65l30 244h371v280h-171l12 55zM106 333l51 -27l54 89l-20 -413h119l-5 568l69 114l-121 54zM485 195v-203h352v203h-352zM323 555l16 -44l253 89l281 -103l20 43l-174 105l58 21l-177 52zM478 319l268 29l-9 -48l-264 -20zM754 115l-15 -44
l-149 -23l-19 86zM761 428l-6 -28h-267l6 49z" />
    <glyph glyph-name="uni5098" unicode="&#x5098;" 
d="M555 370l31 -35l96 68l118 -80l30 29l-73 105l32 23l77 -28l19 47l-273 145l56 21l-178 52l-377 -208l20 -47l182 69l-146 -164l28 -32l100 67l118 -79l30 29l-72 101l42 28l-62 64l127 48l205 -75zM530 -17l6 111l309 23v56h-304l22 362h-124l15 -362h-300v-108l303 23
l5 -105h68zM582 206l32 -27l64 58l107 -63l25 29l-70 89l29 27l-85 60zM196 206l33 -27l64 58l106 -63l25 29l-70 89l29 27l-84 60z" />
    <glyph glyph-name="uni5099" unicode="&#x5099;" 
d="M882 493v48h-108l11 73l83 9v49h-74l6 41h-128l6 -41h-63l6 41h-128l6 -41h-94v-100l107 12l6 -43h-127v-100l69 7l-106 -124l31 -38l20 14v-313h67l13 101l121 13l6 -94h56v-20h205l-1 437h-289l30 21l-18 17zM117 333l51 -27l54 89l-20 -413h123l-10 564l70 114
l-121 58zM678 109l89 10l-7 -65l-89 -17zM690 233l92 11l-8 -68h-90zM605 594l84 9l10 -62h-101zM521 366l69 -6l4 -59h-81zM794 343l-5 -42h-93l5 50zM501 212l98 11l3 -47h-105z" />
    <glyph glyph-name="uni509A" unicode="&#x509a;" 
d="M725 466l-90 -45l87 -186l-75 -217l-110 230l49 83l33 -63l37 18l-65 274l-103 -40v-1l-94 32l240 42v61h-86l4 64l-140 -14l26 -50h-99v-112l53 9l-65 -277l38 -19l29 56l43 -67l-106 -237l46 -25l110 184l119 -184l35 19l48 -19l78 157l74 -157l49 23l-80 221l2 3
l69 264l-102 25l-25 -134zM109 329l51 -23l34 68l-18 -392h117l-9 571l61 121l-116 44zM881 557v59h-118l36 64l-119 38l-59 -249l47 -22l37 66zM453 424l43 81l32 -61l-41 -90z" />
    <glyph glyph-name="uni509D" unicode="&#x509d;" 
d="M390 686v-30l-120 62l-147 -385l51 -27l54 88l-20 -412h123l-10 561l69 111v-239h477v271h-477zM632 277l81 -75l29 18l-33 101l83 -11l-8 -73l-157 -134l47 -51l100 94l-11 -95l-72 -16v-43h185v396h-230v-59l51 -7zM376 277l82 -75l29 18l-34 101l86 -11l-7 -70
l-160 -137l47 -51l103 98l-11 -98l-76 -17v-43h186l-1 396h-230v-59l51 -7zM785 613l-6 -27h-295l-8 48zM499 503l268 30l-10 -48l-251 -19z" />
    <glyph glyph-name="uni50A3" unicode="&#x50a3;" 
d="M893 258l-154 126l133 11v55h-200l1 45l178 17v55h-177l1 43l188 17v55h-187l1 36h-113v-36h-179v-97l180 16l1 -34h-170v-97l170 15l1 -35h-191v-97l105 9l-127 -104l25 -38l36 20l-18 -70l148 -14l13 45l-120 52l184 102l187 -102l-119 -52l12 -45l149 14l-19 71
l35 -19zM106 337l47 -31l58 93l-20 -417h119l-6 566l70 112l-121 58zM479 36v-49h203l-17 313h-79l-19 -244zM391 15l164 83l-17 46l-179 -46zM889 98l-179 46l-17 -46l164 -83z" />
    <glyph glyph-name="uni50A5" unicode="&#x50a5;" 
d="M880 410v157h-111l93 96l-107 50l-59 -146h-27l31 146h-135l27 -146h-28l-55 146l-111 -50l91 -96h-109v-157h28v-177h90l-130 -216l38 -35l205 201l-62 50h96l-20 -241h265v166l-51 6l-35 -106l-56 14l-15 161h119v177h28zM109 337l52 -31l53 87l-20 -411h123l-9 562
l69 112l-125 62zM468 436l12 40l316 32l-22 -72h-306zM768 357l-18 -47l-228 -19l-21 85z" />
    <glyph glyph-name="uni50A7" unicode="&#x50a7;" 
d="M834 448v56h41v148h-184l8 66l-160 -15l37 -51h-197v-148h34v-266h-44v-102l123 10l-134 -120l29 -44l211 109l-39 61l139 12l-48 -73l212 -109l29 40l-151 145l145 13v58h-121l13 82l78 9v53h-330l12 62zM108 337l52 -31l54 87l-20 -411h122l-9 562l69 112l-125 62z
M488 565l293 26l-20 -62l-296 -21zM507 288l165 19l14 -69h-188z" />
    <glyph glyph-name="uni50A8" unicode="&#x50a8;" 
d="M532 669v-108l100 15l8 -91h-114v-108l78 11l-95 -105l31 -35l16 13v-269h318v373h-197l47 40l165 24v56h-72l56 47l-67 70l76 11v56h-148l5 49h-120l4 -49h-91zM110 332l55 -26l38 69l-18 -393h122l-9 566l54 99l103 -126l41 21l-47 176l-90 -51l-117 51zM544 143
l-22 61l-45 -31v327h-142v-70l57 -17l-34 -431zM799 281l-9 -62h-146l-10 82zM655 129l126 24l-11 -82l-106 -17zM797 600l-79 -87l8 77z" />
    <glyph glyph-name="uni50A9" unicode="&#x50a9;" 
d="M888 19v58l-80 13l5 99l70 14v58h-67l5 97l62 13v57h-59l5 101l52 12v53h-59v120l-109 -25l-99 29l-90 -398l44 -16l22 58l-8 -380h96l-1 37h211zM303 497l97 -197l-94 -298l49 -19l100 205l67 -136l49 22l-80 219l55 292v100h-222v-67l120 -29l-18 -119l-27 76zM111 327
l51 -21l28 67l-18 -391h114l-10 600l42 101l-116 35zM672 328l65 13l4 -80h-68zM669 495l59 13l4 -80h-62zM675 160l70 15l4 -76l-73 12zM715 684l47 -90h-82z" />
    <glyph glyph-name="uni50AC" unicode="&#x50ac;" 
d="M878 158v49h-139l5 56l134 13v49h-129l5 55l124 12v50h-136l7 91l-131 -24l42 -67h-123l40 45l-90 49h386v168h-67l-26 -84l-93 -8l21 96h-129l24 -103l-94 -8l-32 107h-76l-1 -168h59l-105 -221l40 -35l31 35l-18 -323h120l-1 29h361v49l-159 16l5 58zM112 337l47 -31
l57 92l-19 -416h119l-6 566l70 112l-114 58zM520 242l126 12l4 -47h-129zM517 358l118 11l4 -44h-121zM523 124l134 13l4 -44l-137 14z" />
    <glyph glyph-name="uni50AD" unicode="&#x50ad;" 
d="M867 317v111l20 2v41h-20v88h-137l1 20h-111v-20h-139v-49l141 -7l1 -32h-142v-79l145 13l1 -32l-146 -6v-50h148l1 -25h-149l2 -307h59l11 72l86 8l3 -80h52l5 86l74 8l-7 -45l-44 -10v-39h143l2 307h-154l2 25h152zM547 702l26 -37h-217l1 1l-124 52l-121 -386l55 -26
l39 75l-19 -399h118l-9 567h-1l60 113v-677h69l44 599l419 31v50h-197l12 51zM705 155l80 7l-5 -37h-77zM721 414l59 6l-8 -41l-54 -2zM726 498l70 -3l-5 -24h-67zM795 226l-3 -18h-84l1 22zM567 143l68 6l1 -24h-72zM582 236l50 -2l1 -26h-55z" />
    <glyph glyph-name="uni50B2" unicode="&#x50b2;" 
d="M380 -18l79 239l71 -10l-25 -154l-65 -13v-52h175v296h-134l16 49l-93 20l214 32v50h-100l5 45l85 14v50h-78l5 45l78 13v49h-72l6 53h-127l6 -53h-81v-91l89 14l4 -30h-88v-91l96 15l4 -33h-110v-91l43 6l-53 -362zM112 328l45 -22l38 73l-20 -397h110l-4 565l63 123
l-121 48zM713 436l-94 -46l87 -164l-76 -225l50 -19l76 151l81 -151l50 24l-87 215l4 8l65 266l-104 22l-26 -147zM878 551v59h-118l36 68l-115 40l-63 -268l47 -19l46 87z" />
    <glyph glyph-name="uni50B3" unicode="&#x50b3;" 
d="M368 689v-86l211 16l2 -26h-201v-238h215l2 -28h-239v-87l450 34l51 -45l34 29l-49 97h27v238h-192l2 33l202 16v47h-198l2 29h-114l2 -29h-207zM106 337l52 -31l51 88l-22 -412h119l-5 569l66 113l-121 54zM358 218v-90l132 10l-41 -37l118 -87l40 33l-51 96l175 14
l-10 -103l-114 -17v-50h223l-10 177l73 6v48h-76l-1 29h-76l-3 -29h-379zM464 539l120 -6l2 -31h-115zM670 444l108 9l-8 -33l-102 -4zM796 524l-6 -21l-117 -1l2 27zM483 427l107 10l2 -25l-105 -4zM664 355h90l-19 -15l14 -13h-86z" />
    <glyph glyph-name="uni50B4" unicode="&#x50b4;" 
d="M887 -4v52l-392 28l-31 528l423 30v53h-506v-691h506zM112 337l51 -31l52 85l-23 -409h123l-5 564l70 114l-121 58zM530 570v-175h336v175h-336zM708 371v-255h167v255h-167zM521 371v-255h166v255h-166zM793 498l-16 -36v4l-146 -19l-24 72zM817 300l-14 -123l-18 -4
l-13 139zM629 300l-16 -124l-15 -3l-13 139z" />
    <glyph glyph-name="uni50B5" unicode="&#x50b5;" 
d="M379 403v-288l83 -1h39l-159 -88l15 -44l234 70l-23 62h101l-29 -62l226 -70l22 41l-148 91h114v289h-475zM377 682v-79l189 12l3 -25h-179v-83l186 13l3 -24h-221v-80l514 31v49h-215l4 30l179 12v52h-172l3 31l182 12v49h-175l4 31h-127l3 -31h-181zM111 333l51 -27
l53 91l-24 -415h123l-5 567h-5l67 115l-121 54zM461 356l316 -16l-3 -14h-308zM477 262l290 19l-5 -32h-283zM489 185l266 19l-4 -25l-258 -17z" />
    <glyph glyph-name="uni50B7" unicode="&#x50b7;" 
d="M441 718l-83 -201l37 -29l18 19v-161h447v225h-387l18 19l397 37v51h-314l16 17zM376 323v-92l55 5l-62 -115l36 -29l82 80l35 -2l-135 -154l32 -34l225 181l27 -2l-128 -145l32 -34l216 170l-23 -98l-93 -21v-46h204v245h-330l17 16l322 29v46h-512zM111 337l52 -31
l56 92l-24 -416h123l-5 570l66 108l-117 58zM788 509l-5 -20l-284 -1l-6 35zM512 416l259 26l-8 -35l-247 -14z" />
    <glyph glyph-name="uni50BA" unicode="&#x50ba;" 
d="M434 708l-91 -228l39 -28l16 19l57 -38l-104 -105l27 -37l18 12v-88l192 19l-17 -185l-70 -19v-43h197l-19 256l185 19v38l23 18l-87 151l78 128v86h-173v-48l-45 78l-103 -38h-47zM112 335l51 -29l53 86l-24 -410h123l-5 564l70 114l-123 58zM887 10l-81 215l-99 -64
l142 -174zM411 -13l149 170l-96 63l-89 -212zM767 374v16l59 -76h-414l95 62v-44zM737 429h-166l77 115zM781 611l-24 -67l-50 86zM450 536l54 -35l-18 -35l-45 58zM553 591l-24 -44l-35 44l9 11z" />
    <glyph glyph-name="uni50BB" unicode="&#x50bb;" 
d="M522 718v-46h-136v-283h136l-150 -77l18 -46l76 19l-95 -163l36 -32l40 38l87 -31l-161 -67l14 -48l262 75l215 -75l23 44l-164 79l125 92v72l16 -3l18 43l-149 80h135v283h-225l29 36zM112 337l52 -31l52 86l-23 -410h123l-3 568l67 110l-121 58zM606 320l-21 69h82
l-24 -73l185 -42h-240l-44 30zM530 448l-31 -2l-34 172l90 -5l-35 -61l49 -25l-60 -45zM747 480l-59 47l50 25l-28 51l81 -5l-31 -134l-25 -2zM690 201l-62 -50l-103 50l18 16zM530 448l98 49l73 -37zM674 605l-44 -33l-49 39z" />
    <glyph glyph-name="uni50BE" unicode="&#x50be;" 
d="M874 643v56h-338v-102l123 17l-1 -53h-112v-393h61l-84 -159l37 -27l145 137l-60 49h119l-59 -49l143 -137l39 29l-84 157h62v393h-134l35 67zM112 333l50 -27l45 84l-21 -408h118l-6 575l60 111l-118 50zM522 451v60h-63l-3 193h-82l-24 -717l197 148l-24 51l-58 -30
l-5 270zM793 484l-5 -35l-160 1l-6 52zM636 372l146 27l-8 -57h-134zM648 269l120 20l-6 -46l-109 -20z" />
    <glyph glyph-name="uni50C2" unicode="&#x50c2;" 
d="M396 689v-80h-30v-90l30 2v-63h192l1 -19h-193v-143h75l-10 -27h-95v-93l64 5l-24 -70l97 -27l-145 -57l14 -45l244 71l257 -71l14 45l-152 60l91 27l-1 99l62 5v51h-295l17 27h247v143h-185l1 19h184v99l31 3v45h-31v84h-163l3 29h-131l2 -29h-171zM112 339l53 -33
l50 82l-23 -406h121l-3 560l70 114l-122 62zM624 131l-97 39l13 20l170 14l-1 -39zM489 390l105 -5l3 -35l-92 -5zM480 640l92 -5l2 -28l-88 1zM773 376l-10 -18l-100 -5l3 28zM680 544l81 6l-5 -25l-78 -5zM777 625l-4 -19h-87l2 23zM503 530l78 6l2 -22l-76 -5z" />
    <glyph glyph-name="uni50C5" unicode="&#x50c5;" 
d="M803 515l15 107l73 7v51h-65l4 28h-131l5 -28h-140l5 28h-131l4 -28h-67v-96l79 7l10 -76h115l1 -25h-191v-175h199l1 -23h-200v-89l204 17l1 -29h-193v-89l197 17l2 -43l-220 16v-89h506v52l-216 16l3 55l191 17v48h-187l2 36l198 17v48h-195l1 23h194v175h-185l2 25
h109zM108 333l50 -27l55 90l-24 -414h120l-4 565l69 113l-127 58zM478 437l105 -8l2 -52l-88 -5zM552 599l163 14l5 -29l-172 -15zM793 414l-12 -26l-94 -5l2 38z" />
    <glyph glyph-name="uni50C9" unicode="&#x50c9;" 
d="M124 535l17 -53l127 40v-93l469 47v46l117 -36l21 49l-226 108l63 20l-210 55zM512 415v-198h83l-116 -206l38 -28l126 133l173 -134l34 32l-128 184l18 19h86v198h-314zM171 415v-198h93l-117 -204l39 -30l124 131l147 -90l34 38l-111 127l27 28h78v198h-314zM501 596
l218 -68h-434zM401 339l-17 -46l-101 -15l-25 80zM740 339l-12 -43l-110 -17l-19 78z" />
    <glyph glyph-name="uni50CF" unicode="&#x50cf;" 
d="M358 535l26 -31v-131h71l-99 -94l30 -41l69 50l75 -9l-172 -100l17 -46l274 117l-3 -23l-288 -175l23 -42l251 113l-9 -69l-114 -24v-45h227l-6 180l23 17l95 -186l39 16l-53 231l49 36l-69 76l-86 -109l-3 97h-194l42 30h301v187h-87l83 114h-262l-116 42zM112 333
l51 -27l53 87l-24 -411h121l-5 564l70 116l-121 56zM701 597l-38 -37h-191l73 54zM489 428l-19 79l119 -8l-74 -69zM792 486l-14 -40l-114 -7l69 51z" />
    <glyph glyph-name="uni50D1" unicode="&#x50d1;" 
d="M371 508l90 7l-99 -68l17 -37l28 13v-83h439v79l21 -9l22 37l-130 93l120 10v48h-199v28h190v75l-489 -16v-59h189v-28h-199v-90zM110 333l52 -27l51 88l-22 -412h119l-1 576l62 106l-121 54zM439 -16l49 283l307 -19l-26 -198l-125 -20v-46h235v336h-508l3 -336h65z
M510 230v-164h229v164h-229zM757 420l-6 -15l-237 -21l-20 57zM668 165l-13 -40l-54 -8l-14 60zM617 523l80 -36h-157z" />
    <glyph glyph-name="uni50D5" unicode="&#x50d5;" 
d="M384 327l194 16v-30h-187v-85l186 15l-1 -30h-196v-85l152 12l-165 -114l22 -43l241 112l229 -113l25 41l-162 133l147 12v45h-184l1 39l171 15v46h-171v38l179 15v46h-116l63 43l-132 17l-33 -60h-26l-36 60l-137 -17l66 -43h-130v-85zM115 337l51 -31l48 80l-23 -404
h131l-5 567h-5l67 111l-125 58zM792 702l-39 -124l43 -18h-64l23 150h-112l21 -150h-58l17 150h-112l27 -150h-158v-89l489 39v50h-73l78 96zM386 651l83 -89l44 18l-40 122z" />
    <glyph glyph-name="uni50D6" unicode="&#x50d6;" 
d="M387 486v-168h122l-66 -27l59 -28h-131v-81l519 31v50h-125l56 28l-67 27h121v168h-488zM108 333l48 -27l56 92l-23 -416h123l-5 573l66 109l-125 54zM387 166v-174h488v174h-488zM562 713l5 -25h-191v-86l207 14l7 -29h-209v-85l500 36v49h-206l7 36l204 15v50h-191
l5 25h-138zM785 92l-11 -29l-270 -20l-19 70zM790 412l-10 -24l-277 -18l-17 62zM570 318h124l-49 -55h-25z" />
    <glyph glyph-name="uni50DA" unicode="&#x50da;" 
d="M107 337l51 -31l56 92l-23 -416h119l-1 571l60 99v-75l47 4l-43 -73l53 -19l-70 -66l26 -38l12 8v-190h52l-105 -181l33 -30l169 148l-71 63h98l-17 -151l-74 -16v-49h202l-18 216h106l-74 -63l160 -148l37 29l-96 182h39v184l8 -5l30 33l-70 77l72 33l-64 87l-54 -68
l-57 63l169 15v53h-190l1 38h-126v-38h-185v-13l-119 56zM758 396l-5 -25h-269l-9 44zM499 290l243 29l-9 -43l-228 -15zM617 537l96 -66h-199zM533 591l-51 -48l-39 40z" />
    <glyph glyph-name="uni50DE" unicode="&#x50de;" 
d="M444 -8l26 258l326 -20l-27 -170l-113 -25v-48h220v315h-35l30 107h-42l33 104h-338l33 26l-50 85h116l-55 -28l76 -82l37 16l-21 94h104l-76 -80l22 -30l128 52l-40 58h70v80l-475 -16v-64h89l-58 -57l100 -54h-140v-521h60zM123 337l48 -31l52 84l-23 -408h123l-5 563
l73 119l-121 54zM506 -2l49 142l23 -95l35 6l-2 121l47 -118l30 9l-16 142l-62 -15v19l-63 -7l-49 14l-23 -211zM478 334l280 25l-5 -57h-278zM489 439l260 19l-5 -49h-258zM756 74l-13 151l-66 -16l48 -142z" />
    <glyph glyph-name="uni50E5" unicode="&#x50e5;" 
d="M112 333l48 -27l57 92l-24 -416h122l-4 567l69 111l-125 58zM372 148l123 9l-141 -136l29 -39l232 135l-34 47l70 5l-16 -177h252v87l-132 -20l-12 117l134 11v51h-505v-90zM381 596l193 15l6 -32h-199v-88l487 38v50h-207l7 39l200 16v51h-188l5 28h-130l5 -28h-179v-89
zM381 362l74 14l6 -34h-89v-94l244 35v59h-81l7 51l64 12v50h-54l5 32h-119l5 -32h-62v-93zM643 357l80 17l5 -32h-95v-94l244 40v54h-77l8 50l60 13v50h-50l5 32h-119l5 -32h-66v-98z" />
    <glyph glyph-name="uni50E6" unicode="&#x50e6;" 
d="M651 529v-102l36 7l-38 -445l47 -7l78 434l-17 -422h128v79l-33 -6l-11 359h-65l5 28l95 19v56h-93l3 130l53 -119l36 12l-9 143l-80 -24l1 43l-100 1l1 -186h-37zM340 529v-209h116l-18 -264l-54 -16l61 245l-89 15l-23 -276l43 -8v-22h160l-6 326h103v209h-293z
M113 329l50 -23l40 82l-19 -406h114l-10 577l57 115l-107 44zM421 694l31 -54h-121v-99l311 46v53h-100l9 76zM621 300l-85 -19l74 -218l40 11zM556 447l-14 -47l-100 -20l-19 92z" />
    <glyph glyph-name="uni50E7" unicode="&#x50e7;" 
d="M388 617v-291h489v291h-136l105 76l-147 25l-50 -101h-17l-50 101l-147 -25l106 -76h-153zM395 300v-309h474v309h-474zM122 333l51 -27l48 80l-22 -404h130l-5 578l62 104l-125 54zM466 566l110 -9l23 -171l-97 -7zM804 539l-33 -141l-109 -8l20 158zM785 222l-10 -43
h-278l-12 68zM512 99l251 27l-14 -62l-227 -21zM781 502l-73 35l-26 -107l37 -13zM551 417l31 13l-21 107l-78 -35z" />
    <glyph glyph-name="uni50E8" unicode="&#x50e8;" 
d="M379 420v-317h108l-144 -76l17 -45l240 67l-22 54h79l-21 -54l240 -67l17 45l-144 76h113v317h-483zM106 333l51 -27l53 89l-23 -413h118l-4 566l69 116l-125 54zM355 460l101 7l7 -32h57l8 37l185 12l12 -49h56l10 55l90 6v54h-79l7 36h-119l8 -36h-154l8 36h-123l8 -36
h-82v-90zM374 595l209 17l11 -41h58l10 48l200 17v49h-185l7 33h-128l8 -33h-190v-90zM466 371l310 -18l-3 -19h-302zM481 266l285 19l-6 -37h-276zM493 181l260 18l-4 -29l-251 -20z" />
    <glyph glyph-name="uni50EC" unicode="&#x50ec;" 
d="M873 350v54h-144l5 47l139 14v54h-132l4 46l128 14v53h-139l10 85l-138 -16l44 -69h-111l32 42l-117 43l-111 -261l40 -29l31 41l-17 -270h19l-57 -194l42 -21l115 168l42 -155l47 5l17 173l-110 -5l4 -15l-95 44h91l-1 18h372v49l-166 15l5 55zM108 337l51 -31l49 81
l-23 -405h122l-4 562l73 120l-129 54zM891 -3l-46 205l-99 -46l106 -174zM738 0l-1 177l-106 -21l63 -164zM504 427l139 14l3 -37h-141zM508 313l144 15l4 -42l-147 14zM501 540l132 14l3 -35h-135v21z" />
    <glyph glyph-name="uni50ED" unicode="&#x50ed;" 
d="M391 290v-298h480l-1 298h-479zM110 333l47 -27l56 89l-23 -413h127l-5 572l66 106l-122 58zM383 690v-93l108 17l-12 -74h-26l17 46l-72 8l-17 -141l78 13l-89 -137l35 -33l105 107l-5 -94l144 60l-10 42l-50 -11l-10 56h-20l6 28l64 11v45h-53l17 90l34 6v54h-244z
M643 690v-88l112 18l-15 -80h-27l17 50l-72 8l-18 -145l77 14l-87 -142l30 -29l113 114l-8 -96h124v63l-40 -11l-10 90h-24l8 31l66 13v40h-54l24 96l28 5v49h-244zM790 213l-8 -37h-294l-10 61zM502 94l270 30l-12 -57l-250 -21z" />
    <glyph glyph-name="uni50EE" unicode="&#x50ee;" 
d="M382 455v-245h206l1 -28h-207v-88l211 18l3 -40l-230 17v-89h521v50l-225 17l3 52l206 18v45h-201l2 28h199v245h-489zM112 337l51 -31l48 79l-23 -403h131l-5 567h-2l66 107v-67l161 11l-84 -20l58 -32h-141v-81l509 31v50h-132l61 32l-121 29l-54 -61h-10l-46 55
l296 21v51h-167l1 43l-175 -14l29 -29h-185v-14l-123 57zM463 410l113 -9l2 -37h-106zM679 308l103 9l-10 -38l-96 -7zM486 291l96 9l2 -34l-92 -6zM799 385l-6 -21h-110l2 29z" />
    <glyph glyph-name="uni50F3" unicode="&#x50f3;" 
d="M377 695v-30l-123 53l-143 -385l52 -27l52 86l-23 -410h119l-1 568l67 110v-59l141 11l4 -37h-133v-216h482v216h-127l7 55l132 11v54h-506zM511 345l-107 -49l77 -68h-109v-98l127 11l-127 -109l27 -39l191 101l6 -112h65l9 120l193 -109l25 37l-142 132l142 12v55
l-106 -1l75 68l-102 49l-54 -117h-21l9 111h-112l6 -111h-22zM471 522l57 -5l12 -102l-46 -4zM610 510l51 -4l6 -80l-65 -6zM795 495l-18 -60l-52 -4l9 69zM620 620l32 2l4 -47h-40z" />
    <glyph glyph-name="uni50F5" unicode="&#x50f5;" 
d="M108 333l51 -27l52 84l-23 -408h123l-5 562l66 107v-33l519 26v46h-519v-33l-121 61zM389 293v-202h484v202h-484zM389 602v-202h484v202h-484zM372 77v-77h519v46zM371 379v-72l520 26v46h-520zM475 248l114 -5l5 -26h-113zM478 556l106 -5l6 -25h-105zM677 167l111 6
l-7 -23l-109 -5zM678 476l104 6l-6 -24l-102 -4zM494 158l110 5l4 -20l-110 -5zM497 467l104 5l5 -21l-105 -5zM805 233l-5 -16h-112l4 21zM798 541l-4 -15h-108l4 20z" />
    <glyph glyph-name="uni50F9" unicode="&#x50f9;" 
d="M374 695v-31l-113 54l-147 -385l48 -27l55 88l-23 -412h123l-5 565l62 100v-43l143 12l4 -25h-134v-160h462v160h-125l6 43l132 11v50h-488zM389 407v-298h94l-127 -87l22 -40l207 76l-24 51h121l-26 -51l207 -76l22 40l-125 87h87l1 298h-459zM774 344l-3 -16h-298
l-4 34zM482 261l281 22l-6 -38h-273zM493 179l256 20l-5 -31l-248 -9zM472 536l56 -2l6 -47l-47 -3zM600 531l49 -2l5 -35l-58 -4zM775 524l-11 -24l-52 -3l4 29zM611 624l24 2l5 -35h-33z" />
    <glyph glyph-name="uni50FB" unicode="&#x50fb;" 
d="M368 699v-33l-114 52l-139 -382l50 -30l53 92l-23 -416h118l-5 574l60 105v-679h58l36 469h174v248h-268zM657 380v-106l65 12l2 -58h-67v-107l70 13l6 -152h62l12 167l77 15v64h-71l6 76l65 12v64h-48l46 130l-89 19l-20 -149h-3l-24 149l-90 -24l49 -125h-48zM475 418
v-426h161v426h-161zM701 699l41 -65h-85v-102l227 38v64h-63l4 84zM575 341l-13 -277l-15 -5l-17 293zM560 615l-20 -85l-73 -15l9 117z" />
    <glyph glyph-name="uni50FE" unicode="&#x50fe;" 
d="M106 338l54 -30l45 77l-22 -401h125l-4 568l63 107v-50h89l-49 -33l64 -57h-108v-140h31l-40 -100l37 -24l118 123l-63 43l6 15l349 28l-12 -41l-63 -46l121 -117l36 25l-41 94h41v140h-100l67 49l-52 41h82v88l-513 -24v-9l-122 56zM362 143l29 -34l34 25l109 -38
l-173 -67l12 -45l277 72l222 -76l21 43l-159 75l140 72v76h-299l29 22h150v77l-34 -5l-2 84l-94 -20l40 -72l-46 -6l-29 86h-75v-109l-22 9zM561 577l53 -58h-66l-35 90h112zM662 609h90l-53 -90h-14zM701 180l-63 -37l-102 48z" />
    <glyph glyph-name="uni5100" unicode="&#x5100;" 
d="M639 179l-74 -10l-1 27l106 9l17 -90l-84 -53l21 -44l75 34l13 -70l177 41l-5 44l-104 -10l-3 30l99 45l-38 79l-70 -45l-5 47l109 9v48h-115l-11 111l-106 -14l18 -97h-97l-1 31h51v75l-245 -23v-52h109l-2 -31h-107v-90l104 8l-2 -31l-107 -13l15 -84l89 24l-1 -31
l-90 -19v-43h198l-5 121l78 22zM376 549v-77l208 12l5 -28h-222v-77l513 30v47h-213l5 34l198 12v47h-189l5 32l189 12v48h-115l79 45l-142 26l-52 -71h-32l-49 71l-151 -26l83 -45h-124v-78l196 11l4 -25h-196zM110 336l54 -30l45 80l-22 -404h121l-4 569l65 114l-120 53z
M759 354l58 -81l35 11l-6 96z" />
    <glyph glyph-name="uni5102" unicode="&#x5102;" 
d="M372 678v-16l-122 56l-140 -382l51 -30l53 88l-23 -412h122l-5 569l64 106v-223h488v244h-125l3 32h-106l3 -32h-33l3 32h-107l3 -32h-129zM427 -18l22 169l53 4l-17 -173l208 47l-5 42l-91 -3l-10 94l21 1l118 -111l143 -70l20 31l-86 75l73 32l-39 60l33 3v48h-410
l2 14l408 31v48h-398l2 14l396 25v48h-507v-429h64zM587 523l64 6l4 -36l-71 -4zM449 626l58 -3l3 -34h-54zM732 172l81 6l-48 -50zM723 535l49 5l-10 -41l-43 -2zM469 513l49 4l3 -31l-47 -3zM596 618l46 -2l3 -27h-52zM790 609l-5 -20h-58l2 23z" />
    <glyph glyph-name="uni5104" unicode="&#x5104;" 
d="M393 452v-232h461v232h-461zM109 336l54 -30l48 82l-22 -406h122l-5 567l66 112l-124 57zM374 541v-82l494 33v49h-131l66 39l-126 24l-43 -63h-16l-50 63l-127 -28l64 -35h-131zM543 709l28 -31h-188v-86l476 37v49h-172l10 40zM515 -8h255v82l-140 -24l-41 155h-74
v-213zM356 11l45 -15l107 178l-106 42zM854 -8l36 13l-42 206l-97 -41zM496 298l268 25l-9 -37l-253 -20zM779 387l-5 -21h-290l-7 38zM701 78l34 20l-33 117l-80 -45z" />
    <glyph glyph-name="uni5106" unicode="&#x5106;" 
d="M626 443l45 -13l-45 -23v20h-147l32 26l-61 19l8 71l56 10l12 -96h54l12 109l43 7v56h-35l8 70h-111l8 -70h-37l8 70h-111l7 -70h-37v-106l47 8l6 -53l-66 -126l31 -28h-9v-233h164v233h-153l51 42l144 -17l-27 -287l-97 -18v-52h200v415l94 -180l-85 -227l43 -18l90 152
l80 -152l40 18l-80 207l58 291l-99 16l-21 -143l-31 81l-40 -20l34 85l171 39v60h-132l30 73l-112 25zM111 333l51 -27l43 84l-19 -408h113l-9 576l57 112l-116 48zM448 260l-13 -108l-19 -5l-16 122z" />
    <glyph glyph-name="uni5107" unicode="&#x5107;" 
d="M380 384v-161h119l-165 -112l21 -45l70 32l-11 -116l270 66l-5 46l-137 -10l-7 63l68 31l110 -108l149 -88l31 40l-90 79l80 36l-58 85l-66 -77l-56 78h171v161h-494zM106 336l54 -30l45 76l-23 -400h122l-5 560l70 119l-124 57zM381 688v-185h493v185h-493zM367 480v-79
l516 35v44h-516zM469 332l315 -17l-7 -24l-290 -17zM466 634l57 -3l11 -71l-49 -4zM614 625l31 -2l7 -55l-47 -3zM734 617l51 -3l-8 -37l-50 -3z" />
    <glyph glyph-name="uni5108" unicode="&#x5108;" 
d="M389 223v-231h452v231h-452zM380 460v-217h471v217h-471zM109 336l54 -30l45 77l-22 -401h122l-5 562l69 117l-124 57zM344 580l15 -49l71 21l1 -81l370 37l-1 35l74 -20l16 46l-153 74l41 12l-160 63zM491 68l262 25l-12 -38l-243 -17zM773 157l-6 -19h-291l-8 36z
M543 303l29 17l-27 85l21 -2l17 -103l-100 -7l-31 119l93 -7l-65 -37zM594 600l161 -44h-312zM754 368l-39 23l69 -5l-26 -73l-63 -5zM660 396l29 -3l-27 -73l20 -13l-34 -2z" />
    <glyph glyph-name="uni5109" unicode="&#x5109;" 
d="M108 335l55 -30l44 75l-22 -398h118l-5 553l74 126l-124 56zM347 530l25 -48l79 35v-88l340 47v41l74 -31l26 46l-163 109l44 20l-163 57zM630 415v-198h54l-81 -212l39 -22l85 122l113 -123l38 26l-92 183l18 26h56v198h-230zM376 415v-198h56l-74 -212l42 -22l81 120
l100 -75l32 34l-79 119l24 36h48v198h-230zM614 590l155 -64h-299zM789 339l-15 -43l-53 -11l-16 70zM539 339l-18 -46l-49 -10l-16 71z" />
    <glyph glyph-name="uni510B" unicode="&#x510b;" 
d="M376 581v-599h67l48 514l172 15l-150 -76l13 -35l165 35l-26 76l223 19v51h-99l91 109h-320l-84 28l-58 -137h-42zM111 336l54 -30l45 77l-22 -401h122l-5 562l69 117l-124 57zM523 154v-162h346v162h-346zM627 405l23 -23h-136v-69l364 28v41h-118l3 38zM523 308v-68
l346 28v40h-346zM869 194v40h-346v-68zM879 440l-157 72l-21 -77l165 -30zM794 87l-12 -29l-153 -18l-18 67zM708 616l-42 -35h-155l53 48z" />
    <glyph glyph-name="uni510D" unicode="&#x510d;" 
d="M867 380l-8 316h-70l-18 -147l-25 58l-45 -38l52 -36l18 14l-13 -110l-120 11l18 14l-26 58l-45 -37l49 -35l-150 14l-27 234h-75l-8 -316h112l-132 -87l19 -41l120 44l-132 -138l25 -37l46 24l108 -40l-181 -80l14 -42l269 84l227 -85l19 40l-176 89l132 92v58l25 -9
l19 41l-128 87h107zM111 336l54 -30l48 82l-22 -406h120l-5 564l68 115l-120 57zM704 702l-39 -39l-24 55l-45 -37l51 -37l-20 -20l-77 82l-55 -61l85 -68l-82 -82l28 -30l100 75l94 -75l28 30l-76 80l88 66zM604 336l-21 44h79l-23 -44l153 -56h-206l-34 37zM680 203
l-58 -46l-85 43l32 17zM473 577l52 -36l20 15l-26 58z" />
    <glyph glyph-name="uni5110" unicode="&#x5110;" 
d="M856 443l-19 79l-169 -45l12 47l68 10v53h-249v-52l-124 -73l14 -37l162 48l-14 32l34 5l12 -56l-220 -59l10 -47l27 5v-236h106l-145 -93l20 -42l229 84l-26 51h81l-27 -51l228 -84l21 40l-142 95h97v273h-256zM112 334l50 -28l53 89l-23 -413h118l-4 567l69 116
l-118 53zM450 543l29 59l303 21l-25 -80h105v130h-188l5 45l-146 -9l27 -36h-180v-130h70zM766 331l-3 -14h-280l-6 30zM507 184l235 20l-6 -28l-225 -18zM493 258l263 19l-7 -32h-253z" />
    <glyph glyph-name="uni5112" unicode="&#x5112;" 
d="M711 518l-17 -77l19 -2l-20 -73l148 -23l11 35l-115 58l112 -12l8 34h25v128h-195l4 39l191 16v49h-501v-91l193 16l3 -29h-196v-128h28l-4 -22l20 -2l-20 -68l148 -22l12 33l-107 55l107 -8l9 36l-104 39l7 15l106 7l17 -178h60l20 184l120 8l-17 -44zM381 328v-87
l196 15l-1 -34h-183v-235h61l41 179l30 -2l18 -158h51l23 151l31 -3l17 -148h37v-19h168v235h-214l32 43l194 16v47h-501zM117 336l54 -30l50 84l-23 -408h121l-4 568l65 111l-124 57zM792 144l-25 -98l-48 -8l17 110z" />
    <glyph glyph-name="uni5114" unicode="&#x5114;" 
d="M112 336l52 -30l46 78l-22 -402h124l-5 566l67 113v-51l207 13l4 -21h-191v-72l474 29v43h-200l5 27l214 15v43h-203l5 25h-125l5 -25h-195v-24l-119 55zM383 367v-76l495 34v42h-216l7 33l84 7v43h-361v-73l172 14l7 -24h-188zM383 198v-206h210v206h-210zM713 33v-41
h150l-6 155l30 4v42h-32l-1 25h-70l-3 -25h-175v-76l50 6l-29 -28l86 -57l26 19l-37 71l73 9l-10 -93zM374 523v-66l425 19l-24 -74h103v121h-504zM383 285v-77l495 34v43h-495zM521 125l-17 -77l-32 -6l-14 99z" />
    <glyph glyph-name="uni5115" unicode="&#x5115;" 
d="M531 704l25 -34h-186v-8l-120 56l-144 -381l56 -31l44 73l-23 -397h127l-5 563l65 108v-74l516 39v52h-185l9 48zM558 299v196l32 -49l20 -147h54l15 141l30 47v-188l109 15v39l-20 -1l-18 151l69 -209l43 9l-33 200h22v68l-142 -11l-76 18l-26 -87l-26 87l-56 -16h-172
v-50l12 -3l-25 -206l52 -9l52 194l11 -3l-17 -137l-23 -6v-43h113zM741 281l4 -24h-221l6 24h-141v-299h69l18 74l297 34l19 -108h64l15 299h-130zM504 172l250 29l10 -54h-266z" />
    <glyph glyph-name="uni511A" unicode="&#x511a;" 
d="M112 339l55 -33l49 82l-24 -406h123l-5 561l57 95v-58l118 10l6 -24h68l6 32l123 11l12 -43h64l10 51l113 10v48h-101l7 33h-132l9 -33h-88l7 33h-132l8 -33h-98v-9l-116 52zM461 253l10 23l66 4l-154 -149l26 -36l56 33l69 -44l-163 -54l14 -48l250 59l224 126v69
l-213 -1l25 15l-77 34l180 13l-17 -44h116v95h-492v-95h80zM386 556v-186h441v1h42v185h-483zM683 166l-88 -57l-43 71l5 2zM471 500l57 -3l14 -69l-50 -4zM616 492l37 -2l12 -52l-61 -5zM790 482l-12 -35l-53 -4l8 42z" />
    <glyph glyph-name="uni511F" unicode="&#x511f;" 
d="M385 379v-264h105l-132 -97l20 -36l210 77l-30 56h132l-31 -56l207 -77l22 36l-129 97h107l1 264h-482zM732 713l-47 -104h-26l25 104h-128l25 -104h-26l-46 104l-106 -41l68 -63h-95v-99h18v-115h459v115h18v99h-102l69 63zM111 337l55 -31l48 81l-23 -405h123l-5 563
l70 117l-129 56zM770 467l-7 -14l-263 -14l-11 42zM469 526l7 17l303 14l-13 -31h-297zM788 322l-3 -13h-316l-4 27zM479 250l299 18l-6 -30h-291zM491 180l273 17l-5 -25l-265 -13z" />
    <glyph glyph-name="uni5121" unicode="&#x5121;" 
d="M377 687v-292h488v292h-488zM365 368v-373h242v373h-242zM634 368v-373h242v373h-242zM123 331l50 -25l45 81l-21 -405h119l-5 570l64 114l-124 52zM460 634l110 -9l7 -53h-109zM667 512l104 9l-9 -56l-101 -5zM479 494l107 10l6 -48l-107 -6zM785 609l-6 -37h-106l5 45z
M426 313l30 -3l4 -98h-27zM695 313l29 -3l4 -98h-26zM820 298l-8 -86h-25l5 89zM551 298l-7 -86h-25l5 89zM784 155l24 4l-9 -99l-21 -3zM516 155l23 4l-8 -100l-21 -2zM438 140l24 5l4 -93l-22 -3zM707 140l24 5l4 -93l-22 -2z" />
    <glyph glyph-name="uni512A" unicode="&#x512a;" 
d="M356 699v-30l-116 49l-128 -387l51 -25l42 75l-21 -399h121l-5 570l56 99v-36l193 14l-3 -29h-167v-199h-19v-77h43l-43 -99l30 -23l108 95l-48 33l7 15l310 13l-12 -34h11l-38 -33l13 -11l-40 -3l-10 68l-89 -34l34 -39l-48 -4l-21 63h-68v-95l-25 15l-123 -160l25 -28
l43 30l100 -24l-162 -50l9 -37l280 56l230 -56l11 36l-163 56l119 61v68h-2l29 20l-52 101h52v77h-19v199h-205l34 38l194 15v47zM745 221v56l93 -74h-280l-32 18h219zM776 549l-4 -15h-307l-4 26zM475 476l288 20l-7 -28h-279zM487 410l260 18l-7 -27h-251zM687 143
l-63 -35l-123 43l7 5z" />
    <glyph glyph-name="uni5132" unicode="&#x5132;" 
d="M594 669v-108l83 15l8 -91h-101v-104l60 9l-81 -97v20h-238v-321h238v292l29 -27l20 19v-284h260l1 373h-170l43 41l141 23v56h-60l59 57l-67 59l-60 -72l5 63l116 21v56h-109l5 49h-110l4 -49h-76zM112 326l52 -20l19 45l-16 -369h110l-5 574l54 125l-118 37zM572 597
v55h-71l8 66l-139 -14l25 -52h-80v-91zM567 486v54h-247v-91zM567 375v54h-247v-90zM402 250l82 -15l-18 -167l-38 -9zM801 281l-7 -62h-100l-9 84zM703 135l84 21l-10 -87l-66 -14z" />
    <glyph glyph-name="uni5137" unicode="&#x5137;" 
d="M409 438l11 35l78 -8l-6 -26h52l15 -25h-222v-432h61l46 356l92 7l3 -29h-71v-47l77 -4l4 -43l-90 -4v-47h412v145h-124l6 45l127 10v43h-210l4 24h13l9 35l80 -9l-6 -25h100v161h-245v-151l-31 -3v154h-246v-162h61zM119 327l52 -21l19 44l-16 -368h109l-4 574l53 123
l-117 39zM679 159v-172h196v70l-102 -19l-6 30l113 29l-21 67l-101 -49l-8 44h-71zM662 94v42h-127l-4 23h-71v-177l203 30v44l-112 -2l-4 19zM880 645v45h-265v-82zM601 645v45h-264v-82zM615 262l54 -3l4 -32l-63 -3zM716 548l77 -11l-8 -33l-73 28zM444 550l73 -11
l-8 -31l-70 26zM628 352l31 2l4 -38h-40zM739 256l54 -2l-7 -22l-51 -2z" />
    <glyph glyph-name="uni513A" unicode="&#x513a;" 
d="M313 481v-152h103v-27h-100v-80l100 9v-20h-108v-80l74 7l-75 -124l39 -32l109 116l112 -116l38 28l-80 141l80 7v53h-105l1 29l96 9v53h-93l1 27h79l39 -11l17 52l-8 -388h91l-1 37h166v52l-63 11l4 114l55 13v52h-52l4 104l48 11v52h-45l4 104l39 9v53h-42l-10 124
l-87 -24l-94 24l-49 -280v43h-90l1 22h50l11 103l33 4v51h-27l6 47h-107l5 -47h-45l5 47h-107l6 -47h-32v-88l43 5l11 -75h53v-22h-103zM111 325l50 -19l26 66l-18 -390h107l-9 593l44 112l-113 31zM720 171l46 11l4 -90l-49 9zM717 338l43 9l3 -86h-45zM715 502l38 9l4 -83
h-41zM740 676l43 -82h-70zM431 588l59 8l3 -30l-65 -8zM383 425l33 -2v-36l-25 -2zM508 416l29 -2l-4 -19l-26 -2z" />
    <glyph glyph-name="uni513B" unicode="&#x513b;" 
d="M349 436v-161h204l1 -18h-212v-67l217 12l2 -19h-236v-66l78 4l-91 -105l27 -34l147 85l-46 56l101 5l-69 -29l81 -114l42 15l-29 130l118 6l-87 -37l81 -114l42 15l-31 136l93 5l-61 -69l139 -90l31 32l-97 127l84 5v37h-241l3 24l221 13v37h-216l2 18h207v161h-505z
M372 695l63 -38h-115v-92h22v-108h515v108h21v92h-117l64 38l-117 23l-41 -61h-20l18 61h-133l20 -61h-22l-41 61zM108 331l56 -25l23 54l-17 -378h110l-4 587l45 106l-117 43zM416 579l7 16l347 13l-12 -29h-342zM768 523l-5 -10l-310 -12l-12 35zM531 323l14 28l-57 38
l55 -3l5 -63l-94 -5l-7 24zM658 380l43 -3l-37 -22l8 -26l-20 -1zM434 392l28 -1l-17 -40zM686 330l79 18l-6 -15zM774 373l-9 -23l-9 24z" />
    <glyph glyph-name="uni513C" unicode="&#x513c;" 
d="M665 -18l3 49l42 5v43h-40l13 221l10 1l-2 -21l34 -9l-44 -27l70 -106l-55 -139l31 -17l62 99l67 -99l31 17l-64 137l45 190l-77 16l-17 -101l-22 47l-26 -16l31 74l117 22v48h-89l13 30l-83 19l-15 -111h-19v87h-216v-52l126 -12l-7 -23h-138v-70l19 1v-206h-19v-70
l161 16l3 -43h55zM112 327l52 -21l32 71l-18 -395h108l-4 585l49 108l-120 43zM395 -18l46 481l437 23v49h-547v-553h64zM346 699v-143h254v143h-254zM623 699v-143h235v143h-235zM426 649l96 -13l-6 -20l-80 -11zM528 100l73 13l2 -34h-78zM704 647l77 -11l-5 -20l-63 -8z
M541 192l54 11l2 -36h-60zM556 291l33 2l2 -37h-41z" />
    <glyph glyph-name="uni513F" unicode="&#x513f;" 
d="M135 3l70 -21l223 698l-159 38zM638 708h-98l-38 -716h362v202l-59 9l-47 -127l-102 20z" />
    <glyph glyph-name="uni5140" unicode="&#x5140;" 
d="M889 628v71h-779v-128l442 32l-28 -594h352v205l-62 8l-49 -131l-84 21l-18 499zM138 31l61 -31l282 503l-150 68z" />
    <glyph glyph-name="uni5141" unicode="&#x5141;" 
d="M837 296l49 31l-152 381l-133 -68l97 -142l-384 -1l150 151l-144 70l-207 -349l224 22l-180 -379l53 -30l259 336l-113 75l176 17l-27 -418h352v212l-61 8l-45 -145l-89 16l-28 337l110 11z" />
    <glyph glyph-name="uni5143" unicode="&#x5143;" 
d="M130 40l53 -40l295 298l-97 83l169 13l-30 -385h352v205l-59 8l-48 -136l-86 21l-18 296l211 16v70h-745v-127l217 16zM840 628v71h-681v-127z" />
    <glyph glyph-name="uni5144" unicode="&#x5144;" 
d="M162 704v-353h179l-226 -315l43 -40l314 285l-76 70h160l-29 -346h357v204l-59 8l-48 -136l-103 21l-16 249h176v353h-672zM275 628l453 -32l-31 -143l-389 -24z" />
    <glyph glyph-name="uni5145" unicode="&#x5145;" 
d="M813 229l45 31l-152 312l179 13v68h-294l13 65l-212 -10l41 -55h-319v-125l139 10l-111 -254l200 22l-213 -280l45 -44l307 256l-70 75l124 14l-25 -335h367v202l-60 9l-49 -136l-108 21l-26 250l75 8zM434 552l250 18l-108 -74l68 -78h-317z" />
    <glyph glyph-name="uni5146" unicode="&#x5146;" 
d="M842 212l47 111l-226 66l-2 58l228 67l-47 120l-184 -108l-7 182h-93l-19 -716h350v165l-57 8l-44 -93l-114 21l-8 201zM171 615l-56 -135l241 -62l-2 -38l-244 -119l61 -103l171 120l-102 -269l62 -27l156 302l40 426l-127 8l-12 -225z" />
    <glyph glyph-name="uni5148" unicode="&#x5148;" 
d="M851 558v65h-268l10 80h-157l9 -80h-102l33 39l-152 56l-95 -258l53 -32l65 79l210 17l13 -110h-344v-123l220 17l-217 -284l46 -42l303 254l-77 77l128 10l-19 -331h363v203l-61 8l-49 -136l-107 21l-23 243l230 19v64h-304l14 120z" />
    <glyph glyph-name="uni5149" unicode="&#x5149;" 
d="M601 454l34 -26h-97l28 290h-152l33 -290h-102l36 26l-120 240l-118 -93l178 -173h-209v-127l227 18l-215 -297l43 -40l301 258l-85 82l164 13l-24 -343h364v203l-61 8l-49 -136l-110 21l-21 255l241 20v65h-229l181 173l-115 93z" />
    <glyph glyph-name="uni514B" unicode="&#x514b;" 
d="M884 600v61h-319l8 57h-153l9 -57h-313v-120l328 25l10 -65h-283v-269h169l-233 -200l32 -50l315 167l-50 83h134l-21 -240h375v175l-59 7l-45 -107l-124 21l-16 144h177v269h-282l10 73zM281 431l430 -31l-15 -69l-390 -26z" />
    <glyph glyph-name="uni514D" unicode="&#x514d;" 
d="M841 656h-419l23 20l-161 42l-177 -256l43 -43l31 27v-232h144l-199 -178l43 -54l324 232h17l-18 -222h400v175l-61 7l-40 -107l-152 21l-15 126h210v287h-100zM335 580l310 -18l-55 -61h-346zM288 429l170 -10l-50 -126l-88 -7zM606 411l118 -7l-19 -87l-154 -13z" />
    <glyph glyph-name="uni5150" unicode="&#x5150;" 
d="M372 704v-457h168l-22 -242h371v176l-61 8l-45 -108l-114 21l-13 145h200v457h-484zM245 247l44 457h-147l28 -457h75zM110 40l39 -44l270 186l-86 103zM471 627l286 -30l-9 -73h-265zM496 413l242 35l-12 -96l-220 -25z" />
    <glyph glyph-name="uni5151" unicode="&#x5151;" 
d="M354 718l-162 -63l214 -98h-231v-306h175l-238 -220l38 -49l295 171l-69 98h167l-22 -259h366v179l-60 13l-49 -117l-104 21l-17 163h164v306h-188l169 88l-138 73l-155 -161h-65l28 28zM283 482l430 -22l-24 -114l-371 -21z" />
    </font>
</defs>
</svg>
